<svg width="1800" height="754" viewBox="0 0 1800 754" fill="none" xmlns="http://www.w3.org/2000/svg">
<rect width="1800" height="754" fill="#3F188C"/>
<mask id="mask0_614_10849" style="mask-type:alpha" maskUnits="userSpaceOnUse" x="0" y="0" width="1800" height="754">
<rect width="1800" height="754" fill="#F6FAFF"/>
</mask>
<g mask="url(#mask0_614_10849)">
<path d="M139 -315V932" stroke="white" stroke-opacity="0.05"/>
<path d="M279 -315V932" stroke="white" stroke-opacity="0.05"/>
<path d="M417 -315V932" stroke="white" stroke-opacity="0.05"/>
<path d="M557 -315V932" stroke="white" stroke-opacity="0.05"/>
<path d="M698 -315V932" stroke="white" stroke-opacity="0.05"/>
<path d="M838 -315V932" stroke="white" stroke-opacity="0.05"/>
<path d="M976 -315V932" stroke="white" stroke-opacity="0.05"/>
<path d="M1116 -315V932" stroke="white" stroke-opacity="0.05"/>
<path d="M1256 -315V932" stroke="white" stroke-opacity="0.05"/>
<path d="M1396 -315V932" stroke="white" stroke-opacity="0.05"/>
<path d="M1534 -315V932" stroke="white" stroke-opacity="0.05"/>
<path d="M1674 -315V932" stroke="white" stroke-opacity="0.05"/>
<path d="M1798 102H0" stroke="white" stroke-opacity="0.05"/>
<path d="M1798 242H0" stroke="white" stroke-opacity="0.05"/>
<path d="M1798 382H0" stroke="white" stroke-opacity="0.05"/>
<path d="M1798 522H0" stroke="white" stroke-opacity="0.05"/>
<path d="M1798 662H0" stroke="white" stroke-opacity="0.05"/>
<circle cx="697" cy="102" r="3" fill="#D1DFF4" fill-opacity="0.1"/>
<circle cx="697" cy="242" r="3" fill="#D1DFF4" fill-opacity="0.1"/>
<circle cx="697" cy="382" r="3" fill="#D1DFF4" fill-opacity="0.1"/>
<circle cx="838" cy="382" r="3" fill="#D1DFF4" fill-opacity="0.1"/>
<circle cx="838" cy="242" r="3" fill="#D1DFF4" fill-opacity="0.1"/>
<circle cx="838" cy="102" r="3" fill="#D1DFF4" fill-opacity="0.1"/>
<circle cx="975" cy="102" r="3" fill="#D1DFF4" fill-opacity="0.1"/>
<circle cx="972" cy="242" r="3" fill="#D1DFF4" fill-opacity="0.1"/>
<circle cx="976" cy="382" r="3" fill="#D1DFF4" fill-opacity="0.1"/>
<circle cx="1115" cy="382" r="3" fill="#D1DFF4" fill-opacity="0.1"/>
<circle cx="1113" cy="242" r="3" fill="#D1DFF4" fill-opacity="0.1"/>
<circle cx="1114" cy="102" r="3" fill="#D1DFF4" fill-opacity="0.1"/>
<circle cx="416" cy="102" r="3" fill="#D1DFF4" fill-opacity="0.1"/>
<circle cx="416" cy="242" r="3" fill="#D1DFF4" fill-opacity="0.1"/>
<circle cx="416" cy="382" r="3" fill="#D1DFF4" fill-opacity="0.1"/>
<circle cx="557" cy="382" r="3" fill="#D1DFF4" fill-opacity="0.1"/>
<circle cx="557" cy="242" r="3" fill="#D1DFF4" fill-opacity="0.1"/>
<circle cx="557" cy="102" r="3" fill="#D1DFF4" fill-opacity="0.1"/>
<circle cx="138" cy="102" r="3" fill="#D1DFF4" fill-opacity="0.1"/>
<circle cx="138" cy="242" r="3" fill="#D1DFF4" fill-opacity="0.1"/>
<circle cx="138" cy="382" r="3" fill="#D1DFF4" fill-opacity="0.1"/>
<circle cx="279" cy="382" r="3" fill="#D1DFF4" fill-opacity="0.1"/>
<circle cx="279" cy="242" r="3" fill="#D1DFF4" fill-opacity="0.1"/>
<circle cx="279" cy="102" r="3" fill="#D1DFF4" fill-opacity="0.1"/>
<circle cx="1256" cy="102" r="3" fill="#D1DFF4" fill-opacity="0.1"/>
<circle cx="1254" cy="242" r="3" fill="#D1DFF4" fill-opacity="0.1"/>
<circle cx="1256" cy="382" r="3" fill="#D1DFF4" fill-opacity="0.1"/>
<circle cx="1397" cy="382" r="3" fill="#D1DFF4" fill-opacity="0.1"/>
<circle cx="1395" cy="242" r="3" fill="#D1DFF4" fill-opacity="0.1"/>
<circle cx="1396" cy="102" r="3" fill="#D1DFF4" fill-opacity="0.1"/>
<circle cx="1534" cy="102" r="3" fill="#D1DFF4" fill-opacity="0.1"/>
<circle cx="1533" cy="242" r="3" fill="#D1DFF4" fill-opacity="0.1"/>
<circle cx="1534" cy="382" r="3" fill="#D1DFF4" fill-opacity="0.1"/>
<circle cx="699" cy="522" r="3" fill="#D1DFF4" fill-opacity="0.1"/>
<circle cx="837" cy="522" r="3" fill="#D1DFF4" fill-opacity="0.1"/>
<circle cx="976" cy="522" r="3" fill="#D1DFF4" fill-opacity="0.1"/>
<circle cx="1116" cy="522" r="3" fill="#D1DFF4" fill-opacity="0.1"/>
<circle cx="416" cy="522" r="3" fill="#D1DFF4" fill-opacity="0.1"/>
<circle cx="557" cy="522" r="3" fill="#D1DFF4" fill-opacity="0.1"/>
<circle cx="139" cy="522" r="3" fill="#D1DFF4" fill-opacity="0.1"/>
<circle cx="279" cy="522" r="3" fill="#D1DFF4" fill-opacity="0.1"/>
<circle cx="1256" cy="523" r="3" fill="#D1DFF4" fill-opacity="0.1"/>
<circle cx="1396" cy="522" r="3" fill="#D1DFF4" fill-opacity="0.1"/>
<circle cx="1533" cy="522" r="3" fill="#D1DFF4" fill-opacity="0.1"/>
<circle cx="1674" cy="522" r="3" fill="#D1DFF4" fill-opacity="0.1"/>
<circle cx="699" cy="662" r="3" fill="#D1DFF4" fill-opacity="0.1"/>
<circle cx="837" cy="662" r="3" fill="#D1DFF4" fill-opacity="0.1"/>
<circle cx="976" cy="662" r="3" fill="#D1DFF4" fill-opacity="0.1"/>
<circle cx="1116" cy="662" r="3" fill="#D1DFF4" fill-opacity="0.1"/>
<circle cx="416" cy="662" r="3" fill="#D1DFF4" fill-opacity="0.1"/>
<circle cx="557" cy="662" r="3" fill="#D1DFF4" fill-opacity="0.1"/>
<circle cx="139" cy="662" r="3" fill="#D1DFF4" fill-opacity="0.1"/>
<circle cx="279" cy="662" r="3" fill="#D1DFF4" fill-opacity="0.1"/>
<circle cx="1256" cy="663" r="3" fill="#D1DFF4" fill-opacity="0.1"/>
<circle cx="1396" cy="662" r="3" fill="#D1DFF4" fill-opacity="0.1"/>
<circle cx="1533" cy="662" r="3" fill="#D1DFF4" fill-opacity="0.1"/>
<circle cx="1674" cy="662" r="3" fill="#D1DFF4" fill-opacity="0.1"/>
<circle cx="1674" cy="382" r="3" fill="#D1DFF4" fill-opacity="0.1"/>
<circle cx="1674" cy="242" r="3" fill="#D1DFF4" fill-opacity="0.1"/>
<circle cx="1674" cy="102" r="3" fill="#D1DFF4" fill-opacity="0.1"/>
</g>
</svg>
