<svg width="73" height="81" viewBox="0 0 73 81" fill="none" xmlns="http://www.w3.org/2000/svg">
<path d="M0.131809 20.8512C0.131809 20.8992 0.141507 20.9472 0.151186 20.9856C0.160864 21.0144 0.170542 21.0528 0.18022 21.0912C0.189899 21.1392 0.199556 21.1776 0.218914 21.2256C0.228592 21.2544 0.247958 21.2928 0.257637 21.3216C0.276994 21.3696 0.296358 21.408 0.325394 21.456C0.35443 21.5136 0.393131 21.5712 0.431845 21.6384C0.441524 21.648 0.441543 21.6576 0.451221 21.6672C0.489936 21.7248 0.538314 21.7824 0.586707 21.8304C0.596386 21.8496 0.606063 21.8592 0.615742 21.8688C0.673814 21.9264 0.731908 21.9936 0.78998 22.0416C0.828695 22.08 0.877073 22.1184 0.925466 22.1568C0.96418 22.1856 1.00289 22.2144 1.0416 22.2432C1.09 22.272 1.14807 22.3104 1.19647 22.3488C1.24486 22.3872 1.30294 22.416 1.35133 22.4544L33.0296 40.7232L33.0973 79.5264L1.41909 61.2672C1.39973 61.2576 1.38035 61.248 1.37068 61.2384C1.33196 61.2192 1.29326 61.1904 1.26422 61.1712C1.21583 61.1328 1.15776 61.104 1.10936 61.0656C1.07065 61.0368 1.03194 61.008 0.993224 60.9696C0.954509 60.9312 0.906111 60.8928 0.867396 60.864C0.857718 60.8544 0.84804 60.8544 0.838362 60.8448C0.78029 60.7968 0.731893 60.7488 0.6835 60.6912C0.673821 60.6816 0.664144 60.672 0.654465 60.6528C0.625429 60.624 0.596406 60.5952 0.577049 60.5568C0.557691 60.528 0.538336 60.5088 0.518979 60.4704C0.5093 60.4608 0.509282 60.4512 0.499603 60.4416C0.470567 60.3936 0.431856 60.3456 0.412499 60.2976C0.40282 60.288 0.402831 60.2688 0.393152 60.2688C0.373795 60.2208 0.35444 60.1824 0.335082 60.1344C0.325404 60.1056 0.306038 60.0864 0.29636 60.0576C0.286681 60.048 0.286671 60.0384 0.286671 60.0288C0.276993 59.9904 0.257657 59.9424 0.247978 59.904C0.238299 59.8752 0.228602 59.8464 0.228602 59.8176C0.228602 59.808 0.228602 59.808 0.228602 59.7888C0.218923 59.7504 0.218934 59.7024 0.209255 59.664C0.209255 59.6352 0.199567 59.5968 0.199567 59.568C0.199567 59.5584 0.199567 59.5392 0.199567 59.5296L0.141498 20.7264C0.12214 20.7744 0.131809 20.8128 0.131809 20.8512Z" fill="#E4E7FB"/>
<path d="M70.9893 22.4544C71.8313 21.9744 72.2572 21.3408 72.2475 20.6976L72.3152 59.5009C72.3152 60.1345 71.899 60.7681 71.057 61.2481L39.1659 79.5168L39.0981 40.7136L70.9893 22.4544Z" fill="#EFF1FE"/>
<path d="M1.38052 18.9792C-0.293881 19.9296 -0.303549 21.504 1.36118 22.464L33.0393 40.7328C34.6944 41.6928 37.4238 41.6928 39.0982 40.7328L70.9893 22.4736C72.6637 21.5136 72.6733 19.9488 71.0086 18.9888L39.3304 0.719999C37.6657 -0.24 34.9364 -0.24 33.2716 0.719999L1.38052 18.9792Z" fill="white"/>
<path d="M36.0685 41.1264C37.1622 41.1264 38.1881 40.8864 38.943 40.4544L70.8342 22.1952C71.5504 21.7824 71.9375 21.264 71.9375 20.7168C71.9375 20.1792 71.5504 19.6608 70.8535 19.2576L39.1753 0.988785C38.4204 0.556784 37.4041 0.316772 36.3104 0.316772C35.2168 0.316772 34.2005 0.556784 33.4359 0.988785L1.54479 19.2576C0.838245 19.6608 0.441406 20.1888 0.441406 20.7264C0.441406 21.264 0.828547 21.792 1.52541 22.1952L33.2036 40.4544C33.9585 40.8864 34.9748 41.1264 36.0685 41.1264Z" fill="#FDFCFF"/>
<path d="M33.5038 79.7281C33.3683 79.6705 32.8553 79.3825 32.7295 79.3057V40.5409C32.8553 40.6177 33.3005 40.8576 33.4457 40.9248C33.4844 40.944 33.5328 40.9632 33.5715 40.9824C33.678 41.0304 33.7845 41.0688 33.9006 41.1072C33.9393 41.1264 33.9877 41.1361 34.0264 41.1553C34.1039 41.1745 34.1716 41.1937 34.2394 41.2129C34.2974 41.2321 34.3555 41.2417 34.4136 41.2609C34.491 41.2801 34.5684 41.2992 34.6555 41.3088C34.7136 41.3184 34.762 41.3281 34.8201 41.3377C34.9749 41.3665 35.1395 41.3856 35.304 41.4048C35.3524 41.4144 35.4105 41.4144 35.4589 41.4144C35.5556 41.424 35.6525 41.4337 35.7492 41.4337C35.817 41.4337 35.875 41.4337 35.9428 41.4337C36.0202 41.4337 36.0977 41.4337 36.1751 41.4337C36.2429 41.4337 36.3106 41.4336 36.3783 41.424C36.4461 41.424 36.5235 41.4144 36.5913 41.4144C36.659 41.4144 36.7268 41.4049 36.7945 41.3953C36.8623 41.3857 36.9397 41.3761 37.0075 41.3761C37.0752 41.3665 37.1333 41.3568 37.201 41.3472C37.2785 41.3376 37.3559 41.3184 37.4333 41.3088C37.4914 41.2992 37.5495 41.2896 37.6075 41.28C37.6946 41.2608 37.7817 41.2417 37.8785 41.2129C37.9269 41.2033 37.9753 41.1936 38.0237 41.1744C38.1786 41.1264 38.3335 41.0785 38.4786 41.0209C38.5464 40.9921 38.6238 40.9632 38.6915 40.9344C38.7303 40.9152 38.769 40.896 38.8077 40.8864C38.9142 40.8384 39.5046 40.5024 39.611 40.4448V79.2865C39.5142 79.3441 38.9819 79.6417 38.8754 79.6897C38.8367 79.7089 38.8077 79.7185 38.769 79.7377C38.7109 79.7665 38.6431 79.7953 38.5754 79.8241C38.5657 79.8241 38.556 79.8241 38.5464 79.8337C38.4012 79.8913 38.2463 79.9393 38.0915 79.9873C38.0818 79.9969 38.0721 79.9969 38.0528 79.9969C38.0141 80.0065 37.9753 80.0161 37.9366 80.0257C37.8495 80.0545 37.7721 80.0737 37.685 80.0833C37.6656 80.0929 37.6366 80.1025 37.6172 80.1025C37.5785 80.1121 37.5398 80.1217 37.5011 80.1217C37.4333 80.1409 37.3559 80.1409 37.2881 80.1601C37.2591 80.1601 37.2204 80.1697 37.1914 80.1793C37.1526 80.1889 37.1139 80.1889 37.0752 80.1889C37.0075 80.1985 36.9397 80.2081 36.8816 80.2081C36.8429 80.2081 36.8139 80.2177 36.7752 80.2177C36.7365 80.2177 36.7074 80.2177 36.6687 80.2273C36.6009 80.2369 36.5332 80.2369 36.4655 80.2369C36.4267 80.2369 36.388 80.2369 36.3493 80.2369C36.3203 80.2369 36.2912 80.2369 36.2622 80.2369C36.1848 80.2369 36.1073 80.2369 36.0299 80.2369C35.9815 80.2369 35.9525 80.2369 35.9138 80.2369C35.8944 80.2369 35.8654 80.2369 35.846 80.2273C35.7492 80.2273 35.6524 80.2177 35.5557 80.2081C35.5169 80.1985 35.4685 80.1985 35.4395 80.1985C35.4202 80.1985 35.4105 80.1985 35.4008 80.1985C35.2363 80.1793 35.0717 80.1601 34.9169 80.1313C34.9072 80.1313 34.8975 80.1313 34.8878 80.1313C34.8394 80.1121 34.791 80.1025 34.7426 80.0929C34.6652 80.0833 34.5878 80.0641 34.5104 80.0449C34.4523 80.0353 34.3942 80.0161 34.3361 80.0065C34.2587 79.9873 34.191 79.9585 34.1232 79.9393C34.1039 79.9393 34.0845 79.9297 34.0748 79.9297C34.0458 79.9201 34.0264 79.9105 33.9974 79.9009C33.8813 79.8625 33.7748 79.8241 33.6683 79.7761C33.5909 79.7569 33.5425 79.7377 33.5038 79.7281Z" fill="url(#paint0_linear_601_20060)"/>
<defs>
<linearGradient id="paint0_linear_601_20060" x1="39.5923" y1="60.3388" x2="32.7295" y2="60.3388" gradientUnits="userSpaceOnUse">
<stop stop-color="#EFF1FE"/>
<stop offset="1" stop-color="#E4E7FB"/>
</linearGradient>
</defs>
</svg>
