<svg width="34" height="66" viewBox="0 0 34 66" fill="none" xmlns="http://www.w3.org/2000/svg">
<path d="M30.3873 39.882L15.2935 48.664L0.0908203 39.882L15.1946 31.1099L30.3873 39.882Z" fill="#FDFCFF"/>
<path d="M26.6187 39.882L15.2835 46.4685L3.86914 39.882L15.2044 33.2954L26.6187 39.882Z" fill="url(#paint0_linear_601_13137)"/>
<path d="M22.5833 42.2159L15.2639 46.4685L7.89502 42.2159L15.2144 37.9634L22.5833 42.2159Z" fill="url(#paint1_linear_601_13137)"/>
<path d="M30.3871 39.882L24.2151 59.5921L15.1152 65.3676L15.2933 48.664L30.3871 39.882Z" fill="#E4E7FB"/>
<path d="M15.2934 48.664L15.1154 65.3676L5.91668 59.5921L0.0908203 39.882L15.2934 48.664Z" fill="#EFF1FE"/>
<path d="M13.889 44.5598C13.9583 43.6302 13.0384 43.9665 12.7516 43.0665C12.4351 42.0281 12.801 41.0292 12.3065 39.9908C11.446 38.1612 9.62599 37.7953 8.10276 36.6085C6.15421 35.0855 8.10277 35.0756 8.23135 33.0581C8.37972 30.7736 6.88614 31.0703 5.30356 29.5572C2.49449 26.8573 1.22843 23.0498 3.51328 23.6531C3.77044 23.7223 4.00783 23.7618 4.25511 23.6531C4.55184 23.5245 2.94951 20.7851 2.91983 20.4686C2.79125 19.0643 3.80998 19.173 4.10672 17.9072C4.56171 15.9886 2.03949 13.981 4.42324 12.5074C6.96525 10.935 9.94251 14.8908 10.0216 17.1457C10.0315 17.3632 9.8238 20.9927 10.0711 20.8642C16.3124 17.6797 10.6052 28.7858 12.9791 30.7736C14.1957 30.2198 14.5715 28.4397 15.7387 30.1209C16.6783 31.4758 15.353 33.2856 15.165 34.5812C14.8485 36.9151 14.8584 34.7987 16.1442 35.9558C19.2401 38.7645 16.7871 44.5202 14.4726 45.7268L13.889 44.5598Z" fill="url(#paint2_linear_601_13137)"/>
<path d="M15.1849 34.5911C15.363 33.3054 16.6884 31.4956 15.7586 30.1309C14.5915 28.4595 14.2156 30.2396 12.999 30.7836C10.6152 28.7957 16.3323 17.6896 10.091 20.8741C9.84374 21.0027 10.0514 17.3633 10.0415 17.1556C10.0019 16.1172 9.34917 14.7227 8.40951 13.6744C8.05342 14.9601 9.4085 16.4633 9.0722 17.9171C8.77546 19.183 7.74676 19.0742 7.87534 20.4785C7.90502 20.795 9.51731 23.5344 9.21069 23.663C8.96341 23.7718 8.73591 23.7322 8.46885 23.663C6.18399 23.0597 7.45006 26.8673 10.2591 29.5671C11.8417 31.0803 13.3353 30.7836 13.187 33.0681C13.0584 35.0757 11.1098 35.0955 13.0584 36.6185C14.5717 37.8052 16.4115 38.1711 17.2621 40.0007C17.3907 40.2677 17.4599 40.5348 17.4995 40.8018C17.816 39.0513 17.539 37.2217 16.1641 35.9756C14.8684 34.8086 14.8585 36.925 15.1849 34.5911Z" fill="url(#paint3_linear_601_13137)"/>
<path d="M15.7387 46.2015C15.8179 44.8862 16.985 44.1742 17.4895 42.9775C18.0731 41.6028 17.7862 40.1194 18.5775 38.7942C19.9721 36.4701 22.3065 36.4602 24.4034 35.2141C27.0938 33.6219 24.6705 33.0681 24.8584 30.2099C25.076 26.9661 28.528 26.8376 30.7634 25.1464C34.7297 22.14 30.1204 22.9114 29.9721 19.539C29.8831 17.4819 33.8197 15.6029 33.0878 13.4865C32.3657 11.3602 29.3291 12.9327 28.5972 10.302C27.4103 6.04949 34.6506 3.7353 33.3351 0.718955C26.9652 -1.72379 26.4212 9.26364 24.7199 12.636C17.5093 6.45498 22.6724 23.5839 19.3589 25.72C17.9445 24.6223 17.7763 22.0114 16.0454 24.0388C14.6408 25.6805 15.9762 28.5881 15.9663 30.4374C15.9564 33.7999 14.5122 32.0989 12.7121 33.3845C8.35997 36.4701 12.1977 43.9467 14.8683 46.2609L15.2739 46.4784L15.7387 46.2015Z" fill="url(#paint4_linear_601_13137)"/>
<path d="M29.9815 19.5291C29.942 18.639 30.6541 17.7885 31.4157 16.9281C31.4652 15.6721 32.207 14.5843 33.1269 13.5953C33.117 13.5558 33.117 13.5162 33.0972 13.4766C32.6719 12.2107 31.4157 12.2602 30.3178 11.9437C29.1012 14.8414 28.5275 18.5896 27.6472 20.3302C20.4366 14.1491 25.5997 31.278 22.2862 33.4141C20.8718 32.3164 20.7135 29.7055 18.9727 31.7329C17.5682 33.3746 18.9035 36.2821 18.8936 38.1315C18.8936 38.2007 18.8837 38.2699 18.8837 38.3293C20.2981 36.4601 22.4445 36.3711 24.393 35.2141C27.0834 33.6218 24.6601 33.068 24.848 30.2099C25.0656 26.9661 28.5176 26.8375 30.753 25.1464C34.749 22.1301 30.1398 22.9015 29.9815 19.5291Z" fill="url(#paint5_linear_601_13137)"/>
<path d="M15.6495 41.0687C14.2845 42.0379 13.7306 43.4324 13.6812 44.9653C14.0867 45.4795 14.4922 45.9147 14.868 46.2509L15.2736 46.4685L15.7286 46.2015C15.8077 44.8862 16.9749 44.1741 17.4793 42.9774C17.8354 42.117 17.8651 41.227 18.0332 40.3468C17.4496 40.5446 16.599 40.3962 15.6495 41.0687Z" fill="url(#paint6_linear_601_13137)"/>
<defs>
<linearGradient id="paint0_linear_601_13137" x1="3.87015" y1="39.8845" x2="26.6156" y2="39.8845" gradientUnits="userSpaceOnUse">
<stop stop-color="#B7C0EB"/>
<stop offset="0.2785" stop-color="#E4E7FB"/>
<stop offset="1" stop-color="#E4E7FB"/>
</linearGradient>
<linearGradient id="paint1_linear_601_13137" x1="7.89898" y1="42.2175" x2="22.5878" y2="42.2175" gradientUnits="userSpaceOnUse">
<stop stop-color="#4CD9ED"/>
<stop offset="0.0383" stop-color="#4BD3ED"/>
<stop offset="0.32" stop-color="#48AFED"/>
<stop offset="0.5827" stop-color="#4595EC"/>
<stop offset="0.8173" stop-color="#4485EC"/>
<stop offset="1" stop-color="#437FEC"/>
</linearGradient>
<linearGradient id="paint2_linear_601_13137" x1="9.97733" y1="45.7381" x2="9.97733" y2="12.1614" gradientUnits="userSpaceOnUse">
<stop stop-color="#4CD9ED"/>
<stop offset="0.1713" stop-color="#7BE3F2"/>
<stop offset="0.3665" stop-color="#AAEDF6"/>
<stop offset="0.5531" stop-color="#CFF5FA"/>
<stop offset="0.7259" stop-color="#E9FAFD"/>
<stop offset="0.8801" stop-color="#F9FEFE"/>
<stop offset="1" stop-color="white"/>
</linearGradient>
<linearGradient id="paint3_linear_601_13137" x1="7.28768" y1="27.2342" x2="17.611" y2="27.2342" gradientUnits="userSpaceOnUse">
<stop stop-color="#5FEFC0"/>
<stop offset="0.1335" stop-color="#5CECC6"/>
<stop offset="1" stop-color="#4CD9ED"/>
</linearGradient>
<linearGradient id="paint4_linear_601_13137" x1="22.1262" y1="46.4709" x2="22.1262" y2="0.350978" gradientUnits="userSpaceOnUse">
<stop stop-color="#4CD9ED"/>
<stop offset="0.1713" stop-color="#7BE3F2"/>
<stop offset="0.3665" stop-color="#AAEDF6"/>
<stop offset="0.5531" stop-color="#CFF5FA"/>
<stop offset="0.7259" stop-color="#E9FAFD"/>
<stop offset="0.8801" stop-color="#F9FEFE"/>
<stop offset="1" stop-color="white"/>
</linearGradient>
<linearGradient id="paint5_linear_601_13137" x1="18.3387" y1="25.1313" x2="33.1295" y2="25.1313" gradientUnits="userSpaceOnUse">
<stop stop-color="#5FEFC0"/>
<stop offset="0.1335" stop-color="#5CECC6"/>
<stop offset="1" stop-color="#4CD9ED"/>
</linearGradient>
<linearGradient id="paint6_linear_601_13137" x1="13.6865" y1="43.4098" x2="18.0429" y2="43.4098" gradientUnits="userSpaceOnUse">
<stop stop-color="#5FEFC0"/>
<stop offset="0.1335" stop-color="#5CECC6"/>
<stop offset="1" stop-color="#4CD9ED"/>
</linearGradient>
</defs>
</svg>
