<svg width="134" height="209" viewBox="0 0 134 209" fill="none" xmlns="http://www.w3.org/2000/svg">
<path d="M132.83 47.8513C132.81 47.4261 132.79 46.981 132.751 46.5459C132.741 46.447 132.741 46.3481 132.731 46.2492C132.721 46.1009 132.682 45.9525 132.662 45.8042C132.612 45.4383 132.563 45.0723 132.503 44.7064C132.454 44.4493 132.414 44.202 132.365 43.9548C132.286 43.5988 132.207 43.2428 132.108 42.8867C132.068 42.7285 132.039 42.5702 131.999 42.4318C131.969 42.3527 131.94 42.2835 131.92 42.2043C131.742 41.6011 131.554 41.0275 131.326 40.4539C131.307 40.4044 131.297 40.355 131.277 40.3055C131.03 39.6825 130.753 39.0891 130.456 38.5056C130.426 38.4463 130.407 38.377 130.377 38.3276C130.327 38.2287 130.258 38.1397 130.209 38.0507C129.942 37.5562 129.655 37.0914 129.348 36.6365C129.259 36.498 129.17 36.3595 129.071 36.2211C128.686 35.6673 128.26 35.1431 127.825 34.6486C127.746 34.5695 127.667 34.4904 127.588 34.4113C127.202 34.0058 126.796 33.6201 126.371 33.2542C126.242 33.1454 126.104 33.0267 125.965 32.9179C125.451 32.5125 124.917 32.1268 124.353 31.8004L76.5792 4.22807C76.0946 3.95116 75.6098 3.7138 75.1153 3.50612C74.9471 3.43689 74.779 3.39734 74.6108 3.32811C74.3339 3.22922 74.057 3.11052 73.7701 3.0314C73.7305 3.02151 73.6811 3.02153 73.6415 3.01164C73.2854 2.91274 72.9195 2.8633 72.5634 2.80396C72.3854 2.77429 72.2073 2.72484 72.0293 2.70506C71.4853 2.64572 70.9511 2.62594 70.417 2.64572L60.8128 3.0413C60.9117 3.03141 61.0106 3.06109 61.1194 3.0512C55.8672 3.12043 50.9316 7.0565 48.7456 13.7024L1.99036 155.807C-0.996751 164.895 2.30691 175.576 9.37905 179.661L57.1432 207.243C59.2203 208.44 61.3964 208.924 63.513 208.796C63.4438 208.796 63.3844 208.815 63.3152 208.815L72.9096 208.42C78.053 208.212 82.8304 204.276 84.9669 197.779L131.722 55.6741C131.969 54.9027 132.167 54.1214 132.325 53.3401C132.365 53.1522 132.405 52.9544 132.434 52.7764C132.573 51.9852 132.691 51.2039 132.751 50.4226V50.4128V50.3732C132.8 49.7402 132.81 49.1073 132.81 48.4744C132.86 48.2766 132.84 48.0689 132.83 47.8513Z" fill="#B1B8E4"/>
<path d="M65.0164 1.36993C64.6998 1.25125 64.3833 1.14246 64.0569 1.05345C63.681 0.954552 63.3052 0.885324 62.9293 0.835875C62.7611 0.806206 62.6029 0.756752 62.4249 0.736973C61.8809 0.677635 61.3369 0.657858 60.8027 0.677637L70.4466 0.272188C70.9807 0.252409 71.5247 0.272186 72.0687 0.331524C72.2468 0.351303 72.4248 0.400727 72.6028 0.430396C72.9688 0.489734 73.3249 0.539204 73.6908 0.6381C73.7403 0.64799 73.7799 0.647979 73.8194 0.657869C74.0964 0.736986 74.3832 0.85565 74.6602 0.954546C74.8283 1.01388 74.9964 1.06336 75.1646 1.13258C75.6592 1.33038 76.1439 1.5776 76.6285 1.85451L124.66 29.5752L115.016 29.9807L66.9847 2.25012C66.5 1.96332 66.0055 1.72596 65.5109 1.52816C65.3625 1.47871 65.1845 1.43915 65.0164 1.36993Z" fill="#F9FAFF"/>
<path d="M75.4616 196.879L122.464 54.0026C122.721 53.2313 122.909 52.45 123.077 51.6588C123.117 51.461 123.157 51.2731 123.186 51.0753C123.325 50.294 123.443 49.5127 123.503 48.7216C123.503 48.6721 123.503 48.6326 123.513 48.5831C123.552 47.9798 123.572 47.3667 123.572 46.7634C123.562 46.5458 123.552 46.3382 123.552 46.1206C123.532 45.6854 123.513 45.2404 123.473 44.8053C123.453 44.558 123.424 44.3009 123.394 44.0537C123.344 43.6778 123.295 43.3218 123.226 42.9559C123.186 42.6988 123.137 42.4515 123.087 42.2043C123.008 41.8384 122.929 41.4922 122.83 41.1362C122.771 40.8988 122.711 40.6714 122.642 40.4439C122.474 39.8407 122.276 39.2572 122.049 38.6836C122.029 38.6341 122.009 38.5748 121.999 38.5253C121.752 37.9122 121.475 37.3188 121.178 36.7353C121.089 36.5771 121 36.4188 120.921 36.2606C120.654 35.776 120.377 35.3112 120.071 34.8563C119.972 34.7178 119.883 34.5596 119.784 34.4211C119.388 33.8673 118.973 33.3431 118.537 32.8487C118.458 32.7597 118.369 32.6805 118.28 32.5816C117.894 32.1762 117.499 31.8004 117.074 31.4443C116.935 31.3257 116.797 31.207 116.658 31.0982C116.144 30.6927 115.61 30.3169 115.046 29.9906L124.69 29.5851C125.263 29.9114 125.797 30.2972 126.312 30.7125C126.45 30.8213 126.589 30.94 126.717 31.0488C127.143 31.4147 127.548 31.8004 127.944 32.2058C128.023 32.2948 128.102 32.3641 128.181 32.4531C128.626 32.9476 129.042 33.4717 129.437 34.0354C129.536 34.1739 129.625 34.3124 129.724 34.4508C130.031 34.9156 130.318 35.3903 130.585 35.8749C130.634 35.9738 130.703 36.0628 130.753 36.1617C130.783 36.221 130.802 36.2804 130.832 36.3397C131.129 36.9232 131.416 37.5265 131.653 38.1396C131.673 38.1891 131.693 38.2385 131.712 38.288C131.94 38.8616 132.128 39.4549 132.306 40.0483C132.326 40.1274 132.355 40.1967 132.385 40.2758C132.434 40.4241 132.454 40.5824 132.494 40.7307C132.583 41.0966 132.672 41.4428 132.741 41.8087C132.79 42.056 132.84 42.3131 132.889 42.5603C132.949 42.9262 132.998 43.2922 133.048 43.6581C133.067 43.8064 133.097 43.9548 133.117 44.113C133.127 44.2119 133.127 44.3108 133.137 44.4097C133.176 44.8448 133.206 45.28 133.216 45.7151C133.226 45.9228 133.236 46.1404 133.236 46.3579C133.236 46.9909 133.226 47.6238 133.176 48.2667C133.176 48.2765 133.176 48.2864 133.176 48.3062C133.117 49.0974 132.998 49.8886 132.86 50.6698C132.82 50.8676 132.781 51.0555 132.741 51.2434C132.573 52.0346 132.385 52.8159 132.138 53.5873L85.1351 196.463C82.9887 203 78.1717 206.946 73.0086 207.164L63.3647 207.569C68.4982 207.371 73.3054 203.416 75.4616 196.879Z" fill="url(#paint0_linear_663_8)"/>
<path d="M64.2747 10.5575C58.3598 7.14552 51.5053 10.5574 49.0028 18.1527L3.81033 155.53C1.31777 163.125 4.09713 172.105 10.012 175.517L58.0432 203.238C63.9581 206.65 70.8127 203.238 73.3151 195.642L118.508 58.2651C121 50.6699 118.231 41.6901 112.316 38.288L64.2747 10.5575Z" fill="url(#paint1_linear_663_8)"/>
<path d="M115.026 30.0005C122.138 34.1047 125.471 44.8449 122.464 54.0027L75.4616 196.878C72.4548 206.016 64.255 210.101 57.1334 205.987L9.10211 178.256C1.9904 174.152 -1.33302 163.412 1.67388 154.274L48.6864 11.3882C51.6933 2.23037 59.9029 -1.84416 67.0047 2.25016L115.026 30.0005ZM3.81039 155.52C1.31783 163.115 4.09719 172.095 10.0121 175.507L58.0433 203.228C63.9582 206.64 70.8128 203.228 73.3152 195.632L118.508 58.2552C121 50.66 118.231 41.6901 112.316 38.2781L64.2846 10.5476C58.3697 7.13563 51.5153 10.5476 49.0128 18.1428L3.81039 155.52Z" fill="white"/>
<path d="M84.126 15.8978C83.7205 15.6605 83.2555 15.878 83.0874 16.4022C82.9192 16.9165 83.1072 17.5197 83.5127 17.7571L95.2239 24.5216C95.6295 24.7589 96.0844 24.5117 96.2526 24.0073C96.4208 23.4733 96.2427 22.8898 95.8372 22.6524L84.126 15.8978Z" fill="url(#paint2_linear_663_8)"/>
<path opacity="0.4" d="M112.326 38.2782L64.3046 10.5575C60.9219 8.59934 57.2325 8.89601 54.2256 10.9135L90.5952 143.178L118.528 58.2652C121.02 50.6699 118.251 41.6901 112.326 38.2782Z" fill="white"/>
<path d="M76.985 41.4032L59.6953 31.4245C58.4886 30.7224 57.084 31.4245 56.5697 32.9772L49.2602 55.1993C48.7458 56.7519 49.3195 58.5914 50.5262 59.2936L67.8159 69.2722C69.0226 69.9744 70.4272 69.2722 70.9415 67.7196L76.9751 49.3743L76.4113 49.6512L70.5458 67.4921C70.1304 68.758 68.9831 69.3415 67.9841 68.7679L50.6943 58.7892C49.7052 58.2156 49.2403 56.7025 49.6558 55.4366L56.9653 33.2146C57.3906 31.9289 58.538 31.3652 59.5271 31.9388L76.8168 41.9174C77.8158 42.491 78.2807 43.9943 77.8554 45.2701V45.2799L78.3796 45.0228C78.6466 43.5789 78.073 42.0262 76.985 41.4032Z" fill="white"/>
<path d="M40.002 91.2767C39.0129 90.7031 38.548 89.19 38.9634 87.9242L46.273 65.712C46.6884 64.4461 47.8456 63.8626 48.8347 64.4362L66.1244 74.4149C67.1234 74.9885 67.5784 76.5016 67.163 77.7675L59.8534 99.9797C59.438 101.246 58.2907 101.829 57.2917 101.255L40.002 91.2767ZM66.2926 73.8908L49.0029 63.9121C47.7962 63.2099 46.3916 63.9121 45.8773 65.4648L38.5678 87.6769C38.0534 89.2296 38.6271 91.069 39.8339 91.7712L57.1235 101.75C58.3302 102.452 59.7348 101.75 60.2491 100.197L67.5586 77.985C68.073 76.4324 67.4993 74.5929 66.2926 73.8908Z" fill="white"/>
<path d="M54.6012 138.361C53.6121 137.788 53.1374 136.285 53.5627 135.009L60.8722 112.797C61.2877 111.531 62.4449 110.947 63.434 111.521L80.7237 121.499C81.7227 122.073 82.1777 123.586 81.7622 124.852L74.4527 147.064C74.0274 148.35 72.8899 148.914 71.8909 148.34L54.6012 138.361ZM80.8819 120.985L63.5923 111.007C62.3856 110.304 60.981 111.007 60.4667 112.559L53.1571 134.781C52.6428 136.334 53.2165 138.173 54.4232 138.876L71.7128 148.854C72.9196 149.557 74.3241 148.854 74.8385 147.302L82.148 125.089C82.6623 123.527 82.0985 121.687 80.8819 120.985Z" fill="white"/>
<path d="M80.7431 44.3701C80.4364 44.1921 80.0803 44.1624 79.744 44.3306L78.3692 45.013L77.845 45.2701L62.583 52.8654L59.6552 43.4306C59.5168 42.9955 59.2596 42.6691 58.953 42.4911C58.6464 42.3131 58.2903 42.2834 57.954 42.4515C57.2913 42.7878 56.9649 43.7669 57.232 44.6371L60.6543 55.6543C60.7828 56.0697 61.0301 56.4158 61.3466 56.6037C61.6632 56.7817 62.0291 56.8015 62.3556 56.6433L76.4009 49.6611L76.9647 49.3842L80.7134 47.5151C81.3761 47.1788 81.7025 46.1997 81.4354 45.3294C81.3168 44.8745 81.0497 44.5482 80.7431 44.3701Z" fill="#FD7B88"/>
<path d="M102.266 56.0004L84.9864 46.0217C83.7796 45.3195 82.3751 46.0217 81.8607 47.5744L74.5512 69.7964C74.0368 71.3491 74.6105 73.1886 75.8173 73.8908L93.1069 83.8694C94.3137 84.5715 95.7182 83.8694 96.2326 82.3167L102.266 63.9714L101.702 64.2483L95.8369 82.0893C95.4215 83.3551 94.2741 83.9386 93.2751 83.365L75.9854 73.3864C74.9963 72.8128 74.5314 71.2996 74.9468 70.0338L82.2564 47.8117C82.6817 46.5261 83.8291 45.9624 84.8182 46.536L102.098 56.5047C103.097 57.0783 103.562 58.5816 103.137 59.8573V59.8672L103.661 59.6101C103.928 58.1761 103.354 56.6234 102.266 56.0004Z" fill="white"/>
<path d="M106.025 58.9673C105.718 58.7893 105.362 58.7596 105.026 58.9278L103.651 59.6101L103.127 59.8673L87.8648 67.4625L84.937 58.0278C84.7985 57.5926 84.5414 57.2663 84.2348 57.0883C83.9281 56.9102 83.572 56.8806 83.2357 57.0487C82.573 57.3849 82.2467 58.364 82.5137 59.2343L85.936 70.2514C86.0646 70.6668 86.3119 71.0129 86.6284 71.2008C86.9449 71.3788 87.3109 71.3986 87.6373 71.2404L101.683 64.2583L102.246 63.9814L105.995 62.1122C106.658 61.7859 106.984 60.7969 106.717 59.9266C106.599 59.4717 106.341 59.1453 106.025 58.9673Z" fill="#FD7B88"/>
<path d="M91.5742 88.4879L74.2846 78.5092C73.0779 77.8071 71.6733 78.5093 71.159 80.0619L63.8495 102.274C63.3352 103.827 63.9088 105.666 65.1155 106.368L82.4052 116.347C83.6119 117.049 85.0164 116.347 85.5308 114.794L91.5643 96.4491L91.0005 96.726L85.1351 114.557C84.7197 115.823 83.5724 116.406 82.5734 115.833L65.2837 105.854C64.2946 105.281 63.8297 103.767 64.2451 102.502L71.5547 80.2795C71.9701 79.0136 73.1273 78.4301 74.1164 79.0037L91.4061 88.9824C92.4051 89.556 92.8601 91.0691 92.4447 92.335L92.4348 92.3548L92.959 92.0976C93.236 90.6834 92.6721 89.1209 91.5742 88.4879Z" fill="white"/>
<path d="M95.3329 91.4646C95.0263 91.2866 94.6702 91.2668 94.3339 91.4349L92.959 92.1173L92.4348 92.3745L77.1827 99.9598L74.2549 90.5251C74.1164 90.09 73.8593 89.7636 73.5527 89.5856C73.2461 89.4076 72.89 89.3779 72.5537 89.546C71.891 89.8822 71.5645 90.8613 71.8316 91.7316L75.2539 102.759C75.3825 103.174 75.6397 103.51 75.9562 103.688C76.2826 103.876 76.6288 103.886 76.9552 103.738L91.0006 96.7457L91.5644 96.4687L95.3131 94.5996C95.9758 94.2634 96.2923 93.3041 96.0253 92.4338C95.9066 91.9789 95.6494 91.6426 95.3329 91.4646Z" fill="#FD7B88"/>
<path d="M55.6001 106.388L38.3105 96.4094C37.1038 95.7072 35.6992 96.4094 35.1849 97.9621L27.8754 120.184C27.361 121.737 27.9348 123.576 29.1415 124.279L46.4311 134.257C47.6378 134.959 49.0423 134.257 49.5567 132.704L55.5902 114.359L55.0264 114.636L49.161 132.467C48.7357 133.753 47.5983 134.316 46.5993 133.743L29.3096 123.764C28.3205 123.191 27.8457 121.687 28.271 120.412L35.5806 98.1994C35.996 96.9335 37.1532 96.3501 38.1423 96.9237L55.432 106.902C56.431 107.476 56.886 108.989 56.4705 110.255L56.4606 110.285L56.9849 110.027C57.2618 108.584 56.698 107.021 55.6001 106.388Z" fill="white"/>
<path d="M59.3587 109.375C59.0521 109.197 58.696 109.167 58.3597 109.335L56.9849 110.018L56.4606 110.275L41.1987 117.87L38.2808 108.416C38.1423 107.98 37.8851 107.654 37.5785 107.476C37.2719 107.298 36.9158 107.268 36.5795 107.437C35.9168 107.773 35.5904 108.752 35.8575 109.622L39.2699 120.649C39.3985 121.064 39.6557 121.401 39.9722 121.579C40.2887 121.757 40.6547 121.786 40.9712 121.628L55.0165 114.636L55.5803 114.359L59.3291 112.49C59.9918 112.154 60.3182 111.195 60.0412 110.314C59.9225 109.879 59.6654 109.553 59.3587 109.375Z" fill="#FD7B88"/>
<defs>
<linearGradient id="paint0_linear_663_8" x1="98.2735" y1="207.582" x2="98.2735" y2="29.5925" gradientUnits="userSpaceOnUse">
<stop stop-color="#B1B8E4"/>
<stop offset="0.0353" stop-color="#C7CDEF"/>
<stop offset="0.0807" stop-color="#DEE2FA"/>
<stop offset="0.1095" stop-color="#E6EAFE"/>
<stop offset="0.7186" stop-color="#E6EAFE"/>
<stop offset="1" stop-color="#F9FAFF"/>
</linearGradient>
<linearGradient id="paint1_linear_663_8" x1="77.9345" y1="202.034" x2="44.3883" y2="11.7568" gradientUnits="userSpaceOnUse">
<stop stop-color="#437FEC"/>
<stop offset="0.0373" stop-color="#477EED"/>
<stop offset="0.4753" stop-color="#7772F3"/>
<stop offset="0.8102" stop-color="#956BF7"/>
<stop offset="1" stop-color="#A068F8"/>
</linearGradient>
<linearGradient id="paint2_linear_663_8" x1="96.3255" y1="20.2113" x2="83.0238" y2="20.2113" gradientUnits="userSpaceOnUse">
<stop stop-color="#A068F8"/>
<stop offset="0.1934" stop-color="#9478F6"/>
<stop offset="0.5723" stop-color="#75A2F2"/>
<stop offset="1" stop-color="#4CD9ED"/>
</linearGradient>
</defs>
</svg>
