<svg width="47" height="53" viewBox="0 0 47 53" fill="none" xmlns="http://www.w3.org/2000/svg">
<path d="M0.265259 39.9396C-0.57757 39.4006 0.857539 27.4751 0.857539 27.4751L21.2677 15.618C21.8724 15.3112 22.5409 15.1514 23.219 15.1514C23.8972 15.1514 24.5657 15.3112 25.1705 15.618L45.7172 27.4751C45.7172 27.4751 47.16 39.4234 46.0893 40.0382L25.3223 52.1839C24.7163 52.4907 24.0464 52.6505 23.3671 52.6505C22.6878 52.6505 22.018 52.4907 21.4119 52.1839L0.265259 39.9396Z" fill="#B7C0EB"/>
<path d="M46.522 13.5457C46.522 13.5457 46.522 13.6064 46.522 13.6368C46.5255 13.6594 46.5255 13.6825 46.522 13.7051V13.7886C46.5248 13.8113 46.5248 13.8343 46.522 13.8569C46.5248 13.8847 46.5248 13.9127 46.522 13.9404L46.4537 14.0619C46.4297 14.1024 46.3989 14.1383 46.3625 14.1682L46.2486 14.282L46.1575 14.3504L46.0816 14.4111L45.9829 14.4794L45.8766 14.5401L25.474 26.4049L25.4285 51.5918L45.8386 39.7347L45.9145 39.6891C45.9456 39.6638 45.9786 39.6409 46.0133 39.6208L46.0892 39.5601L46.1727 39.4917L46.2714 39.393L46.3246 39.3323V39.2792C46.3491 39.2519 46.3696 39.2212 46.3853 39.1881C46.3948 39.1589 46.4075 39.1309 46.4233 39.1046V39.0514V38.968C46.4188 38.9505 46.4188 38.9322 46.4233 38.9148C46.4267 38.8871 46.4267 38.8591 46.4233 38.8313C46.4265 38.8112 46.4265 38.7907 46.4233 38.7706L46.4689 13.5761C46.4689 13.5761 46.522 13.5229 46.522 13.5457Z" fill="#E4E7FB"/>
<path d="M0.872668 14.5859C0.647197 14.4869 0.452689 14.3288 0.309677 14.1284C0.166665 13.928 0.0804559 13.6926 0.060205 13.4473L0.0146484 38.6419C0.0364735 38.8868 0.123291 39.1214 0.266113 39.3215C0.408935 39.5217 0.602591 39.6802 0.827112 39.7805L21.3739 51.6377V26.4431L0.872668 14.5859Z" fill="#EFF1FE"/>
<path d="M45.7171 12.3314C46.7953 12.9463 46.7953 13.9635 45.7171 14.6087L25.3145 26.4735C24.7079 26.7785 24.0383 26.9374 23.3593 26.9374C22.6803 26.9374 22.0107 26.7785 21.4041 26.4735L0.90282 14.6163C-0.175395 13.9938 -0.182988 12.9766 0.90282 12.339L21.2674 0.466609C21.8722 0.159866 22.5407 0 23.2188 0C23.8969 0 24.5655 0.159866 25.1702 0.466609L45.7171 12.3314Z" fill="url(#paint0_linear_601_3064)"/>
<path d="M25.0185 51.774L25.5196 51.5008V26.329L25.0641 26.5795H24.9805L24.768 26.663H24.6844L24.5477 26.7085H24.4339L24.282 26.7465H24.1757L23.8644 26.7844H23.7657H23.5835H22.9077H22.771H22.6495C22.599 26.7881 22.5482 26.7881 22.4977 26.7844H22.3914C22.3321 26.7738 22.2737 26.7585 22.2168 26.7389C22.184 26.7424 22.1509 26.7424 22.1181 26.7389L21.8219 26.6402L21.6853 26.5795H21.6169C21.5486 26.5795 21.1613 26.329 21.1006 26.291V51.5159C21.1613 51.5159 21.503 51.7437 21.5789 51.774H21.6397L21.7688 51.8272L22.0649 51.9259H22.1408L22.3079 51.9638H22.3534C22.3781 51.9719 22.4047 51.9719 22.4293 51.9638H22.566H22.6268H22.6951H22.8242H23.7884L24.0998 51.9183H24.1909L24.3428 51.8803C24.3781 51.8839 24.4137 51.8839 24.4491 51.8803L24.5933 51.8348H24.6464L24.8591 51.7513L25.0185 51.774Z" fill="url(#paint1_linear_601_3064)"/>
<defs>
<linearGradient id="paint0_linear_601_3064" x1="15.0943" y1="6.6806" x2="40.9079" y2="19.5909" gradientUnits="userSpaceOnUse">
<stop stop-color="#FBFCFF"/>
<stop offset="1" stop-color="#F2F5FE"/>
</linearGradient>
<linearGradient id="paint1_linear_601_3064" x1="3161.9" y1="48327" x2="3181.26" y2="48327" gradientUnits="userSpaceOnUse">
<stop stop-color="#EFF1FE"/>
<stop offset="1" stop-color="#E4E7FB"/>
</linearGradient>
</defs>
</svg>
