<svg width="1798" height="1140" viewBox="0 0 1798 1140" fill="none" xmlns="http://www.w3.org/2000/svg">
<path d="M139 -52V1195" stroke="#1E78FF" stroke-opacity="0.04"/>
<path d="M279 -52V1195" stroke="#1E78FF" stroke-opacity="0.04"/>
<path d="M417 -52V1195" stroke="#1E78FF" stroke-opacity="0.04"/>
<path d="M557 -52V1195" stroke="#1E78FF" stroke-opacity="0.04"/>
<path d="M698 -52V1195" stroke="#1E78FF" stroke-opacity="0.04"/>
<path d="M838 -52V1195" stroke="#1E78FF" stroke-opacity="0.04"/>
<path d="M976 -52V1195" stroke="#1E78FF" stroke-opacity="0.04"/>
<path d="M1116 -52V1195" stroke="#1E78FF" stroke-opacity="0.04"/>
<path d="M1256 -52V1195" stroke="#1E78FF" stroke-opacity="0.04"/>
<path d="M1396 -52V1195" stroke="#1E78FF" stroke-opacity="0.04"/>
<path d="M1534 -52V1195" stroke="#1E78FF" stroke-opacity="0.04"/>
<path d="M1674 -52V1195" stroke="#1E78FF" stroke-opacity="0.04"/>
<path d="M1798 85H0" stroke="#1E78FF" stroke-opacity="0.04"/>
<path d="M1798 225H0" stroke="#1E78FF" stroke-opacity="0.04"/>
<path d="M1798 365H0" stroke="#1E78FF" stroke-opacity="0.04"/>
<path d="M1798 505H0" stroke="#1E78FF" stroke-opacity="0.04"/>
<path d="M1798 645H0" stroke="#1E78FF" stroke-opacity="0.04"/>
<path d="M1798 785H0" stroke="#1E78FF" stroke-opacity="0.04"/>
<path d="M1798 925H0" stroke="#1E78FF" stroke-opacity="0.04"/>
<path d="M1798 1065H0" stroke="#1E78FF" stroke-opacity="0.04"/>
<circle cx="697" cy="85" r="3" fill="white" fill-opacity="0.05"/>
<circle cx="697" cy="225" r="3" fill="white" fill-opacity="0.05"/>
<circle cx="697" cy="365" r="3" fill="white" fill-opacity="0.05"/>
<circle cx="697" cy="505" r="3" fill="white" fill-opacity="0.05"/>
<circle cx="697" cy="645" r="3" fill="white" fill-opacity="0.05"/>
<circle cx="838" cy="645" r="3" fill="white" fill-opacity="0.05"/>
<circle cx="838" cy="505" r="3" fill="white" fill-opacity="0.05"/>
<circle cx="838" cy="365" r="3" fill="white" fill-opacity="0.05"/>
<circle cx="838" cy="225" r="3" fill="white" fill-opacity="0.05"/>
<circle cx="838" cy="85" r="3" fill="white" fill-opacity="0.05"/>
<circle cx="975" cy="85" r="3" fill="white" fill-opacity="0.05"/>
<circle cx="974" cy="225" r="3" fill="white" fill-opacity="0.05"/>
<circle cx="975" cy="365" r="3" fill="white" fill-opacity="0.05"/>
<circle cx="972" cy="505" r="3" fill="white" fill-opacity="0.05"/>
<circle cx="976" cy="645" r="3" fill="white" fill-opacity="0.05"/>
<circle cx="1115" cy="645" r="3" fill="white" fill-opacity="0.05"/>
<circle cx="1113" cy="505" r="3" fill="white" fill-opacity="0.05"/>
<circle cx="1114" cy="365" r="3" fill="white" fill-opacity="0.05"/>
<circle cx="1115" cy="225" r="3" fill="white" fill-opacity="0.05"/>
<circle cx="1113" cy="85" r="3" fill="white" fill-opacity="0.05"/>
<circle cx="416" cy="85" r="3" fill="white" fill-opacity="0.05"/>
<circle cx="416" cy="225" r="3" fill="white" fill-opacity="0.05"/>
<circle cx="416" cy="365" r="3" fill="white" fill-opacity="0.05"/>
<circle cx="416" cy="505" r="3" fill="white" fill-opacity="0.05"/>
<circle cx="416" cy="645" r="3" fill="white" fill-opacity="0.05"/>
<circle cx="557" cy="645" r="3" fill="white" fill-opacity="0.05"/>
<circle cx="557" cy="505" r="3" fill="white" fill-opacity="0.05"/>
<circle cx="557" cy="365" r="3" fill="white" fill-opacity="0.05"/>
<circle cx="557" cy="225" r="3" fill="white" fill-opacity="0.05"/>
<circle cx="557" cy="85" r="3" fill="white" fill-opacity="0.05"/>
<circle cx="138" cy="85" r="3" fill="white" fill-opacity="0.05"/>
<circle cx="138" cy="225" r="3" fill="white" fill-opacity="0.05"/>
<circle cx="138" cy="365" r="3" fill="white" fill-opacity="0.05"/>
<circle cx="138" cy="505" r="3" fill="white" fill-opacity="0.05"/>
<circle cx="138" cy="645" r="3" fill="white" fill-opacity="0.05"/>
<circle cx="279" cy="645" r="3" fill="white" fill-opacity="0.05"/>
<circle cx="279" cy="505" r="3" fill="white" fill-opacity="0.05"/>
<circle cx="279" cy="365" r="3" fill="white" fill-opacity="0.05"/>
<circle cx="279" cy="225" r="3" fill="white" fill-opacity="0.05"/>
<circle cx="278" cy="85" r="3" fill="white" fill-opacity="0.05"/>
<circle cx="1254" cy="85" r="3" fill="white" fill-opacity="0.05"/>
<circle cx="1255" cy="225" r="3" fill="white" fill-opacity="0.05"/>
<circle cx="1256" cy="365" r="3" fill="white" fill-opacity="0.05"/>
<circle cx="1254" cy="505" r="3" fill="white" fill-opacity="0.05"/>
<circle cx="1256" cy="645" r="3" fill="white" fill-opacity="0.05"/>
<circle cx="1397" cy="645" r="3" fill="white" fill-opacity="0.05"/>
<circle cx="1395" cy="505" r="3" fill="white" fill-opacity="0.05"/>
<circle cx="1396" cy="365" r="3" fill="white" fill-opacity="0.05"/>
<circle cx="1395" cy="225" r="3" fill="white" fill-opacity="0.05"/>
<circle cx="1395" cy="85" r="3" fill="white" fill-opacity="0.05"/>
<circle cx="1533" cy="85" r="3" fill="white" fill-opacity="0.05"/>
<circle cx="1533" cy="225" r="3" fill="white" fill-opacity="0.05"/>
<circle cx="1534" cy="365" r="3" fill="white" fill-opacity="0.05"/>
<circle cx="1533" cy="505" r="3" fill="white" fill-opacity="0.05"/>
<circle cx="1534" cy="645" r="3" fill="white" fill-opacity="0.05"/>
<circle cx="699" cy="785" r="3" fill="white" fill-opacity="0.05"/>
<circle cx="837" cy="785" r="3" fill="white" fill-opacity="0.05"/>
<circle cx="976" cy="785" r="3" fill="white" fill-opacity="0.05"/>
<circle cx="1116" cy="785" r="3" fill="white" fill-opacity="0.05"/>
<circle cx="416" cy="785" r="3" fill="white" fill-opacity="0.05"/>
<circle cx="557" cy="785" r="3" fill="white" fill-opacity="0.05"/>
<circle cx="139" cy="785" r="3" fill="white" fill-opacity="0.05"/>
<circle cx="279" cy="785" r="3" fill="white" fill-opacity="0.05"/>
<circle cx="1256" cy="786" r="3" fill="white" fill-opacity="0.05"/>
<circle cx="1396" cy="785" r="3" fill="white" fill-opacity="0.05"/>
<circle cx="1533" cy="785" r="3" fill="white" fill-opacity="0.05"/>
<circle cx="1674" cy="785" r="3" fill="white" fill-opacity="0.05"/>
<circle cx="699" cy="925" r="3" fill="white" fill-opacity="0.05"/>
<circle cx="837" cy="925" r="3" fill="white" fill-opacity="0.05"/>
<circle cx="976" cy="925" r="3" fill="white" fill-opacity="0.05"/>
<circle cx="1116" cy="925" r="3" fill="white" fill-opacity="0.05"/>
<circle cx="416" cy="925" r="3" fill="white" fill-opacity="0.05"/>
<circle cx="557" cy="925" r="3" fill="white" fill-opacity="0.05"/>
<circle cx="139" cy="925" r="3" fill="white" fill-opacity="0.05"/>
<circle cx="279" cy="925" r="3" fill="white" fill-opacity="0.05"/>
<circle cx="1256" cy="926" r="3" fill="white" fill-opacity="0.05"/>
<circle cx="1396" cy="925" r="3" fill="white" fill-opacity="0.05"/>
<circle cx="1533" cy="925" r="3" fill="white" fill-opacity="0.05"/>
<circle cx="1674" cy="925" r="3" fill="white" fill-opacity="0.05"/>
<circle cx="699" cy="1065" r="3" fill="white" fill-opacity="0.05"/>
<circle cx="837" cy="1065" r="3" fill="white" fill-opacity="0.05"/>
<circle cx="976" cy="1065" r="3" fill="white" fill-opacity="0.05"/>
<circle cx="1116" cy="1065" r="3" fill="white" fill-opacity="0.05"/>
<circle cx="416" cy="1065" r="3" fill="white" fill-opacity="0.05"/>
<circle cx="557" cy="1065" r="3" fill="white" fill-opacity="0.05"/>
<circle cx="139" cy="1065" r="3" fill="white" fill-opacity="0.05"/>
<circle cx="279" cy="1065" r="3" fill="white" fill-opacity="0.05"/>
<circle cx="1256" cy="1066" r="3" fill="white" fill-opacity="0.05"/>
<circle cx="1396" cy="1065" r="3" fill="white" fill-opacity="0.05"/>
<circle cx="1533" cy="1065" r="3" fill="white" fill-opacity="0.05"/>
<circle cx="1674" cy="1065" r="3" fill="white" fill-opacity="0.05"/>
<circle cx="1674" cy="645" r="3" fill="white" fill-opacity="0.05"/>
<circle cx="1674" cy="505" r="3" fill="white" fill-opacity="0.05"/>
<circle cx="1674" cy="365" r="3" fill="white" fill-opacity="0.05"/>
<circle cx="1674" cy="225" r="3" fill="white" fill-opacity="0.05"/>
<circle cx="1674" cy="85" r="3" fill="white" fill-opacity="0.05"/>
</svg>
