<svg width="1800" height="663" viewBox="0 0 1800 663" fill="none" xmlns="http://www.w3.org/2000/svg">
<g opacity="0.2">
<path opacity="0.4" d="M964.429 184.781L1045.47 237.55L1126.51 184.781L1045.47 132.012L964.429 184.781ZM1045.78 130.603L1128.06 184.177C1128.47 184.445 1128.47 185.116 1128.06 185.385L1045.78 238.958C1045.59 239.083 1045.35 239.083 1045.16 238.958L962.883 185.385C962.471 185.116 962.471 184.445 962.883 184.177L1045.16 130.603C1045.35 130.479 1045.59 130.479 1045.78 130.603Z" fill="#85CCFF"/>
<path opacity="0.4" d="M1046.03 237.765L1127.07 290.534L1208.11 237.765L1127.07 184.996L1046.03 237.765ZM1127.38 183.588L1209.66 237.161C1210.07 237.43 1210.07 238.101 1209.66 238.369L1127.38 291.943C1127.19 292.067 1126.95 292.067 1126.76 291.943L1044.48 238.369C1044.07 238.101 1044.07 237.43 1044.48 237.161L1126.76 183.588C1126.95 183.463 1127.19 183.463 1127.38 183.588Z" fill="#85CCFF"/>
<path opacity="0.4" d="M1208.67 237.981L1127.63 290.75L1208.67 343.518L1289.71 290.75L1208.67 237.981ZM1208.98 236.572L1291.26 290.146C1291.67 290.414 1291.67 291.085 1291.26 291.353L1208.98 344.927C1208.79 345.052 1208.55 345.052 1208.36 344.927L1126.08 291.353C1125.67 291.085 1125.67 290.414 1126.08 290.146L1208.36 236.572C1208.55 236.447 1208.79 236.447 1208.98 236.572Z" fill="#85CCFF"/>
<path opacity="0.4" d="M1290.27 290.966L1209.23 343.735L1290.27 396.504L1371.31 343.735L1290.27 290.966ZM1290.58 289.557L1372.86 343.131C1373.27 343.4 1373.27 344.07 1372.86 344.339L1290.58 397.913C1290.39 398.037 1290.15 398.037 1289.96 397.913L1207.68 344.339C1207.27 344.07 1207.27 343.4 1207.68 343.131L1289.96 289.557C1290.15 289.433 1290.39 289.433 1290.58 289.557Z" fill="#85CCFF"/>
<path opacity="0.4" d="M1290.83 396.719L1371.87 449.488L1452.91 396.719L1371.87 343.95L1290.83 396.719ZM1372.18 342.542L1454.46 396.116C1454.87 396.384 1454.87 397.055 1454.46 397.323L1372.18 450.897C1371.99 451.021 1371.75 451.021 1371.56 450.897L1289.28 397.323C1288.87 397.055 1288.87 396.384 1289.28 396.116L1371.56 342.542C1371.75 342.417 1371.99 342.417 1372.18 342.542Z" fill="#85CCFF"/>
<path opacity="0.4" d="M1372.42 449.704L1453.47 502.473L1534.51 449.704L1453.47 396.935L1372.42 449.704ZM1453.78 395.526L1536.06 449.1C1536.47 449.368 1536.47 450.039 1536.06 450.307L1453.78 503.881C1453.58 504.006 1453.35 504.006 1453.16 503.881L1370.88 450.307C1370.47 450.039 1370.47 449.368 1370.88 449.1L1453.16 395.526C1453.35 395.401 1453.58 395.401 1453.78 395.526Z" fill="#85CCFF"/>
<path opacity="0.4" d="M882.83 237.765L963.872 290.534L1044.91 237.765L963.872 184.996L882.83 237.765ZM964.181 183.588L1046.46 237.161C1046.87 237.43 1046.87 238.101 1046.46 238.369L964.181 291.943C963.99 292.067 963.754 292.067 963.563 291.943L881.284 238.369C880.872 238.101 880.872 237.43 881.284 237.161L963.563 183.588C963.754 183.463 963.99 183.463 964.181 183.588Z" fill="#85CCFF"/>
<path opacity="0.4" d="M964.429 290.75L1045.47 343.518L1126.51 290.75L1045.47 237.981L964.429 290.75ZM1045.78 236.572L1128.06 290.146C1128.47 290.414 1128.47 291.085 1128.06 291.353L1045.78 344.927C1045.59 345.052 1045.35 345.052 1045.16 344.927L962.883 291.353C962.471 291.085 962.471 290.414 962.883 290.146L1045.16 236.572C1045.35 236.447 1045.59 236.447 1045.78 236.572Z" fill="#85CCFF"/>
<path opacity="0.4" d="M1046.03 343.735L1127.07 396.504L1208.11 343.735L1127.07 290.966L1046.03 343.735ZM1127.38 289.557L1209.66 343.131C1210.07 343.4 1210.07 344.07 1209.66 344.339L1127.38 397.913C1127.19 398.037 1126.95 398.037 1126.76 397.913L1044.48 344.339C1044.07 344.07 1044.07 343.4 1044.48 343.131L1126.76 289.557C1126.95 289.433 1127.19 289.433 1127.38 289.557Z" fill="#85CCFF"/>
<path opacity="0.4" d="M1127.63 396.719L1208.67 449.488L1289.71 396.719L1208.67 343.95L1127.63 396.719ZM1208.98 342.542L1291.26 396.116C1291.67 396.384 1291.67 397.055 1291.26 397.323L1208.98 450.897C1208.79 451.021 1208.55 451.021 1208.36 450.897L1126.08 397.323C1125.67 397.055 1125.67 396.384 1126.08 396.116L1208.36 342.542C1208.55 342.417 1208.79 342.417 1208.98 342.542Z" fill="#85CCFF"/>
<path opacity="0.4" d="M1209.23 449.704L1290.27 502.473L1371.31 449.704L1290.27 396.935L1209.23 449.704ZM1290.58 395.526L1372.86 449.1C1373.27 449.368 1373.27 450.039 1372.86 450.307L1290.58 503.881C1290.39 504.006 1290.15 504.006 1289.96 503.881L1207.68 450.307C1207.27 450.039 1207.27 449.368 1207.68 449.1L1289.96 395.526C1290.15 395.401 1290.39 395.401 1290.58 395.526Z" fill="#85CCFF"/>
<path opacity="0.4" d="M1290.83 502.688L1371.87 555.457L1452.91 502.688L1371.87 449.919L1290.83 502.688ZM1372.18 448.51L1454.46 502.084C1454.87 502.353 1454.87 503.023 1454.46 503.292L1372.18 556.866C1371.99 556.99 1371.75 556.99 1371.56 556.866L1289.28 503.292C1288.87 503.023 1288.87 502.353 1289.28 502.084L1371.56 448.51C1371.75 448.386 1371.99 448.386 1372.18 448.51Z" fill="#85CCFF"/>
<path opacity="0.4" d="M801.23 290.75L882.273 343.518L963.316 290.75L882.273 237.981L801.23 290.75ZM882.582 236.572L964.861 290.146C965.273 290.414 965.273 291.085 964.861 291.353L882.582 344.927C882.391 345.052 882.155 345.052 881.964 344.927L799.685 291.353C799.273 291.085 799.273 290.414 799.685 290.146L881.964 236.572C882.155 236.447 882.391 236.447 882.582 236.572Z" fill="#85CCFF"/>
<path opacity="0.4" d="M963.872 290.966L882.83 343.735L963.872 396.504L1044.91 343.735L963.872 290.966ZM964.181 289.557L1046.46 343.131C1046.87 343.4 1046.87 344.07 1046.46 344.339L964.181 397.913C963.99 398.037 963.754 398.037 963.563 397.913L881.284 344.339C880.872 344.07 880.872 343.4 881.284 343.131L963.563 289.557C963.754 289.433 963.99 289.433 964.181 289.557Z" fill="#85CCFF"/>
<path opacity="0.4" d="M964.429 396.719L1045.47 449.488L1126.51 396.719L1045.47 343.95L964.429 396.719ZM1045.78 342.542L1128.06 396.116C1128.47 396.384 1128.47 397.055 1128.06 397.323L1045.78 450.897C1045.59 451.021 1045.35 451.021 1045.16 450.897L962.883 397.323C962.471 397.055 962.471 396.384 962.883 396.116L1045.16 342.542C1045.35 342.417 1045.59 342.417 1045.78 342.542Z" fill="#85CCFF"/>
<path opacity="0.4" d="M1046.03 449.704L1127.07 502.473L1208.11 449.704L1127.07 396.935L1046.03 449.704ZM1127.38 395.526L1209.66 449.1C1210.07 449.368 1210.07 450.039 1209.66 450.307L1127.38 503.881C1127.19 504.006 1126.95 504.006 1126.76 503.881L1044.48 450.307C1044.07 450.039 1044.07 449.368 1044.48 449.1L1126.76 395.526C1126.95 395.401 1127.19 395.401 1127.38 395.526Z" fill="#85CCFF"/>
<path opacity="0.4" d="M1127.63 502.688L1208.67 555.457L1289.71 502.688L1208.67 449.919L1127.63 502.688ZM1208.98 448.51L1291.26 502.084C1291.67 502.353 1291.67 503.023 1291.26 503.292L1208.98 556.866C1208.79 556.99 1208.55 556.99 1208.36 556.866L1126.08 503.292C1125.67 503.023 1125.67 502.353 1126.08 502.084L1208.36 448.51C1208.55 448.386 1208.79 448.386 1208.98 448.51Z" fill="#85CCFF"/>
<path opacity="0.4" d="M1209.23 555.673L1290.27 608.442L1371.31 555.673L1290.27 502.905L1209.23 555.673ZM1290.58 501.496L1372.86 555.07C1373.27 555.338 1373.27 556.009 1372.86 556.277L1290.58 609.851C1290.39 609.976 1290.15 609.976 1289.96 609.851L1207.68 556.277C1207.27 556.009 1207.27 555.338 1207.68 555.07L1289.96 501.496C1290.15 501.371 1290.39 501.371 1290.58 501.496Z" fill="#85CCFF"/>
<path opacity="0.4" d="M800.674 290.966L719.631 343.735L800.674 396.504L881.717 343.735L800.674 290.966ZM800.983 289.557L883.262 343.131C883.674 343.4 883.674 344.07 883.262 344.339L800.983 397.913C800.792 398.037 800.556 398.037 800.365 397.913L718.086 344.339C717.674 344.07 717.674 343.4 718.086 343.131L800.365 289.557C800.556 289.433 800.792 289.433 800.983 289.557Z" fill="#85CCFF"/>
<path opacity="0.4" d="M801.23 396.719L882.273 449.488L963.316 396.719L882.273 343.95L801.23 396.719ZM882.582 342.542L964.861 396.116C965.273 396.384 965.273 397.055 964.861 397.323L882.582 450.897C882.391 451.021 882.155 451.021 881.964 450.897L799.685 397.323C799.273 397.055 799.273 396.384 799.685 396.116L881.964 342.542C882.155 342.417 882.391 342.417 882.582 342.542Z" fill="#85CCFF"/>
<path opacity="0.4" d="M882.83 449.704L963.872 502.473L1044.91 449.704L963.872 396.935L882.83 449.704ZM964.181 395.526L1046.46 449.1C1046.87 449.368 1046.87 450.039 1046.46 450.307L964.181 503.881C963.99 504.006 963.754 504.006 963.563 503.881L881.284 450.307C880.872 450.039 880.872 449.368 881.284 449.1L963.563 395.526C963.754 395.401 963.99 395.401 964.181 395.526Z" fill="#85CCFF"/>
<path opacity="0.4" d="M964.429 502.688L1045.47 555.457L1126.51 502.688L1045.47 449.919L964.429 502.688ZM1045.78 448.51L1128.06 502.084C1128.47 502.353 1128.47 503.023 1128.06 503.292L1045.78 556.866C1045.59 556.99 1045.35 556.99 1045.16 556.866L962.883 503.292C962.471 503.023 962.471 502.353 962.883 502.084L1045.16 448.51C1045.35 448.386 1045.59 448.386 1045.78 448.51Z" fill="#85CCFF"/>
<path opacity="0.4" d="M1046.03 555.673L1127.07 608.442L1208.11 555.673L1127.07 502.905L1046.03 555.673ZM1127.38 501.496L1209.66 555.07C1210.07 555.338 1210.07 556.009 1209.66 556.277L1127.38 609.851C1127.19 609.976 1126.95 609.976 1126.76 609.851L1044.48 556.277C1044.07 556.009 1044.07 555.338 1044.48 555.07L1126.76 501.496C1126.95 501.371 1127.19 501.371 1127.38 501.496Z" fill="#85CCFF"/>
<path opacity="0.4" d="M1127.63 608.658L1208.67 661.427L1289.71 608.658L1208.67 555.889L1127.63 608.658ZM1208.98 554.48L1291.26 608.054C1291.67 608.322 1291.67 608.993 1291.26 609.262L1208.98 662.835C1208.79 662.96 1208.55 662.96 1208.36 662.835L1126.08 609.262C1125.67 608.993 1125.67 608.322 1126.08 608.054L1208.36 554.48C1208.55 554.356 1208.79 554.356 1208.98 554.48Z" fill="#85CCFF"/>
<path opacity="0.4" d="M638.032 396.719L719.075 449.488L800.118 396.719L719.075 343.95L638.032 396.719ZM719.384 342.542L801.663 396.116C802.075 396.384 802.075 397.055 801.663 397.323L719.384 450.897C719.193 451.021 718.957 451.021 718.766 450.897L636.487 397.323C636.075 397.055 636.075 396.384 636.487 396.116L718.766 342.542C718.957 342.417 719.193 342.417 719.384 342.542Z" fill="#85CCFF"/>
<path opacity="0.4" d="M719.631 449.704L800.674 502.473L881.717 449.704L800.674 396.935L719.631 449.704ZM800.983 395.526L883.262 449.1C883.674 449.368 883.674 450.039 883.262 450.307L800.983 503.881C800.792 504.006 800.556 504.006 800.365 503.881L718.086 450.307C717.674 450.039 717.674 449.368 718.086 449.1L800.365 395.526C800.556 395.401 800.792 395.401 800.983 395.526Z" fill="#85CCFF"/>
<path opacity="0.4" d="M801.23 502.688L882.273 555.457L963.316 502.688L882.273 449.919L801.23 502.688ZM882.582 448.51L964.861 502.084C965.273 502.353 965.273 503.023 964.861 503.292L882.582 556.866C882.391 556.99 882.155 556.99 881.964 556.866L799.685 503.292C799.273 503.023 799.273 502.353 799.685 502.084L881.964 448.51C882.155 448.386 882.391 448.386 882.582 448.51Z" fill="#85CCFF"/>
<path opacity="0.4" d="M882.83 555.673L963.872 608.442L1044.91 555.673L963.872 502.905L882.83 555.673ZM964.181 501.496L1046.46 555.07C1046.87 555.338 1046.87 556.009 1046.46 556.277L964.181 609.851C963.99 609.976 963.754 609.976 963.563 609.851L881.284 556.277C880.872 556.009 880.872 555.338 881.284 555.07L963.563 501.496C963.754 501.371 963.99 501.371 964.181 501.496Z" fill="#85CCFF"/>
<path opacity="0.4" d="M964.429 608.658L1045.47 661.427L1126.51 608.658L1045.47 555.889L964.429 608.658ZM1045.78 554.48L1128.06 608.054C1128.47 608.322 1128.47 608.993 1128.06 609.262L1045.78 662.835C1045.59 662.96 1045.35 662.96 1045.16 662.835L962.883 609.262C962.471 608.993 962.471 608.322 962.883 608.054L1045.16 554.48C1045.35 554.356 1045.59 554.356 1045.78 554.48Z" fill="#85CCFF"/>
<path opacity="0.4" d="M556.433 449.704L637.476 502.473L718.519 449.704L637.476 396.935L556.433 449.704ZM637.785 395.526L720.064 449.1C720.476 449.368 720.476 450.039 720.064 450.307L637.785 503.881C637.594 504.006 637.358 504.006 637.167 503.881L554.888 450.307C554.476 450.039 554.476 449.368 554.888 449.1L637.167 395.526C637.358 395.401 637.594 395.401 637.785 395.526Z" fill="#85CCFF"/>
<path opacity="0.4" d="M638.032 502.688L719.075 555.457L800.118 502.688L719.075 449.919L638.032 502.688ZM719.384 448.51L801.663 502.084C802.075 502.353 802.075 503.023 801.663 503.292L719.384 556.866C719.193 556.99 718.957 556.99 718.766 556.866L636.487 503.292C636.075 503.023 636.075 502.353 636.487 502.084L718.766 448.51C718.957 448.386 719.193 448.386 719.384 448.51Z" fill="#85CCFF"/>
<path opacity="0.4" d="M719.631 555.673L800.674 608.442L881.717 555.673L800.674 502.905L719.631 555.673ZM800.983 501.496L883.262 555.07C883.674 555.338 883.674 556.009 883.262 556.277L800.983 609.851C800.792 609.976 800.556 609.976 800.365 609.851L718.086 556.277C717.674 556.009 717.674 555.338 718.086 555.07L800.365 501.496C800.556 501.371 800.792 501.371 800.983 501.496Z" fill="#85CCFF"/>
<path opacity="0.4" d="M801.23 608.658L882.273 661.427L963.316 608.658L882.273 555.889L801.23 608.658ZM882.582 554.48L964.861 608.054C965.273 608.322 965.273 608.993 964.861 609.262L882.582 662.835C882.391 662.96 882.155 662.96 881.964 662.835L799.685 609.262C799.273 608.993 799.273 608.322 799.685 608.054L881.964 554.48C882.155 554.356 882.391 554.356 882.582 554.48Z" fill="#85CCFF"/>
<path opacity="0.4" d="M555.877 449.919L474.834 502.688L555.877 555.457L636.919 502.688L555.877 449.919ZM556.186 448.51L638.465 502.084C638.877 502.353 638.877 503.023 638.465 503.292L556.186 556.866C555.995 556.99 555.759 556.99 555.568 556.866L473.289 503.292C472.876 503.023 472.876 502.353 473.289 502.084L555.568 448.51C555.759 448.386 555.995 448.386 556.186 448.51Z" fill="#85CCFF"/>
<path opacity="0.4" d="M556.433 555.673L637.476 608.442L718.519 555.673L637.476 502.905L556.433 555.673ZM637.785 501.496L720.064 555.07C720.476 555.338 720.476 556.009 720.064 556.277L637.785 609.851C637.594 609.976 637.358 609.976 637.167 609.851L554.888 556.277C554.476 556.009 554.476 555.338 554.888 555.07L637.167 501.496C637.358 501.371 637.594 501.371 637.785 501.496Z" fill="#85CCFF"/>
<path opacity="0.4" d="M638.032 608.658L719.075 661.427L800.118 608.658L719.075 555.889L638.032 608.658ZM719.384 554.48L801.663 608.054C802.075 608.322 802.075 608.993 801.663 609.262L719.384 662.835C719.193 662.96 718.957 662.96 718.766 662.835L636.487 609.262C636.075 608.993 636.075 608.322 636.487 608.054L718.766 554.48C718.957 554.356 719.193 554.356 719.384 554.48Z" fill="#85CCFF"/>
</g>
<path d="M487.854 9.00049H-2.14648L-92.1465 551L298.854 625H463.854L630.854 509L957.854 295L1450.85 609L1874.85 602.296V465L1883.85 178L1797.85 0.000488281L487.854 9.00049Z" fill="url(#paint0_linear_601_116)"/>
<path d="M926 621.065L367 625L370 574.445L959 298L1475 621.065H926Z" fill="url(#paint1_linear_601_116)"/>
<defs>
<linearGradient id="paint0_linear_601_116" x1="895.854" y1="0.000488281" x2="895.854" y2="625" gradientUnits="userSpaceOnUse">
<stop offset="0.0943992" stop-color="#330C80"/>
<stop offset="0.462399" stop-color="#371085" stop-opacity="0.9"/>
<stop offset="1" stop-color="#330C80"/>
</linearGradient>
<linearGradient id="paint1_linear_601_116" x1="951.5" y1="298" x2="956.823" y2="785.96" gradientUnits="userSpaceOnUse">
<stop stop-color="#330C80"/>
<stop offset="0.559969" stop-color="#330C80" stop-opacity="0.56"/>
<stop offset="1" stop-color="#330C80"/>
</linearGradient>
</defs>
</svg>
