<svg width="161" height="95" viewBox="0 0 161 95" fill="none" xmlns="http://www.w3.org/2000/svg">
<path d="M160.025 21.4481C160.114 16.8692 156.801 11.8947 150.243 7.89927C150.006 7.75093 149.758 7.61247 149.521 7.46413C137.761 0.669923 120.54 -0.467398 110.649 4.98181C105.941 7.5729 103.745 11.1925 103.903 15.0495C103.893 14.911 103.874 14.7726 103.874 14.644L103.854 21.3493C103.844 23.1591 104.388 25.0183 105.426 26.8578L39.2253 65.3286L31.6487 60.9574C29.987 59.9981 27.5241 59.7904 25.4964 60.3145L25.5063 57.7828C25.5063 57.8619 25.4865 57.941 25.4667 58.0201C25.5854 57.3674 25.2392 56.6949 24.3787 56.2004C22.8752 55.3301 20.4222 55.3301 18.9386 56.2004L13.627 59.286C12.8852 59.7212 12.5192 60.2848 12.5192 60.8584C12.5192 60.8584 12.5192 60.8584 12.5192 60.8485V60.8584L12.5093 63.0342C11.0059 62.2034 8.59246 62.2035 7.12858 63.0639L1.82693 66.1494C1.08509 66.5846 0.709255 67.1483 0.709255 67.7219C0.709255 67.7219 0.709255 67.7219 0.709255 67.712L0.689453 74.4172C0.689453 74.9908 1.06533 75.5644 1.81705 76.0094C1.9852 76.1083 2.17313 76.1973 2.37095 76.2765C2.38085 76.2765 2.39074 76.2864 2.40063 76.2864C2.4303 76.2962 2.46987 76.3061 2.49954 76.316C2.60835 76.3556 2.71715 76.3951 2.83584 76.4248C2.89519 76.4445 2.96441 76.4545 3.03364 76.4743C3.07321 76.4842 3.1029 76.494 3.14246 76.5039C3.17213 76.5138 3.20181 76.5237 3.24138 76.5237C3.36996 76.5534 3.49853 76.5732 3.62712 76.5929C3.67657 76.6028 3.71615 76.6028 3.76561 76.6127C3.79528 76.6127 3.82496 76.6226 3.86452 76.6226C3.91398 76.6226 3.95353 76.6325 4.00298 76.6424C4.13157 76.6523 4.26017 76.6622 4.38875 76.6622C4.42832 76.6622 4.46788 76.6622 4.50744 76.6622C4.547 76.6622 4.57668 76.6622 4.60636 76.6622C4.6657 76.6622 4.72504 76.6622 4.78439 76.6622C4.93276 76.6622 5.07122 76.6523 5.2097 76.6325C5.22948 76.6325 5.23936 76.6325 5.25914 76.6226C5.29871 76.6226 5.3284 76.6127 5.36796 76.6028C5.47676 76.5929 5.59545 76.5731 5.70426 76.5533C5.75371 76.5434 5.79329 76.5336 5.84275 76.5237C5.97133 76.494 6.0999 76.4643 6.22848 76.4248C6.29772 76.405 6.36695 76.3951 6.43619 76.3753C6.46586 76.3654 6.49553 76.3457 6.52521 76.3358C6.79227 76.2468 7.04944 76.138 7.27694 76.0094L8.31553 75.4062C8.51335 75.6336 8.75073 75.8512 9.1167 76.0787V77.5522C9.1167 78.373 9.6508 79.2038 10.7289 79.8268L12.7072 80.9741C12.2818 81.4389 12.0445 81.9531 12.0445 82.4674V82.4575L12.0247 89.1627C12.0247 89.9835 12.5588 90.8143 13.6468 91.4373L17.0988 93.4251C17.3461 93.5636 17.6132 93.6921 17.8901 93.8009C17.9099 93.8108 17.9198 93.8108 17.9396 93.8207C17.989 93.8405 18.0385 93.8504 18.0781 93.8702C18.2363 93.9295 18.3945 93.9889 18.5528 94.0284C18.6418 94.0581 18.7407 94.0779 18.8397 94.0977C18.8891 94.1076 18.9386 94.1273 18.9979 94.1372C19.0474 94.1471 19.0869 94.1569 19.1364 94.1668C19.3144 94.2064 19.5024 94.2361 19.6804 94.2658C19.7496 94.2757 19.8189 94.2757 19.8881 94.2856C19.9376 94.2955 19.9771 94.2954 20.0266 94.3053C20.0958 94.3152 20.1552 94.3251 20.2244 94.3251C20.4024 94.3449 20.5904 94.3448 20.7684 94.3547C20.8278 94.3547 20.8871 94.3547 20.9465 94.3547C20.9959 94.3547 21.0454 94.3547 21.0948 94.3547C21.174 94.3547 21.263 94.3547 21.3421 94.3547C21.5498 94.3448 21.7575 94.335 21.9554 94.3152C21.9751 94.3152 21.9949 94.3053 22.0246 94.3053C22.0839 94.2954 22.1334 94.2856 22.1829 94.2856C22.3411 94.2658 22.4994 94.246 22.6576 94.2163C22.7269 94.2064 22.7862 94.1767 22.8554 94.1668C23.0434 94.1273 23.2313 94.0779 23.4093 94.0284C23.5083 93.9988 23.6072 93.9889 23.7061 93.9592C23.7852 93.9394 23.8545 93.8998 23.9237 93.8801C23.9929 93.8504 24.0622 93.8306 24.1314 93.8009C24.3985 93.6921 24.6556 93.5735 24.893 93.435L120.323 37.9836C120.975 38.2309 121.638 38.4584 122.311 38.6858C122.528 38.755 122.756 38.8243 122.973 38.8935C123.339 39.0023 123.695 39.1209 124.061 39.2297C124.16 39.2594 124.259 39.2792 124.368 39.3089C124.586 39.3682 124.813 39.4275 125.031 39.4869C125.486 39.6056 125.941 39.7243 126.396 39.8232C126.633 39.8825 126.87 39.9319 127.108 39.9814C127.266 40.0209 127.434 40.0605 127.592 40.0901C127.741 40.1198 127.889 40.1396 128.038 40.1693C128.799 40.3176 129.561 40.4561 130.322 40.5649C130.461 40.5847 130.609 40.6143 130.748 40.6439C130.807 40.6538 130.876 40.6539 130.936 40.6637C131.806 40.7824 132.686 40.8813 133.557 40.9604C133.587 40.9604 133.626 40.9703 133.656 40.9703C133.804 40.9802 133.952 40.9802 134.101 40.9901C134.764 41.0396 135.436 41.0791 136.089 41.0989C136.198 41.0989 136.316 41.1187 136.425 41.1187C136.593 41.1187 136.771 41.1187 136.94 41.1187C137.513 41.1286 138.077 41.1286 138.631 41.1088C138.799 41.1088 138.967 41.1088 139.135 41.1088C139.244 41.1088 139.353 41.089 139.462 41.089C140.164 41.0593 140.856 41.0099 141.539 40.9505C141.658 40.9406 141.776 40.9407 141.895 40.9308C141.935 40.9308 141.964 40.9209 142.004 40.9209C142.123 40.911 142.231 40.8912 142.34 40.8814C142.854 40.822 143.359 40.7528 143.863 40.6835C144.041 40.6539 144.229 40.6242 144.407 40.5945C144.566 40.5648 144.734 40.545 144.892 40.5154C145.08 40.4857 145.268 40.4363 145.456 40.3967C145.832 40.3176 146.208 40.2484 146.574 40.1594C146.88 40.0901 147.177 40.011 147.474 39.9319C147.83 39.833 148.186 39.7341 148.542 39.6253C148.69 39.5759 148.848 39.5462 148.997 39.4968C149.116 39.4572 149.224 39.4078 149.343 39.3682C149.828 39.21 150.293 39.0319 150.748 38.844C150.955 38.7649 151.163 38.6858 151.371 38.5968C152.014 38.3199 152.647 38.0232 153.24 37.6968C153.448 37.5881 153.646 37.4694 153.843 37.3507C153.863 37.3408 153.883 37.321 153.913 37.3111C154.368 37.0441 154.783 36.7573 155.189 36.4705C155.248 36.431 155.307 36.3815 155.367 36.342C155.752 36.0552 156.118 35.7486 156.455 35.442C156.484 35.4124 156.514 35.3926 156.544 35.3728C156.583 35.3332 156.613 35.3035 156.653 35.264C156.821 35.1057 156.979 34.9475 157.127 34.7893C157.187 34.7299 157.256 34.6607 157.315 34.6014C157.523 34.3739 157.711 34.1563 157.899 33.919L157.909 33.9091C157.948 33.8596 157.988 33.8003 158.027 33.7509C158.146 33.5926 158.255 33.4443 158.364 33.286C158.423 33.2069 158.473 33.1179 158.522 33.0388C158.611 32.9003 158.69 32.7718 158.769 32.6333C158.779 32.6136 158.799 32.5839 158.809 32.5641C158.848 32.4949 158.888 32.4158 158.918 32.3466C158.977 32.2279 159.046 32.1092 159.106 31.9905C159.155 31.8916 159.195 31.7927 159.244 31.6938C159.294 31.5751 159.353 31.4565 159.392 31.3279C159.402 31.2883 159.422 31.2587 159.432 31.2191C159.462 31.1499 159.472 31.0807 159.501 31.0114C159.541 30.8927 159.59 30.7642 159.62 30.6356C159.65 30.5367 159.679 30.4279 159.709 30.3191C159.739 30.1906 159.768 30.0719 159.798 29.9433C159.808 29.8939 159.828 29.8445 159.828 29.8049C159.838 29.7456 159.847 29.6961 159.857 29.6367C159.887 29.4983 159.907 29.3599 159.927 29.2214C159.936 29.1225 159.956 29.0137 159.966 28.9148C159.976 28.7764 159.986 28.628 159.996 28.4896C159.996 28.4203 160.006 28.361 160.006 28.2918C160.006 28.2126 160.006 28.1335 160.006 28.0544L160.025 21.3493C160.025 21.3394 160.025 21.3888 160.025 21.4481ZM144.397 32.2872C140.204 34.5915 132.924 34.1069 127.949 31.2389C127.84 31.1796 127.741 31.1202 127.642 31.051C126.396 30.2895 125.416 29.4489 124.734 28.5687C123.112 28.1533 121.549 27.5303 120.164 26.7391C120.055 26.6797 119.957 26.6204 119.848 26.5512C114.863 23.515 114.289 19.1537 118.572 16.7901C122.766 14.4858 130.055 14.9704 135.04 17.8483C135.139 17.9076 135.238 17.9669 135.337 18.0263C136.583 18.7878 137.553 19.6284 138.235 20.5086C139.867 20.9339 141.43 21.5372 142.815 22.3382C142.914 22.3976 143.023 22.4569 143.122 22.5162C148.117 25.5623 148.68 29.9335 144.397 32.2872Z" fill="#B7C0EB"/>
<path d="M135.802 10.8465C135.703 10.7871 135.604 10.7278 135.505 10.6684C135.169 10.4707 134.823 10.2926 134.457 10.1146C134.338 10.0553 134.219 10.0059 134.101 9.95642C133.853 9.84763 133.606 9.73883 133.359 9.63004C133.309 9.61026 133.27 9.59049 133.22 9.57071C133.161 9.55093 133.102 9.53115 133.052 9.51137C132.518 9.30369 131.964 9.11579 131.41 8.95755C131.41 8.95755 131.41 8.95755 131.4 8.95755C131.391 8.95755 131.371 8.94765 131.361 8.94765C130.936 8.82898 130.5 8.72019 130.065 8.63118C130.016 8.62129 129.956 8.60153 129.907 8.59164C129.818 8.57186 129.719 8.56198 129.63 8.54221C129.363 8.49276 129.096 8.44329 128.829 8.40374C128.74 8.39385 128.661 8.37409 128.572 8.3642C128.502 8.35431 128.423 8.34439 128.354 8.3345C128.126 8.30483 127.889 8.27515 127.662 8.25537C127.553 8.24548 127.444 8.22572 127.335 8.21583C127.276 8.21583 127.216 8.20593 127.157 8.20593C126.94 8.18615 126.732 8.17629 126.514 8.17629C126.396 8.1664 126.267 8.15649 126.148 8.15649C126.099 8.15649 126.059 8.15649 126.01 8.15649C125.802 8.15649 125.594 8.15649 125.387 8.15649C125.258 8.15649 125.129 8.15649 125.001 8.15649C124.961 8.15649 124.932 8.16639 124.892 8.16639C124.645 8.17628 124.407 8.19605 124.16 8.21583C124.051 8.22572 123.933 8.22574 123.824 8.23563C123.804 8.23563 123.784 8.24553 123.774 8.24553C123.379 8.28509 122.993 8.3444 122.607 8.40374C122.587 8.40374 122.568 8.40375 122.558 8.41363C122.32 8.45319 122.103 8.5125 121.875 8.56194C121.806 8.58172 121.737 8.59165 121.668 8.60154C121.371 8.68066 121.074 8.75978 120.787 8.84878C120.777 8.84878 120.777 8.85868 120.767 8.85868C120.56 8.92791 120.362 9.00701 120.164 9.08612C120.065 9.12568 119.966 9.15534 119.867 9.1949C119.581 9.31357 119.304 9.45206 119.036 9.60041C118.947 9.64985 118.868 9.69927 118.779 9.74871C118.7 9.79816 118.631 9.84763 118.562 9.89708C118.463 9.95642 118.364 10.0257 118.275 10.085C118.166 10.1641 118.067 10.2432 117.958 10.3223C117.879 10.3916 117.79 10.4509 117.711 10.5201C117.691 10.5399 117.662 10.5597 117.642 10.5795C117.602 10.619 117.573 10.6586 117.533 10.6981C117.395 10.8267 117.276 10.9651 117.157 11.1036C117.128 11.1333 117.088 11.1729 117.068 11.2025C117.038 11.2421 117.019 11.2816 116.989 11.3212C116.91 11.4201 116.841 11.5289 116.781 11.6377C116.752 11.6871 116.712 11.7365 116.682 11.786C116.663 11.8156 116.653 11.8552 116.633 11.8849C116.584 11.9838 116.534 12.0827 116.494 12.1915C116.475 12.2508 116.435 12.3003 116.415 12.3596C116.405 12.3893 116.396 12.419 116.386 12.4486C116.346 12.5574 116.316 12.6662 116.297 12.7749C116.277 12.8343 116.257 12.8936 116.247 12.9629C116.237 12.9826 116.247 13.0123 116.237 13.042C116.218 13.1706 116.208 13.2991 116.198 13.4277C116.198 13.487 116.178 13.5464 116.178 13.6057C116.178 13.6354 116.178 13.6749 116.178 13.7046L116.158 20.4098C116.158 20.3109 116.178 20.2218 116.178 20.123C116.188 19.9944 116.198 19.8659 116.218 19.7373C116.237 19.6483 116.257 19.5692 116.277 19.4802C116.307 19.3714 116.336 19.2626 116.366 19.1538C116.396 19.0648 116.435 18.9857 116.475 18.8966C116.514 18.7977 116.564 18.689 116.613 18.5901C116.653 18.511 116.702 18.4318 116.752 18.3428C116.821 18.234 116.89 18.1351 116.959 18.0263C117.009 17.9571 117.068 17.878 117.128 17.8088C117.246 17.6704 117.365 17.5418 117.503 17.4033C117.563 17.344 117.622 17.2846 117.691 17.2154C117.77 17.1462 117.85 17.077 117.939 17.0176C118.038 16.9385 118.146 16.8594 118.255 16.7802C118.344 16.711 118.443 16.6517 118.542 16.5923C118.7 16.4934 118.849 16.3946 119.017 16.2957C119.284 16.1473 119.561 16.0188 119.848 15.8902C119.946 15.8507 120.045 15.821 120.144 15.7814C120.342 15.7023 120.54 15.6232 120.748 15.5539C121.044 15.455 121.341 15.366 121.658 15.2968C121.717 15.277 121.786 15.2671 121.855 15.2573C122.103 15.1979 122.35 15.1485 122.607 15.0991C122.983 15.0298 123.379 14.9803 123.774 14.9408C123.903 14.9309 124.041 14.921 124.17 14.9111C124.407 14.8914 124.655 14.8715 124.892 14.8616C125.05 14.8518 125.218 14.8518 125.387 14.8518C125.594 14.8518 125.802 14.8419 126.02 14.8518C126.188 14.8518 126.356 14.8617 126.524 14.8715C126.732 14.8814 126.949 14.8914 127.157 14.9012C127.325 14.9111 127.493 14.9309 127.662 14.9507C127.889 14.9705 128.117 15.0001 128.354 15.0298C128.512 15.0496 128.67 15.0793 128.829 15.0991C129.096 15.1386 129.363 15.188 129.63 15.2375C129.778 15.2671 129.917 15.2968 130.065 15.3265C130.5 15.4155 130.936 15.5243 131.361 15.643C131.381 15.643 131.391 15.6529 131.41 15.6529C131.974 15.8111 132.518 15.999 133.052 16.2067C133.161 16.2462 133.26 16.2858 133.369 16.3254C133.616 16.4243 133.863 16.5331 134.111 16.6517C134.229 16.7012 134.348 16.7605 134.467 16.8099C134.823 16.9781 135.169 17.166 135.505 17.3638C135.604 17.4231 135.703 17.4824 135.802 17.5418C137.048 18.3033 138.018 19.1439 138.7 20.0241L138.72 13.3189C138.018 12.4486 137.048 11.608 135.802 10.8465Z" fill="url(#paint0_linear_601_13189)"/>
<path d="M143.586 15.3365C143.487 15.2771 143.378 15.2178 143.28 15.1585C142.923 14.9508 142.567 14.7629 142.192 14.5848C142.063 14.5255 141.934 14.4761 141.806 14.4167C141.559 14.3079 141.301 14.1893 141.044 14.0904C141.034 14.0904 141.024 14.0805 141.014 14.0805C140.985 14.0706 140.945 14.0607 140.916 14.0508C140.421 13.8629 139.907 13.6948 139.392 13.5365C139.323 13.5168 139.254 13.4871 139.185 13.4673C139.026 13.4179 138.858 13.3783 138.7 13.3387L138.68 20.0439C138.918 20.1032 139.145 20.1724 139.373 20.2416C139.887 20.3999 140.401 20.568 140.896 20.7559C140.935 20.7757 140.985 20.7856 141.024 20.8053C141.282 20.9042 141.529 21.0229 141.776 21.1317C141.905 21.1911 142.043 21.2405 142.172 21.2998C142.548 21.4778 142.904 21.6658 143.26 21.8734C143.359 21.9328 143.467 21.9921 143.566 22.0514C146.306 23.7228 147.711 25.7996 147.711 27.7181L147.731 21.0131C147.731 19.0846 146.326 17.0078 143.586 15.3365Z" fill="url(#paint1_linear_601_13189)"/>
<path d="M104.19 16.5527C103.972 15.7022 103.864 14.8616 103.864 14.0309L103.844 20.7361C103.834 24.059 105.614 27.5897 109.116 30.7939L109.136 24.0887C106.514 21.6756 104.853 19.0944 104.19 16.5527Z" fill="#E4E7FB"/>
<path d="M160.016 21.1119C160.006 21.2504 159.996 21.3987 159.986 21.5372C159.976 21.636 159.966 21.7449 159.946 21.8438C159.927 21.9822 159.907 22.1207 159.877 22.2591C159.857 22.358 159.838 22.4668 159.818 22.5657C159.788 22.6943 159.759 22.813 159.729 22.9415C159.699 23.0503 159.669 23.1492 159.64 23.258C159.6 23.3866 159.561 23.5052 159.521 23.6338C159.482 23.7327 159.452 23.8415 159.412 23.9404C159.363 24.0591 159.313 24.1777 159.264 24.3063C159.214 24.4052 159.175 24.514 159.125 24.6129C159.066 24.7316 159.007 24.8502 158.938 24.9689C158.888 25.0678 158.839 25.1667 158.779 25.2557C158.7 25.3941 158.611 25.5326 158.522 25.6711C158.473 25.7502 158.423 25.8293 158.364 25.9183C158.255 26.0766 158.136 26.2348 158.018 26.3831C157.978 26.4424 157.939 26.4919 157.889 26.5512C157.711 26.7787 157.513 27.0061 157.306 27.2336C157.246 27.3028 157.187 27.3622 157.118 27.4215C156.969 27.5797 156.801 27.738 156.643 27.8962C156.574 27.9556 156.514 28.0149 156.445 28.0743C156.109 28.3808 155.743 28.6775 155.357 28.9742C155.298 29.0137 155.238 29.0632 155.179 29.1028C154.783 29.3896 154.358 29.6763 153.903 29.9433C153.685 30.0719 153.468 30.2005 153.24 30.3291C152.647 30.6554 152.014 30.9521 151.371 31.2291C151.173 31.3181 150.955 31.3972 150.748 31.4763C150.293 31.6642 149.818 31.8323 149.343 32.0004C149.076 32.0894 148.809 32.1784 148.542 32.2576C148.196 32.3663 147.84 32.4652 147.474 32.5542C147.177 32.6333 146.88 32.7125 146.574 32.7817C146.208 32.8707 145.832 32.9498 145.456 33.0191C145.11 33.0883 144.764 33.1575 144.408 33.2169C144.229 33.2465 144.051 33.2762 143.863 33.3059C143.359 33.385 142.845 33.4443 142.33 33.5037C142.222 33.5135 142.113 33.5333 141.994 33.5432C141.836 33.563 141.687 33.563 141.529 33.5828C140.847 33.6421 140.154 33.6915 139.452 33.7212C139.175 33.7311 138.888 33.741 138.611 33.741C138.048 33.7509 137.484 33.7509 136.92 33.7509C136.633 33.7509 136.356 33.741 136.069 33.7311C135.407 33.7113 134.744 33.6718 134.081 33.6223C133.893 33.6124 133.715 33.6026 133.527 33.5828C132.657 33.5136 131.786 33.4047 130.906 33.2861C130.698 33.2564 130.491 33.2168 130.283 33.1872C129.521 33.0685 128.76 32.9399 127.998 32.7916C127.692 32.7322 127.375 32.6729 127.068 32.6037C126.831 32.5542 126.594 32.4949 126.346 32.4455C125.891 32.3367 125.436 32.2279 124.981 32.1092C124.754 32.0498 124.536 31.9905 124.309 31.9312C123.844 31.8026 123.389 31.6642 122.924 31.5158C122.706 31.4466 122.479 31.3872 122.261 31.3081C121.589 31.0906 120.926 30.8631 120.273 30.606L120.253 37.3111C120.906 37.5584 121.569 37.7859 122.242 38.0133C122.459 38.0826 122.687 38.1518 122.904 38.221C123.27 38.3298 123.626 38.4485 123.992 38.5572C124.091 38.5869 124.19 38.6067 124.299 38.6364C124.516 38.6957 124.744 38.7551 124.962 38.8144C125.417 38.9331 125.872 39.0518 126.327 39.1507C126.564 39.21 126.801 39.2594 127.039 39.3089C127.197 39.3484 127.365 39.388 127.523 39.4176C127.672 39.4473 127.82 39.4671 127.968 39.4968C128.73 39.6451 129.492 39.7836 130.253 39.8924C130.392 39.9122 130.54 39.9418 130.679 39.9715C130.738 39.9814 130.807 39.9814 130.867 39.9913C131.737 40.1099 132.617 40.2088 133.488 40.2879C133.517 40.2879 133.557 40.2978 133.587 40.2978C133.735 40.3077 133.883 40.3077 134.032 40.3176C134.694 40.3671 135.367 40.4066 136.02 40.4264C136.129 40.4264 136.247 40.4462 136.356 40.4462C136.524 40.4462 136.702 40.4462 136.87 40.4462C137.444 40.4561 138.008 40.4561 138.562 40.4363C138.73 40.4363 138.898 40.4363 139.066 40.4363C139.175 40.4363 139.284 40.4165 139.393 40.4165C140.095 40.3868 140.787 40.3374 141.47 40.278C141.589 40.2681 141.707 40.2682 141.826 40.2583C141.865 40.2583 141.895 40.2484 141.935 40.2484C142.053 40.2385 142.162 40.2187 142.271 40.2088C142.785 40.1495 143.29 40.0803 143.794 40.0111C143.972 39.9814 144.16 39.9517 144.338 39.922C144.497 39.8924 144.665 39.8726 144.823 39.8429C145.011 39.8132 145.199 39.7638 145.387 39.7242C145.763 39.6451 146.138 39.5759 146.504 39.4869C146.811 39.4177 147.108 39.3386 147.405 39.2594C147.761 39.1605 148.117 39.0616 148.473 38.9529C148.621 38.9034 148.779 38.8737 148.928 38.8243C149.046 38.7847 149.155 38.7353 149.274 38.6957C149.759 38.5375 150.223 38.3594 150.678 38.1715C150.886 38.0924 151.094 38.0133 151.302 37.9243C151.945 37.6474 152.578 37.3507 153.171 37.0244C153.379 36.9156 153.577 36.7969 153.774 36.6783C153.794 36.6684 153.814 36.6485 153.844 36.6387C154.299 36.3716 154.714 36.0849 155.12 35.7981C155.179 35.7585 155.238 35.709 155.298 35.6695C155.683 35.3827 156.049 35.0761 156.386 34.7695C156.415 34.7398 156.445 34.7201 156.475 34.7003C156.514 34.6608 156.544 34.6311 156.583 34.5915C156.752 34.4333 156.91 34.275 157.058 34.1168C157.118 34.0575 157.187 33.9882 157.246 33.9289C157.454 33.7014 157.642 33.4839 157.83 33.2465L157.84 33.2366C157.879 33.1872 157.919 33.1279 157.958 33.0784C158.077 32.9202 158.186 32.7718 158.295 32.6136C158.354 32.5344 158.403 32.4454 158.453 32.3663C158.542 32.2279 158.621 32.0993 158.7 31.9609C158.71 31.9411 158.73 31.9114 158.74 31.8916C158.779 31.8224 158.819 31.7433 158.849 31.674C158.908 31.5554 158.977 31.4367 159.036 31.318C159.086 31.2191 159.125 31.1202 159.175 31.0213C159.224 30.9027 159.284 30.784 159.323 30.6554C159.333 30.6159 159.353 30.5862 159.363 30.5467C159.393 30.4774 159.402 30.4082 159.432 30.339C159.472 30.2203 159.521 30.0917 159.551 29.9631C159.58 29.8643 159.61 29.7555 159.64 29.6467C159.669 29.5181 159.699 29.3994 159.729 29.2709C159.739 29.2214 159.759 29.172 159.759 29.1325C159.768 29.0731 159.778 29.0236 159.788 28.9643C159.818 28.8258 159.838 28.6874 159.857 28.5489C159.867 28.45 159.887 28.3413 159.897 28.2424C159.907 28.1039 159.917 27.9556 159.927 27.8171C159.927 27.7479 159.937 27.6885 159.937 27.6193C159.937 27.5402 159.937 27.4611 159.937 27.382L159.956 20.6768C160.026 20.8251 160.016 20.9636 160.016 21.1119Z" fill="url(#paint2_linear_601_13189)"/>
<path d="M25.4368 57.5553C25.4368 57.5652 25.4269 57.585 25.4269 57.5948C25.3873 57.7135 25.3181 57.8322 25.2489 57.9509C25.239 57.9706 25.2192 57.9904 25.2093 58.0201C25.1203 58.1388 25.0214 58.2476 24.9027 58.3564C24.8235 58.4256 24.7345 58.4849 24.6455 58.5443C24.5664 58.6036 24.4971 58.6629 24.3982 58.7223L23.5476 59.2168L23.5278 65.9219L24.3785 65.4275C24.3982 65.4176 24.4081 65.4077 24.4279 65.3978C24.507 65.3484 24.5565 65.2989 24.6257 65.2494C24.7147 65.1901 24.8137 65.1308 24.8829 65.0615C24.8928 65.0516 24.9027 65.0517 24.9027 65.0418C24.9917 64.9627 25.0708 64.8737 25.14 64.7847C25.1598 64.7649 25.1697 64.7451 25.1796 64.7154C25.1994 64.6956 25.2093 64.6759 25.2192 64.6462C25.239 64.6165 25.2686 64.577 25.2884 64.5473C25.328 64.4781 25.3675 64.3989 25.3873 64.3297C25.3873 64.3198 25.3972 64.31 25.3972 64.2902C25.4071 64.2704 25.4071 64.2605 25.4071 64.2407C25.417 64.1913 25.4368 64.1517 25.4467 64.1023C25.4565 64.033 25.4664 63.9539 25.4763 63.8748C25.4763 63.8649 25.4763 63.855 25.4763 63.8451L25.4961 57.1399C25.506 57.2981 25.4764 57.4267 25.4368 57.5553Z" fill="url(#paint3_linear_601_13189)"/>
<path d="M12.5091 60.2256L12.4893 66.9308C12.4893 67.5044 12.8651 68.078 13.6168 68.5131L13.6366 61.8079C12.8849 61.3827 12.5091 60.7992 12.5091 60.2256Z" fill="url(#paint4_linear_601_13189)"/>
<path d="M8.3157 68.0681L8.2959 74.7732C8.56294 75.0798 8.90911 75.3666 9.51243 75.7028L9.5322 68.9977C8.92888 68.6615 8.58274 68.3747 8.3157 68.0681Z" fill="#EFF1FE"/>
<path d="M7.27704 68.6713C7.04955 68.7999 6.79237 68.9087 6.52531 68.9977C6.4264 69.0274 6.3374 69.057 6.23849 69.0867C6.10991 69.1262 5.98131 69.1559 5.85272 69.1856C5.69446 69.2153 5.53623 69.2449 5.37797 69.2647C5.3384 69.2647 5.30871 69.2746 5.26915 69.2845C5.05154 69.3042 4.83394 69.3141 4.61633 69.324C4.58666 69.324 4.54709 69.324 4.51742 69.324C4.29981 69.324 4.0921 69.3141 3.8745 69.2845C3.84483 69.2845 3.80525 69.2746 3.77558 69.2746C3.56787 69.2449 3.36018 69.2152 3.15247 69.1658C3.1129 69.1559 3.08321 69.146 3.04365 69.1361C2.86561 69.0866 2.68756 69.0372 2.50952 68.9779C2.47985 68.968 2.44031 68.9581 2.41063 68.9482C2.20292 68.8691 2.00507 68.7801 1.82703 68.6713C1.07531 68.2362 0.689568 67.6626 0.699459 67.0791L0.679688 73.7842C0.679688 74.3578 1.05553 74.9314 1.80726 75.3764C1.97541 75.4753 2.16334 75.5643 2.36116 75.6435C2.37105 75.6435 2.38094 75.6534 2.39083 75.6534C2.4205 75.6633 2.46008 75.6731 2.48975 75.683C2.59855 75.7226 2.70735 75.7622 2.82604 75.7918C2.88539 75.8116 2.95464 75.8215 3.02388 75.8413C3.06344 75.8512 3.0931 75.861 3.13266 75.8709C3.16234 75.8808 3.19202 75.8907 3.23158 75.8907C3.36017 75.9204 3.48877 75.9402 3.61735 75.9599C3.66681 75.9698 3.70635 75.9698 3.75581 75.9797C3.78548 75.9797 3.81516 75.9896 3.85473 75.9896C3.90418 75.9896 3.94373 75.9995 3.99319 76.0094C4.12177 76.0193 4.25037 76.0292 4.37896 76.0292C4.41852 76.0292 4.45808 76.0292 4.49764 76.0292C4.53721 76.0292 4.56689 76.0292 4.59656 76.0292C4.65591 76.0292 4.71525 76.0292 4.77459 76.0292C4.92296 76.0292 5.06143 76.0193 5.1999 75.9995C5.21969 75.9995 5.2296 75.9995 5.24938 75.9896C5.28894 75.9896 5.3186 75.9797 5.35817 75.9698C5.46697 75.96 5.58566 75.9402 5.69446 75.9204C5.74392 75.9105 5.78349 75.9006 5.83295 75.8907C5.96153 75.861 6.0901 75.8314 6.21869 75.7918C6.28793 75.7721 6.35719 75.7622 6.42642 75.7424C6.4561 75.7325 6.48577 75.7127 6.51544 75.7028C6.7825 75.6138 7.03965 75.505 7.26714 75.3764L8.30573 74.7732L8.3255 68.0681L7.27704 68.6713Z" fill="#EFF1FE"/>
<path d="M10.7191 72.4986C10.1751 72.192 9.77941 71.8261 9.50246 71.4404C9.2354 71.0547 9.09692 70.6394 9.09692 70.2339L9.07715 76.9391C9.07715 77.7599 9.61128 78.5906 10.6894 79.2137L18.2661 83.585L18.2858 76.8797L10.7191 72.4986Z" fill="#EFF1FE"/>
<path d="M120.313 30.6356L120.293 37.3408L24.8633 92.7921L24.8831 86.0868L120.313 30.6356Z" fill="#E4E7FB"/>
<path d="M24.8633 92.7921L24.8831 86.0869C24.6457 86.2254 24.3885 86.344 24.1215 86.4528C24.0522 86.4825 23.983 86.5023 23.9138 86.5319C23.7456 86.5913 23.5775 86.6407 23.3995 86.6902C23.2214 86.7396 23.0335 86.7891 22.8455 86.8286C22.6279 86.8781 22.4004 86.9176 22.1729 86.9473C22.1235 86.9572 22.0641 86.9671 22.0147 86.9671C21.708 86.9968 21.4014 87.0165 21.0849 87.0165C21.0355 87.0165 20.986 87.0165 20.9365 87.0165C20.6299 87.0165 20.3233 86.9968 20.0167 86.9671C19.9672 86.9671 19.9276 86.9572 19.8782 86.9473C19.5815 86.9077 19.2748 86.8583 18.988 86.799C18.9385 86.7891 18.8891 86.7693 18.8297 86.7594C18.5726 86.7001 18.3154 86.621 18.0681 86.5319C18.0187 86.5122 17.9692 86.5023 17.9296 86.4825C17.6329 86.3737 17.356 86.2352 17.0889 86.0869L13.6369 84.0991C12.8258 83.6343 12.3214 83.0508 12.1236 82.4376C12.0543 82.2299 12.0247 82.0321 12.0247 81.8245L12.0049 88.5297C12.0049 89.3505 12.539 90.1812 13.627 90.8043L17.079 92.7921C17.3263 92.9306 17.5933 93.0591 17.8703 93.1679C17.8901 93.1778 17.9 93.1778 17.9198 93.1877C17.9692 93.2074 18.0187 93.2173 18.0582 93.2371C18.2165 93.2964 18.3748 93.3558 18.533 93.3954C18.622 93.425 18.721 93.4448 18.8199 93.4646C18.8693 93.4745 18.9188 93.4942 18.9781 93.5041C19.0276 93.514 19.0671 93.5239 19.1166 93.5338C19.2946 93.5734 19.4825 93.603 19.6606 93.6327C19.7298 93.6426 19.7991 93.6426 19.8683 93.6525C19.9178 93.6624 19.9573 93.6624 20.0068 93.6722C20.076 93.6821 20.1354 93.692 20.2046 93.692C20.3827 93.7118 20.5706 93.7119 20.7486 93.7217C20.808 93.7217 20.8673 93.7217 20.9267 93.7217C20.9761 93.7217 21.0256 93.7217 21.075 93.7217C21.1542 93.7217 21.2432 93.7217 21.3223 93.7217C21.53 93.7119 21.7377 93.7019 21.9356 93.6821C21.9553 93.6821 21.9751 93.6722 22.0048 93.6722C22.0641 93.6624 22.1136 93.6525 22.1631 93.6525C22.3213 93.6327 22.4796 93.6129 22.6378 93.5833C22.7071 93.5734 22.7664 93.5437 22.8357 93.5338C23.0236 93.4943 23.2115 93.4448 23.3896 93.3954C23.4885 93.3657 23.5874 93.3558 23.6863 93.3261C23.7654 93.3064 23.8346 93.2668 23.9039 93.247C23.9731 93.2173 24.0423 93.1976 24.1116 93.1679C24.3688 93.0492 24.6259 92.9306 24.8633 92.7921Z" fill="#EFF1FE"/>
<path d="M150.243 7.28616C162.004 14.4562 163.359 24.7809 153.25 30.3389C144.912 34.9277 131.391 34.8387 120.303 30.6455L24.8732 86.0968C22.7367 87.333 19.2353 87.3429 17.079 86.0968L13.627 84.109C11.4806 82.8727 11.4708 80.8355 13.5973 79.5993L18.2758 76.8796L10.6992 72.5084C9.0672 71.5689 8.67156 70.1744 9.50241 69.0173C8.89906 68.6811 8.55286 68.3943 8.2858 68.0877L7.24724 68.691C5.75368 69.5613 3.30069 69.5613 1.80713 68.691C0.303682 67.8207 0.293801 66.4065 1.78736 65.5362L7.08898 62.4507C8.58254 61.5804 11.0355 61.5804 12.5291 62.4507L13.6072 61.8276C12.1038 60.9573 12.1038 59.5431 13.5874 58.6728L18.899 55.5872C20.3925 54.7169 22.8455 54.7169 24.3391 55.5872C25.8425 56.4575 25.8425 57.8717 24.3589 58.742L23.5082 59.2365C24.0424 59.3849 24.5369 59.5826 24.9721 59.8398C27.0789 59.1475 29.8188 59.3156 31.619 60.354L39.1955 64.7253L109.116 24.0986C101.717 17.334 101.994 9.13553 110.619 4.3885C120.52 -1.0607 137.731 0.0865105 149.491 6.87081C149.758 6.99938 150.006 7.13781 150.243 7.28616ZM144.852 25.0974C149.125 22.7437 148.562 18.3725 143.586 15.3363C143.487 15.277 143.388 15.2177 143.28 15.1583C141.895 14.3573 140.332 13.754 138.7 13.3287C138.018 12.4584 137.048 11.6079 135.802 10.8464C135.703 10.7871 135.604 10.7277 135.505 10.6684C130.52 7.79051 123.23 7.30591 119.037 9.6102C114.764 11.9639 115.327 16.3352 120.313 19.3713C120.411 19.4307 120.52 19.4998 120.629 19.5592C122.014 20.3602 123.577 20.9734 125.199 21.3888C125.881 22.2591 126.86 23.1096 128.107 23.8711C128.206 23.9305 128.314 23.9997 128.413 24.059C133.379 26.9171 140.668 27.4017 144.852 25.0974Z" fill="white"/>
<path d="M20.9956 86.5616C19.6009 86.5616 18.2953 86.2551 17.326 85.6914L13.874 83.7035C12.9838 83.1893 12.4892 82.5266 12.4892 81.8344C12.4892 81.152 12.9739 80.4894 13.8542 79.985L19.2152 76.8697L10.9561 72.1029C10.2044 71.6678 9.72963 71.114 9.60104 70.5404C9.51202 70.1152 9.61093 69.6701 9.90767 69.2745L10.2044 68.8592L9.75931 68.6119C9.24497 68.3152 8.90866 68.068 8.67128 67.7812L8.424 67.4944L7.05902 68.2855C6.40621 68.6613 5.52591 68.879 4.56647 68.879C3.62682 68.879 2.71682 68.6613 2.07389 68.2855C1.50021 67.9592 1.17383 67.524 1.17383 67.0988C1.17383 66.6735 1.49034 66.2581 2.06402 65.9219L7.36564 62.8363C8.00857 62.4605 8.91856 62.2529 9.84832 62.2529C10.788 62.2529 11.698 62.4704 12.3409 62.8363L12.5684 62.9649L14.5565 61.8078L13.874 61.4122C13.3003 61.0859 12.9739 60.6508 12.9739 60.2255C12.9739 59.8003 13.2904 59.3849 13.8542 59.0486L19.1657 55.9631C19.8087 55.5873 20.7186 55.3796 21.6484 55.3796C22.5881 55.3796 23.4981 55.5972 24.141 55.9631C24.7147 56.2894 25.0411 56.7245 25.0411 57.1498C25.0411 57.575 24.7246 57.9904 24.1608 58.3267L22.3902 59.3552L23.4189 59.6519C23.9333 59.8002 24.3883 59.9881 24.774 60.2057L24.952 60.3046L25.1499 60.2452C25.9412 59.9881 26.8413 59.8497 27.7512 59.8497C29.1459 59.8497 30.4515 60.1563 31.4208 60.72L39.2249 65.2198L109.907 24.148L109.452 23.7327C105.762 20.3603 103.962 16.5528 104.388 13.0123C104.783 9.72892 107.019 6.87083 110.866 4.75445C114.892 2.53917 120.233 1.3623 126.306 1.3623C134.457 1.3623 142.834 3.49847 149.293 7.23676C149.531 7.37521 149.778 7.51366 150.005 7.66201C156.187 11.43 159.669 16.2363 159.57 20.835C159.491 24.4151 157.167 27.649 153.032 29.9236C149.006 32.1389 143.665 33.3158 137.592 33.3158C131.855 33.3158 125.772 32.2081 120.461 30.2005L120.253 30.1214L24.6454 85.6814C23.686 86.2551 22.3902 86.5616 20.9956 86.5616ZM124.922 21.7844C125.653 22.6745 126.643 23.5052 127.859 24.247L128.176 24.4349C131.005 26.0667 134.664 27.0062 138.225 27.0062C140.906 27.0062 143.27 26.482 145.07 25.493C147.038 24.4051 148.136 22.8426 148.176 21.0823C148.225 18.8967 146.633 16.6616 143.814 14.9408C143.705 14.8814 143.606 14.8122 143.497 14.7529C142.152 13.9815 140.629 13.3584 138.957 12.9134C138.225 12.0134 137.236 11.1827 136.029 10.4509C135.93 10.3916 135.822 10.3322 135.723 10.263C132.884 8.62131 129.214 7.6818 125.653 7.6818C122.973 7.6818 120.609 8.20592 118.809 9.19489C116.84 10.2828 115.743 11.8453 115.703 13.6057C115.654 15.7913 117.246 18.0263 120.065 19.7471C120.164 19.8065 120.273 19.8757 120.382 19.935C121.746 20.7262 123.27 21.3492 124.922 21.7844Z" fill="url(#paint5_linear_601_13189)"/>
<defs>
<linearGradient id="paint0_linear_601_13189" x1="116.145" y1="14.2798" x2="138.701" y2="14.2798" gradientUnits="userSpaceOnUse">
<stop stop-color="#B7C0EB"/>
<stop offset="0.1792" stop-color="#CCD2F3"/>
<stop offset="0.3835" stop-color="#DEE2F9"/>
<stop offset="0.5326" stop-color="#E4E7FB"/>
</linearGradient>
<linearGradient id="paint1_linear_601_13189" x1="138.682" y1="20.5164" x2="147.727" y2="20.5164" gradientUnits="userSpaceOnUse">
<stop offset="0.5326" stop-color="#E4E7FB"/>
<stop offset="1" stop-color="#B7C0EB"/>
</linearGradient>
<linearGradient id="paint2_linear_601_13189" x1="120.29" y1="30.5758" x2="160.029" y2="30.5758" gradientUnits="userSpaceOnUse">
<stop stop-color="#E4E7FB"/>
<stop offset="0.528" stop-color="#E2E5FA"/>
<stop offset="0.7181" stop-color="#DBDFF8"/>
<stop offset="0.8537" stop-color="#D0D5F4"/>
<stop offset="0.9626" stop-color="#BFC7EE"/>
<stop offset="1" stop-color="#B7C0EB"/>
</linearGradient>
<linearGradient id="paint3_linear_601_13189" x1="23.5264" y1="61.5435" x2="25.5037" y2="61.5435" gradientUnits="userSpaceOnUse">
<stop stop-color="#B7C0EB"/>
<stop offset="0.1792" stop-color="#CCD2F3"/>
<stop offset="0.3835" stop-color="#DEE2F9"/>
<stop offset="0.5326" stop-color="#E4E7FB"/>
<stop offset="1" stop-color="#B7C0EB"/>
</linearGradient>
<linearGradient id="paint4_linear_601_13189" x1="12.4917" y1="64.3715" x2="13.6402" y2="64.3715" gradientUnits="userSpaceOnUse">
<stop stop-color="#B7C0EB"/>
<stop offset="0.1792" stop-color="#CCD2F3"/>
<stop offset="0.3835" stop-color="#DEE2F9"/>
<stop offset="0.5326" stop-color="#E4E7FB"/>
<stop offset="1" stop-color="#B7C0EB"/>
</linearGradient>
<linearGradient id="paint5_linear_601_13189" x1="85.9632" y1="75.2465" x2="74.436" y2="9.86217" gradientUnits="userSpaceOnUse">
<stop stop-color="#A068F8"/>
<stop offset="0.1934" stop-color="#9478F6"/>
<stop offset="0.5723" stop-color="#75A2F2"/>
<stop offset="1" stop-color="#4CD9ED"/>
</linearGradient>
</defs>
</svg>
