<svg width="944" height="890" viewBox="0 0 944 890" fill="none" xmlns="http://www.w3.org/2000/svg">
<path d="M478.694 55.8725L-372.498 595.852M629.964 59.2619L-304.091 667.395" stroke="#0194FF"/>
<path d="M161.945 31.0136L-546.146 473.05" stroke="#0194FF"/>
<path d="M307.418 34.0925L-485.146 551.832" stroke="#0194FF"/>
<path d="M378.516 367.591L714.07 128.792" stroke="#0595FF"/>
<path d="M456.744 420.085L713.04 235.84" stroke="#0595FF"/>
<path d="M539.088 473.609L713.041 349.063" stroke="black" stroke-opacity="0.51"/>
<path d="M43.11 441.638L-587.853 37.1216" stroke="#0096B7"/>
<path d="M127.092 390.968L-408.146 44.0923" stroke="#0096B7"/>
<path d="M205.747 337.415L-247.146 45.0923" stroke="#0096B7"/>
<path d="M7.39111 1L653.865 407.526" stroke="#2F9BFF" stroke-opacity="0.78"/>
<path d="M-29.3665 78.4767L612.623 492.049" stroke="#227AFF" stroke-opacity="0.67"/>
<path d="M260.884 54.123L806.648 409.732" stroke="#2F9BFF" stroke-opacity="0.78"/>
<path d="M416.318 57.1549L797.608 304.623" stroke="#2F9BFF" stroke-opacity="0.78"/>
<path d="M588.388 66.0925L828.726 217.123" stroke="#20D7FF"/>
<g clip-path="url(#clip0_658_3)">
<g opacity="0.2">
<path opacity="0.4" d="M289.575 178.262L370.618 231.031L451.661 178.262L370.618 125.494L289.575 178.262ZM370.927 124.085L453.206 177.659C453.618 177.927 453.618 178.598 453.206 178.866L370.927 232.44C370.736 232.565 370.5 232.565 370.309 232.44L288.03 178.866C287.618 178.598 287.618 177.927 288.03 177.659L370.309 124.085C370.5 123.96 370.736 123.96 370.927 124.085Z" fill="#85CCFF"/>
<path opacity="0.4" d="M371.174 231.247L452.217 284.016L533.26 231.247L452.217 178.478L371.174 231.247ZM452.526 177.069L534.805 230.643C535.217 230.911 535.217 231.582 534.805 231.851L452.526 285.425C452.335 285.549 452.099 285.549 451.908 285.425L369.629 231.851C369.217 231.582 369.217 230.911 369.629 230.643L451.908 177.069C452.099 176.945 452.335 176.945 452.526 177.069Z" fill="#85CCFF"/>
<path opacity="0.4" d="M533.816 231.463L452.773 284.232L533.816 337.001L614.859 284.232L533.816 231.463ZM534.125 230.054L616.404 283.628C616.816 283.896 616.816 284.567 616.404 284.835L534.125 338.409C533.934 338.534 533.698 338.534 533.507 338.409L451.228 284.835C450.816 284.567 450.816 283.896 451.228 283.628L533.507 230.054C533.698 229.929 533.934 229.929 534.125 230.054Z" fill="#85CCFF"/>
<path opacity="0.4" d="M615.415 284.447L534.372 337.216L615.415 389.985L696.458 337.216L615.415 284.447ZM615.724 283.038L698.003 336.612C698.415 336.881 698.415 337.552 698.003 337.82L615.724 391.394C615.533 391.518 615.297 391.518 615.106 391.394L532.827 337.82C532.415 337.552 532.415 336.881 532.827 336.612L615.106 283.038C615.297 282.914 615.533 282.914 615.724 283.038Z" fill="#85CCFF"/>
<path opacity="0.4" d="M615.972 390.201L697.014 442.97L778.057 390.201L697.014 337.432L615.972 390.201ZM697.323 336.023L779.602 389.597C780.015 389.865 780.015 390.536 779.602 390.805L697.323 444.378C697.132 444.503 696.896 444.503 696.705 444.378L614.426 390.805C614.014 390.536 614.014 389.865 614.426 389.597L696.705 336.023C696.896 335.899 697.132 335.899 697.323 336.023Z" fill="#85CCFF"/>
<path opacity="0.4" d="M697.571 443.185L778.613 495.954L859.656 443.185L778.613 390.417L697.571 443.185ZM778.923 389.008L861.202 442.582C861.614 442.85 861.614 443.521 861.202 443.789L778.923 497.363C778.731 497.488 778.496 497.488 778.304 497.363L696.025 443.789C695.613 443.521 695.613 442.85 696.025 442.582L778.304 389.008C778.496 388.883 778.731 388.883 778.923 389.008Z" fill="#85CCFF"/>
<path opacity="0.4" d="M207.976 231.247L289.019 284.016L370.061 231.247L289.019 178.478L207.976 231.247ZM289.328 177.069L371.607 230.643C372.019 230.911 372.019 231.582 371.607 231.851L289.328 285.425C289.137 285.549 288.901 285.549 288.71 285.425L206.431 231.851C206.018 231.582 206.018 230.911 206.431 230.643L288.71 177.069C288.901 176.945 289.137 176.945 289.328 177.069Z" fill="#85CCFF"/>
<path opacity="0.4" d="M289.575 284.232L370.618 337.001L451.661 284.232L370.618 231.463L289.575 284.232ZM370.927 230.054L453.206 283.628C453.618 283.896 453.618 284.567 453.206 284.835L370.927 338.409C370.736 338.534 370.5 338.534 370.309 338.409L288.03 284.835C287.618 284.567 287.618 283.896 288.03 283.628L370.309 230.054C370.5 229.929 370.736 229.929 370.927 230.054Z" fill="#85CCFF"/>
<path opacity="0.4" d="M371.174 337.216L452.217 389.985L533.26 337.216L452.217 284.447L371.174 337.216ZM452.526 283.038L534.805 336.612C535.217 336.881 535.217 337.552 534.805 337.82L452.526 391.394C452.335 391.518 452.099 391.518 451.908 391.394L369.629 337.82C369.217 337.552 369.217 336.881 369.629 336.612L451.908 283.038C452.099 282.914 452.335 282.914 452.526 283.038Z" fill="#85CCFF"/>
<path opacity="0.4" d="M452.773 390.201L533.816 442.97L614.859 390.201L533.816 337.432L452.773 390.201ZM534.125 336.023L616.404 389.597C616.816 389.865 616.816 390.536 616.404 390.805L534.125 444.378C533.934 444.503 533.698 444.503 533.507 444.378L451.228 390.805C450.816 390.536 450.816 389.865 451.228 389.597L533.507 336.023C533.698 335.899 533.934 335.899 534.125 336.023Z" fill="#85CCFF"/>
<path opacity="0.4" d="M534.372 443.185L615.415 495.954L696.458 443.185L615.415 390.417L534.372 443.185ZM615.724 389.008L698.003 442.582C698.415 442.85 698.415 443.521 698.003 443.789L615.724 497.363C615.533 497.488 615.297 497.488 615.106 497.363L532.827 443.789C532.415 443.521 532.415 442.85 532.827 442.582L615.106 389.008C615.297 388.883 615.533 388.883 615.724 389.008Z" fill="#85CCFF"/>
<path opacity="0.4" d="M615.972 496.17L697.014 548.939L778.057 496.17L697.014 443.401L615.972 496.17ZM697.323 441.992L779.602 495.566C780.015 495.834 780.015 496.505 779.602 496.774L697.323 550.348C697.132 550.472 696.896 550.472 696.705 550.348L614.426 496.774C614.014 496.505 614.014 495.834 614.426 495.566L696.705 441.992C696.896 441.868 697.132 441.868 697.323 441.992Z" fill="#85CCFF"/>
<path opacity="0.4" d="M697.571 549.155L778.613 601.923L859.656 549.155L778.613 496.386L697.571 549.155ZM778.923 494.977L861.202 548.551C861.614 548.819 861.614 549.49 861.202 549.758L778.923 603.332C778.731 603.457 778.496 603.457 778.304 603.332L696.025 549.758C695.613 549.49 695.613 548.819 696.025 548.551L778.304 494.977C778.496 494.852 778.731 494.852 778.923 494.977Z" fill="#85CCFF"/>
<path opacity="0.4" d="M126.377 284.232L207.42 337.001L288.462 284.232L207.42 231.463L126.377 284.232ZM207.729 230.054L290.008 283.628C290.42 283.896 290.42 284.567 290.008 284.835L207.729 338.409C207.538 338.534 207.302 338.534 207.111 338.409L124.832 284.835C124.419 284.567 124.419 283.896 124.832 283.628L207.111 230.054C207.302 229.929 207.538 229.929 207.729 230.054Z" fill="#85CCFF"/>
<path opacity="0.4" d="M289.019 284.447L207.976 337.216L289.019 389.985L370.061 337.216L289.019 284.447ZM289.328 283.038L371.607 336.612C372.019 336.881 372.019 337.552 371.607 337.82L289.328 391.394C289.137 391.518 288.901 391.518 288.71 391.394L206.431 337.82C206.018 337.552 206.018 336.881 206.431 336.612L288.71 283.038C288.901 282.914 289.137 282.914 289.328 283.038Z" fill="#85CCFF"/>
<path opacity="0.4" d="M289.575 390.201L370.618 442.97L451.661 390.201L370.618 337.432L289.575 390.201ZM370.927 336.023L453.206 389.597C453.618 389.865 453.618 390.536 453.206 390.805L370.927 444.378C370.736 444.503 370.5 444.503 370.309 444.378L288.03 390.805C287.618 390.536 287.618 389.865 288.03 389.597L370.309 336.023C370.5 335.899 370.736 335.899 370.927 336.023Z" fill="#85CCFF"/>
<path opacity="0.4" d="M371.174 443.185L452.217 495.954L533.26 443.185L452.217 390.417L371.174 443.185ZM452.526 389.008L534.805 442.582C535.217 442.85 535.217 443.521 534.805 443.789L452.526 497.363C452.335 497.488 452.099 497.488 451.908 497.363L369.629 443.789C369.217 443.521 369.217 442.85 369.629 442.582L451.908 389.008C452.099 388.883 452.335 388.883 452.526 389.008Z" fill="#85CCFF"/>
<path opacity="0.4" d="M452.773 496.17L533.816 548.939L614.859 496.17L533.816 443.401L452.773 496.17ZM534.125 441.992L616.404 495.566C616.816 495.834 616.816 496.505 616.404 496.774L534.125 550.348C533.934 550.472 533.698 550.472 533.507 550.348L451.228 496.774C450.816 496.505 450.816 495.834 451.228 495.566L533.507 441.992C533.698 441.868 533.934 441.868 534.125 441.992Z" fill="#85CCFF"/>
<path opacity="0.4" d="M534.372 549.155L615.415 601.923L696.458 549.155L615.415 496.386L534.372 549.155ZM615.724 494.977L698.003 548.551C698.415 548.819 698.415 549.49 698.003 549.758L615.724 603.332C615.533 603.457 615.297 603.457 615.106 603.332L532.827 549.758C532.415 549.49 532.415 548.819 532.827 548.551L615.106 494.977C615.297 494.852 615.533 494.852 615.724 494.977Z" fill="#85CCFF"/>
<path opacity="0.4" d="M615.972 602.139L697.014 654.908L778.057 602.139L697.014 549.37L615.972 602.139ZM697.323 547.961L779.602 601.535C780.015 601.804 780.015 602.474 779.602 602.743L697.323 656.317C697.132 656.441 696.896 656.441 696.705 656.317L614.426 602.743C614.014 602.474 614.014 601.804 614.426 601.535L696.705 547.961C696.896 547.837 697.132 547.837 697.323 547.961Z" fill="#85CCFF"/>
<path opacity="0.4" d="M125.821 284.447L44.7778 337.216L125.821 389.985L206.863 337.216L125.821 284.447ZM126.13 283.038L208.409 336.612C208.821 336.881 208.821 337.552 208.409 337.82L126.13 391.394C125.938 391.518 125.703 391.518 125.511 391.394L43.2324 337.82C42.8202 337.552 42.8202 336.881 43.2324 336.612L125.511 283.038C125.703 282.914 125.938 282.914 126.13 283.038Z" fill="#85CCFF"/>
<path opacity="0.4" d="M126.377 390.201L207.42 442.97L288.462 390.201L207.42 337.432L126.377 390.201ZM207.729 336.023L290.008 389.597C290.42 389.865 290.42 390.536 290.008 390.805L207.729 444.378C207.538 444.503 207.302 444.503 207.111 444.378L124.832 390.805C124.419 390.536 124.419 389.865 124.832 389.597L207.111 336.023C207.302 335.899 207.538 335.899 207.729 336.023Z" fill="#85CCFF"/>
<path opacity="0.4" d="M207.976 443.185L289.019 495.954L370.061 443.185L289.019 390.417L207.976 443.185ZM289.328 389.008L371.607 442.582C372.019 442.85 372.019 443.521 371.607 443.789L289.328 497.363C289.137 497.488 288.901 497.488 288.71 497.363L206.431 443.789C206.018 443.521 206.018 442.85 206.431 442.582L288.71 389.008C288.901 388.883 289.137 388.883 289.328 389.008Z" fill="#85CCFF"/>
<path opacity="0.4" d="M289.575 496.17L370.618 548.939L451.661 496.17L370.618 443.401L289.575 496.17ZM370.927 441.992L453.206 495.566C453.618 495.834 453.618 496.505 453.206 496.774L370.927 550.348C370.736 550.472 370.5 550.472 370.309 550.348L288.03 496.774C287.618 496.505 287.618 495.834 288.03 495.566L370.309 441.992C370.5 441.868 370.736 441.868 370.927 441.992Z" fill="#85CCFF"/>
<path opacity="0.4" d="M371.174 549.155L452.217 601.923L533.26 549.155L452.217 496.386L371.174 549.155ZM452.526 494.977L534.805 548.551C535.217 548.819 535.217 549.49 534.805 549.758L452.526 603.332C452.335 603.457 452.099 603.457 451.908 603.332L369.629 549.758C369.217 549.49 369.217 548.819 369.629 548.551L451.908 494.977C452.099 494.852 452.335 494.852 452.526 494.977Z" fill="#85CCFF"/>
<path opacity="0.4" d="M452.773 602.139L533.816 654.908L614.859 602.139L533.816 549.37L452.773 602.139ZM534.125 547.961L616.404 601.535C616.816 601.804 616.816 602.474 616.404 602.743L534.125 656.317C533.934 656.441 533.698 656.441 533.507 656.317L451.228 602.743C450.816 602.474 450.816 601.804 451.228 601.535L533.507 547.961C533.698 547.837 533.934 547.837 534.125 547.961Z" fill="#85CCFF"/>
<path opacity="0.4" d="M534.372 655.124L615.415 707.893L696.458 655.124L615.415 602.355L534.372 655.124ZM615.724 600.946L698.003 654.52C698.415 654.788 698.415 655.459 698.003 655.727L615.724 709.301C615.533 709.426 615.297 709.426 615.106 709.301L532.827 655.727C532.415 655.459 532.415 654.788 532.827 654.52L615.106 600.946C615.297 600.822 615.533 600.822 615.724 600.946Z" fill="#85CCFF"/>
<path opacity="0.4" d="M-36.8213 390.201L44.2214 442.97L125.264 390.201L44.2214 337.432L-36.8213 390.201ZM44.5305 336.023L126.81 389.597C127.222 389.865 127.222 390.536 126.81 390.805L44.5305 444.378C44.3392 444.503 44.1036 444.503 43.9123 444.378L-38.3668 390.805C-38.7789 390.536 -38.7789 389.865 -38.3668 389.597L43.9123 336.023C44.1036 335.899 44.3392 335.899 44.5305 336.023Z" fill="#85CCFF"/>
<path opacity="0.4" d="M44.7778 443.185L125.821 495.954L206.863 443.185L125.821 390.417L44.7778 443.185ZM126.13 389.008L208.409 442.582C208.821 442.85 208.821 443.521 208.409 443.789L126.13 497.363C125.938 497.488 125.703 497.488 125.511 497.363L43.2324 443.789C42.8202 443.521 42.8202 442.85 43.2324 442.582L125.511 389.008C125.703 388.883 125.938 388.883 126.13 389.008Z" fill="#85CCFF"/>
<path opacity="0.4" d="M126.377 496.17L207.42 548.939L288.462 496.17L207.42 443.401L126.377 496.17ZM207.729 441.992L290.008 495.566C290.42 495.834 290.42 496.505 290.008 496.774L207.729 550.348C207.538 550.472 207.302 550.472 207.111 550.348L124.832 496.774C124.419 496.505 124.419 495.834 124.832 495.566L207.111 441.992C207.302 441.868 207.538 441.868 207.729 441.992Z" fill="#85CCFF"/>
<path opacity="0.4" d="M207.976 549.155L289.019 601.923L370.061 549.155L289.019 496.386L207.976 549.155ZM289.328 494.977L371.607 548.551C372.019 548.819 372.019 549.49 371.607 549.758L289.328 603.332C289.137 603.457 288.901 603.457 288.71 603.332L206.431 549.758C206.018 549.49 206.018 548.819 206.431 548.551L288.71 494.977C288.901 494.852 289.137 494.852 289.328 494.977Z" fill="#85CCFF"/>
<path opacity="0.4" d="M289.575 602.139L370.618 654.908L451.661 602.139L370.618 549.37L289.575 602.139ZM370.927 547.961L453.206 601.535C453.618 601.804 453.618 602.474 453.206 602.743L370.927 656.317C370.736 656.441 370.5 656.441 370.309 656.317L288.03 602.743C287.618 602.474 287.618 601.804 288.03 601.535L370.309 547.961C370.5 547.837 370.736 547.837 370.927 547.961Z" fill="#85CCFF"/>
<path opacity="0.4" d="M371.174 655.124L452.217 707.893L533.26 655.124L452.217 602.355L371.174 655.124ZM452.526 600.946L534.805 654.52C535.217 654.788 535.217 655.459 534.805 655.727L452.526 709.301C452.335 709.426 452.099 709.426 451.908 709.301L369.629 655.727C369.217 655.459 369.217 654.788 369.629 654.52L451.908 600.946C452.099 600.822 452.335 600.822 452.526 600.946Z" fill="#85CCFF"/>
<path opacity="0.4" d="M452.773 708.108L533.816 760.877L614.859 708.108L533.816 655.339L452.773 708.108ZM534.125 653.931L616.404 707.504C616.816 707.773 616.816 708.444 616.404 708.712L534.125 762.286C533.934 762.41 533.698 762.41 533.507 762.286L451.228 708.712C450.816 708.444 450.816 707.773 451.228 707.504L533.507 653.931C533.698 653.806 533.934 653.806 534.125 653.931Z" fill="#85CCFF"/>
<path opacity="0.4" d="M-118.42 443.185L-37.3777 495.954L43.6651 443.185L-37.3777 390.417L-118.42 443.185ZM-37.0686 389.008L45.2105 442.582C45.6226 442.85 45.6226 443.521 45.2105 443.789L-37.0686 497.363C-37.2598 497.488 -37.4955 497.488 -37.6867 497.363L-119.966 443.789C-120.378 443.521 -120.378 442.85 -119.966 442.582L-37.6867 389.008C-37.4955 388.883 -37.2598 388.883 -37.0686 389.008Z" fill="#85CCFF"/>
<path opacity="0.4" d="M-36.8213 496.17L44.2214 548.939L125.264 496.17L44.2214 443.401L-36.8213 496.17ZM44.5305 441.992L126.81 495.566C127.222 495.834 127.222 496.505 126.81 496.774L44.5305 550.348C44.3392 550.472 44.1036 550.472 43.9123 550.348L-38.3668 496.774C-38.7789 496.505 -38.7789 495.834 -38.3668 495.566L43.9123 441.992C44.1036 441.868 44.3392 441.868 44.5305 441.992Z" fill="#85CCFF"/>
<path opacity="0.4" d="M44.7778 549.155L125.821 601.923L206.863 549.155L125.821 496.386L44.7778 549.155ZM126.13 494.977L208.409 548.551C208.821 548.819 208.821 549.49 208.409 549.758L126.13 603.332C125.938 603.457 125.703 603.457 125.511 603.332L43.2324 549.758C42.8202 549.49 42.8202 548.819 43.2324 548.551L125.511 494.977C125.703 494.852 125.938 494.852 126.13 494.977Z" fill="#85CCFF"/>
<path opacity="0.4" d="M126.377 602.139L207.42 654.908L288.462 602.139L207.42 549.37L126.377 602.139ZM207.729 547.961L290.008 601.535C290.42 601.804 290.42 602.474 290.008 602.743L207.729 656.317C207.538 656.441 207.302 656.441 207.111 656.317L124.832 602.743C124.419 602.474 124.419 601.804 124.832 601.535L207.111 547.961C207.302 547.837 207.538 547.837 207.729 547.961Z" fill="#85CCFF"/>
<path opacity="0.4" d="M207.976 655.124L289.019 707.893L370.061 655.124L289.019 602.355L207.976 655.124ZM289.328 600.946L371.607 654.52C372.019 654.788 372.019 655.459 371.607 655.727L289.328 709.301C289.137 709.426 288.901 709.426 288.71 709.301L206.431 655.727C206.018 655.459 206.018 654.788 206.431 654.52L288.71 600.946C288.901 600.822 289.137 600.822 289.328 600.946Z" fill="#85CCFF"/>
<path opacity="0.4" d="M289.575 708.108L370.618 760.877L451.661 708.108L370.618 655.339L289.575 708.108ZM370.927 653.931L453.206 707.504C453.618 707.773 453.618 708.444 453.206 708.712L370.927 762.286C370.736 762.41 370.5 762.41 370.309 762.286L288.03 708.712C287.618 708.444 287.618 707.773 288.03 707.504L370.309 653.931C370.5 653.806 370.736 653.806 370.927 653.931Z" fill="#85CCFF"/>
<path opacity="0.4" d="M371.174 761.093L452.217 813.862L533.26 761.093L452.217 708.324L371.174 761.093ZM452.526 706.915L534.805 760.489C535.217 760.757 535.217 761.428 534.805 761.697L452.526 815.271C452.335 815.395 452.099 815.395 451.908 815.271L369.629 761.697C369.217 761.428 369.217 760.757 369.629 760.489L451.908 706.915C452.099 706.791 452.335 706.791 452.526 706.915Z" fill="#85CCFF"/>
<path opacity="0.4" d="M-118.42 549.155L-37.3777 601.923L43.6651 549.155L-37.3777 496.386L-118.42 549.155ZM-37.0686 494.977L45.2105 548.551C45.6226 548.819 45.6226 549.49 45.2105 549.758L-37.0686 603.332C-37.2598 603.457 -37.4955 603.457 -37.6867 603.332L-119.966 549.758C-120.378 549.49 -120.378 548.819 -119.966 548.551L-37.6867 494.977C-37.4955 494.852 -37.2598 494.852 -37.0686 494.977Z" fill="#85CCFF"/>
<path opacity="0.4" d="M-36.8213 602.139L44.2214 654.908L125.264 602.139L44.2214 549.37L-36.8213 602.139ZM44.5305 547.961L126.81 601.535C127.222 601.804 127.222 602.474 126.81 602.743L44.5305 656.317C44.3392 656.441 44.1036 656.441 43.9123 656.317L-38.3668 602.743C-38.7789 602.474 -38.7789 601.804 -38.3668 601.535L43.9123 547.961C44.1036 547.837 44.3392 547.837 44.5305 547.961Z" fill="#85CCFF"/>
<path opacity="0.4" d="M44.7778 655.124L125.821 707.893L206.863 655.124L125.821 602.355L44.7778 655.124ZM126.13 600.946L208.409 654.52C208.821 654.788 208.821 655.459 208.409 655.727L126.13 709.301C125.938 709.426 125.703 709.426 125.511 709.301L43.2324 655.727C42.8202 655.459 42.8202 654.788 43.2324 654.52L125.511 600.946C125.703 600.822 125.938 600.822 126.13 600.946Z" fill="#85CCFF"/>
<path opacity="0.4" d="M126.377 708.108L207.42 760.877L288.462 708.108L207.42 655.339L126.377 708.108ZM207.729 653.931L290.008 707.504C290.42 707.773 290.42 708.444 290.008 708.712L207.729 762.286C207.538 762.41 207.302 762.41 207.111 762.286L124.832 708.712C124.419 708.444 124.419 707.773 124.832 707.504L207.111 653.931C207.302 653.806 207.538 653.806 207.729 653.931Z" fill="#85CCFF"/>
<path opacity="0.4" d="M207.976 761.093L289.019 813.862L370.061 761.093L289.019 708.324L207.976 761.093ZM289.328 706.915L371.607 760.489C372.019 760.757 372.019 761.428 371.607 761.697L289.328 815.271C289.137 815.395 288.901 815.395 288.71 815.271L206.431 761.697C206.018 761.428 206.018 760.757 206.431 760.489L288.71 706.915C288.901 706.791 289.137 706.791 289.328 706.915Z" fill="#85CCFF"/>
<path opacity="0.4" d="M289.575 814.077L370.618 866.846L451.661 814.077L370.618 761.308L289.575 814.077ZM370.927 759.9L453.206 813.473C453.618 813.742 453.618 814.413 453.206 814.681L370.927 868.255C370.736 868.379 370.5 868.379 370.309 868.255L288.03 814.681C287.618 814.413 287.618 813.742 288.03 813.473L370.309 759.9C370.5 759.775 370.736 759.775 370.927 759.9Z" fill="#85CCFF"/>
</g>
</g>
<path d="M-94.1465 15.5925V408.093V574.093V740.093L-38.1465 511.093L268.854 296.093L682.015 595.389L801.414 422.466L870.377 274.246L856.996 134.261L716.854 15.5925H-94.1465Z" fill="#330C80"/>
<path d="M254.354 519.093L208.854 549.093L126.854 494.093L-1.14648 574.093" stroke="#00EBFF" stroke-width="1.188"/>
<path d="M859.354 551.055L776.625 603.035L696.854 551.055" stroke="#00EBFF" stroke-width="1.188"/>
<path fill-rule="evenodd" clip-rule="evenodd" d="M380.988 552.989V232.601H538.559V552.989L459.774 604.072L380.988 552.989Z" fill="url(#paint0_linear_658_3)"/>
<path fill-rule="evenodd" clip-rule="evenodd" d="M380.988 552.989V232.601L459.774 250.758V604.072L380.988 552.989Z" fill="url(#paint1_linear_658_3)"/>
<path fill-rule="evenodd" clip-rule="evenodd" d="M380.982 353.517V351.62L459.773 402.702L538.557 351.705V353.603L459.773 404.638L380.982 353.517Z" fill="url(#paint2_linear_658_3)"/>
<path fill-rule="evenodd" clip-rule="evenodd" d="M380.982 313.84V311.944L459.773 363.026L538.557 312.029V313.927L459.773 364.961L380.982 313.84Z" fill="url(#paint3_linear_658_3)"/>
<path fill-rule="evenodd" clip-rule="evenodd" d="M380.982 274.164V272.268L459.773 323.35L538.557 272.352V274.25L459.773 325.285L380.982 274.164Z" fill="url(#paint4_linear_658_3)"/>
<path fill-rule="evenodd" clip-rule="evenodd" d="M380.982 393.193V391.297L459.773 442.379L538.557 391.382V393.28L459.773 444.314L380.982 393.193Z" fill="url(#paint5_linear_658_3)"/>
<path fill-rule="evenodd" clip-rule="evenodd" d="M380.982 432.87V430.973L459.773 482.055L538.557 431.058V432.956L459.773 483.991L380.982 432.87Z" fill="url(#paint6_linear_658_3)"/>
<path fill-rule="evenodd" clip-rule="evenodd" d="M380.982 472.546V470.65L459.773 521.732L538.557 470.735V472.633L459.773 523.667L380.982 472.546Z" fill="url(#paint7_linear_658_3)"/>
<path fill-rule="evenodd" clip-rule="evenodd" d="M380.982 473.181V472.555L459.773 523.637L538.559 472.636V473.274L459.773 524.302L380.982 473.181Z" fill="url(#paint8_linear_658_3)"/>
<path fill-rule="evenodd" clip-rule="evenodd" d="M380.982 512.223V510.326L459.773 561.408L538.557 510.411V512.309L459.773 563.344L380.982 512.223Z" fill="url(#paint9_linear_658_3)"/>
<path fill-rule="evenodd" clip-rule="evenodd" d="M380.988 232.601L459.774 181.518L538.559 232.601L459.774 283.685L380.988 232.601Z" fill="#66DAFF"/>
<path fill-rule="evenodd" clip-rule="evenodd" d="M422.611 233.098L460.269 208.3L497.927 233.098L460.269 257.895L422.611 233.098Z" fill="url(#paint10_linear_658_3)"/>
<path opacity="0.5" fill-rule="evenodd" clip-rule="evenodd" d="M422.611 233.098V128.947H497.927V233.098L460.269 208.314L422.611 233.098Z" fill="url(#paint11_linear_658_3)"/>
<path opacity="0.5" fill-rule="evenodd" clip-rule="evenodd" d="M436.485 224.17V111.093H485.044V224.17L460.286 208.298L436.485 224.17Z" fill="url(#paint12_linear_658_3)"/>
<path fill-rule="evenodd" clip-rule="evenodd" d="M538.421 551.989V330.792H695.991V551.989L617.206 603.072L538.421 551.989Z" fill="url(#paint13_linear_658_3)"/>
<path fill-rule="evenodd" clip-rule="evenodd" d="M538.421 551.989V330.792L617.206 348.949V603.072L538.421 551.989Z" fill="url(#paint14_linear_658_3)"/>
<path fill-rule="evenodd" clip-rule="evenodd" d="M538.421 330.793L617.206 279.709L695.991 330.793L617.206 381.876L538.421 330.793Z" fill="#66DAFF"/>
<mask id="mask0_658_3" style="mask-type:alpha" maskUnits="userSpaceOnUse" x="567" y="297" width="102" height="67">
<path d="M567.16 330.297L617.701 297.564L668.243 330.297L617.701 363.03L567.16 330.297Z" fill="white"/>
</mask>
<g mask="url(#mask0_658_3)">
<path d="M567.16 330.297L617.701 297.564L668.243 330.297L617.701 363.03L567.16 330.297Z" fill="url(#paint15_linear_658_3)"/>
<path fill-rule="evenodd" clip-rule="evenodd" d="M567.16 336.248L617.701 303.515L668.243 336.248L617.701 368.981L567.16 336.248Z" fill="url(#paint16_linear_658_3)"/>
</g>
<path d="M596.89 557.832C596.89 558.106 597.112 558.472 597.386 558.649C597.659 558.826 597.881 558.747 597.881 558.473V369.116C597.881 368.842 597.659 368.477 597.386 368.3C597.112 368.122 596.89 368.201 596.89 368.475V557.832Z" fill="url(#paint17_linear_658_3)"/>
<path d="M577.07 545.011C577.07 545.285 577.292 545.651 577.566 545.828C577.839 546.005 578.061 545.926 578.061 545.652V356.295C578.061 356.021 577.839 355.656 577.566 355.479C577.292 355.302 577.07 355.38 577.07 355.654V545.011Z" fill="url(#paint18_linear_658_3)"/>
<path d="M557.25 532.19C557.25 532.464 557.472 532.829 557.745 533.006C558.019 533.183 558.241 533.105 558.241 532.831V343.474C558.241 343.2 558.019 342.834 557.745 342.657C557.472 342.48 557.25 342.559 557.25 342.833V532.19Z" fill="url(#paint19_linear_658_3)"/>
<path d="M538.414 520.498C538.414 520.772 538.636 521.137 538.909 521.314C539.183 521.491 539.405 521.413 539.405 521.139V331.184L538.909 330.965L538.414 330.803V520.498Z" fill="url(#paint20_linear_658_3)"/>
<path fill-rule="evenodd" clip-rule="evenodd" d="M302.495 603.175V396.856H460.065V603.175L381.28 654.258L302.495 603.175Z" fill="url(#paint21_linear_658_3)"/>
<path fill-rule="evenodd" clip-rule="evenodd" d="M302.495 603.175V396.856L381.28 415.014V654.258L302.495 603.175Z" fill="url(#paint22_linear_658_3)"/>
<path fill-rule="evenodd" clip-rule="evenodd" d="M302.495 396.857L381.28 345.774L460.065 396.857L381.28 447.941L302.495 396.857Z" fill="url(#paint23_linear_658_3)"/>
<path fill-rule="evenodd" clip-rule="evenodd" d="M332.225 396.857V391.936H431.326V396.857L381.775 429.094L332.225 396.857Z" fill="#00EBFF"/>
<path fill-rule="evenodd" clip-rule="evenodd" d="M332.225 396.857V391.936L381.775 411.736V429.094L332.225 396.857Z" fill="#00EBFF"/>
<path fill-rule="evenodd" clip-rule="evenodd" d="M332.225 391.898L381.775 359.661L431.326 391.898L381.775 424.135L332.225 391.898Z" fill="url(#paint24_linear_658_3)"/>
<path fill-rule="evenodd" clip-rule="evenodd" d="M381.28 346.955L458.243 396.857L381.28 446.759L304.316 396.857L381.28 346.955Z" stroke="#00EBFF" stroke-width="2"/>
<path d="M381.502 446.941V556.097" stroke="#00EBFF" stroke-width="2"/>
<path opacity="0.6" fill-rule="evenodd" clip-rule="evenodd" d="M459.14 703.95V563.784H587.175L588.962 703.95L524.051 746.526L459.14 703.95Z" fill="url(#paint25_linear_658_3)"/>
<path fill-rule="evenodd" clip-rule="evenodd" d="M524.051 472.808L587.971 505.427V704.788L524.051 746.714L460.131 704.788V505.427L524.051 472.808Z" stroke="#00EBFF" stroke-width="2"/>
<path d="M524.051 471.695V746.312" stroke="#00EBFF" stroke-width="2"/>
<path fill-rule="evenodd" clip-rule="evenodd" d="M459.14 504.805L524.051 462.229L588.962 504.805L524.051 547.381L459.14 504.805Z" fill="url(#paint26_linear_658_3)"/>
<path fill-rule="evenodd" clip-rule="evenodd" d="M572.088 494.906L587.156 504.804L524.051 546.195L460.943 504.802L475.942 494.907L524.051 526.364L572.088 494.906Z" stroke="#00EBFF" stroke-width="2"/>
<path fill-rule="evenodd" clip-rule="evenodd" d="M524.051 443.576L587.155 484.967L524.051 526.357L460.947 484.967L524.051 443.576Z" fill="url(#paint27_linear_658_3)" stroke="#00EBFF" stroke-width="2"/>
<path d="M452.125 393.237L459.858 398.203V484.292L475.897 494.77" stroke="#00EBFF" stroke-width="2"/>
<path opacity="0.6" fill-rule="evenodd" clip-rule="evenodd" d="M255.983 630.854V529.622H348.833L350.129 630.854L303.056 661.603L255.983 630.854Z" fill="url(#paint28_linear_658_3)"/>
<path fill-rule="evenodd" clip-rule="evenodd" d="M303.056 464.226L349.138 487.646V631.309L303.056 661.411L256.974 631.309V487.646L303.056 464.226Z" stroke="#00EBFF" stroke-width="2"/>
<path d="M303.056 463.114V661.603" stroke="#00EBFF" stroke-width="2"/>
<path fill-rule="evenodd" clip-rule="evenodd" d="M255.983 487.027L303.056 456.277L350.129 487.027L303.056 517.776L255.983 487.027Z" fill="url(#paint29_linear_658_3)"/>
<path fill-rule="evenodd" clip-rule="evenodd" d="M303.056 442.583L348.317 472.148L303.056 501.714L257.795 472.148L303.056 442.583Z" fill="url(#paint30_linear_658_3)" stroke="#00EBFF" stroke-width="2"/>
<path fill-rule="evenodd" clip-rule="evenodd" d="M269.166 479.599L303.056 501.701L336.948 479.6L348.317 487.027L303.056 516.592L257.795 487.027L269.166 479.599Z" stroke="#00EBFF" stroke-width="2"/>
<path d="M305.274 396.696L302.808 398.24V442.436" stroke="#00EBFF" stroke-width="2"/>
<path d="M483.358 231.876L461.101 245.822L461.128 215.985L483.358 202.058V231.876Z" fill="url(#paint31_linear_658_3)"/>
<path d="M438.854 231.876L461.101 245.823L461.128 215.985L438.863 202.019L438.854 231.876Z" fill="url(#paint32_linear_658_3)"/>
<path d="M461.133 215.985L438.867 202.019L461.042 188.093L483.363 202.059L461.133 215.985Z" fill="url(#paint33_linear_658_3)"/>
<defs>
<linearGradient id="paint0_linear_658_3" x1="481.173" y1="513.503" x2="386.96" y2="461.63" gradientUnits="userSpaceOnUse">
<stop stop-color="#3C89F0"/>
<stop offset="1" stop-color="#A7CEFF"/>
</linearGradient>
<linearGradient id="paint1_linear_658_3" x1="423.056" y1="513.503" x2="350.83" y2="433.968" gradientUnits="userSpaceOnUse">
<stop stop-color="#6FB0FF"/>
<stop offset="1" stop-color="#3484EE"/>
</linearGradient>
<linearGradient id="paint2_linear_658_3" x1="547.459" y1="381.486" x2="342.027" y2="312.912" gradientUnits="userSpaceOnUse">
<stop stop-color="#4A92FF"/>
<stop offset="1" stop-color="#27A6FF"/>
</linearGradient>
<linearGradient id="paint3_linear_658_3" x1="547.459" y1="341.81" x2="342.027" y2="273.236" gradientUnits="userSpaceOnUse">
<stop stop-color="#5EA4FB"/>
<stop offset="1" stop-color="#27A6FF"/>
</linearGradient>
<linearGradient id="paint4_linear_658_3" x1="547.459" y1="302.134" x2="342.027" y2="233.559" gradientUnits="userSpaceOnUse">
<stop stop-color="#678FFA"/>
<stop offset="1" stop-color="#3DE8FF"/>
</linearGradient>
<linearGradient id="paint5_linear_658_3" x1="547.459" y1="421.163" x2="342.027" y2="352.589" gradientUnits="userSpaceOnUse">
<stop stop-color="#1A7CFF"/>
<stop offset="1" stop-color="#27A6FF"/>
</linearGradient>
<linearGradient id="paint6_linear_658_3" x1="547.459" y1="460.839" x2="342.027" y2="392.265" gradientUnits="userSpaceOnUse">
<stop stop-color="#006CED"/>
<stop offset="1" stop-color="#27A6FF"/>
</linearGradient>
<linearGradient id="paint7_linear_658_3" x1="547.459" y1="500.516" x2="342.027" y2="431.942" gradientUnits="userSpaceOnUse">
<stop stop-color="#1E5AF8"/>
<stop offset="1" stop-color="#27A6FF"/>
</linearGradient>
<linearGradient id="paint8_linear_658_3" x1="581.671" y1="502.95" x2="391.233" y2="440.946" gradientUnits="userSpaceOnUse">
<stop stop-color="#0050FF"/>
<stop offset="1" stop-color="#7DD7FF"/>
</linearGradient>
<linearGradient id="paint9_linear_658_3" x1="547.459" y1="540.192" x2="342.027" y2="471.618" gradientUnits="userSpaceOnUse">
<stop stop-color="#006AEA"/>
<stop offset="1" stop-color="#27A6FF"/>
</linearGradient>
<linearGradient id="paint10_linear_658_3" x1="477.818" y1="238.897" x2="418.032" y2="195.893" gradientUnits="userSpaceOnUse">
<stop stop-color="#3887EE"/>
<stop offset="1" stop-color="#65A8FA"/>
</linearGradient>
<linearGradient id="paint11_linear_658_3" x1="460.269" y1="215.182" x2="460.269" y2="148.734" gradientUnits="userSpaceOnUse">
<stop stop-color="#02C9F4"/>
<stop offset="1" stop-color="#00EBFF" stop-opacity="0"/>
</linearGradient>
<linearGradient id="paint12_linear_658_3" x1="460.765" y1="204.719" x2="460.765" y2="132.576" gradientUnits="userSpaceOnUse">
<stop stop-color="#02C9F4"/>
<stop offset="1" stop-color="#00EBFF" stop-opacity="0"/>
</linearGradient>
<linearGradient id="paint13_linear_658_3" x1="609.482" y1="526.122" x2="720.839" y2="447.87" gradientUnits="userSpaceOnUse">
<stop stop-color="#3584EE"/>
<stop offset="1" stop-color="#6FAFFC"/>
</linearGradient>
<linearGradient id="paint14_linear_658_3" x1="585.912" y1="525.056" x2="495.966" y2="455.905" gradientUnits="userSpaceOnUse">
<stop stop-color="#8FC4FC"/>
<stop offset="1" stop-color="#D6E8FA"/>
</linearGradient>
<linearGradient id="paint15_linear_658_3" x1="641.253" y1="337.701" x2="561.067" y2="280.973" gradientUnits="userSpaceOnUse">
<stop stop-color="#093CC3"/>
<stop offset="1" stop-color="#2787FF"/>
</linearGradient>
<linearGradient id="paint16_linear_658_3" x1="647.776" y1="345.877" x2="588.364" y2="301.7" gradientUnits="userSpaceOnUse">
<stop stop-color="#428DEF"/>
<stop offset="1" stop-color="#5FA6FF"/>
</linearGradient>
<linearGradient id="paint17_linear_658_3" x1="597.386" y1="558.743" x2="597.386" y2="368.205" gradientUnits="userSpaceOnUse">
<stop stop-color="#81BCFF"/>
<stop offset="1" stop-color="#61B0FF"/>
</linearGradient>
<linearGradient id="paint18_linear_658_3" x1="577.566" y1="545.922" x2="577.566" y2="355.384" gradientUnits="userSpaceOnUse">
<stop stop-color="#81BCFF"/>
<stop offset="1" stop-color="#61B0FF"/>
</linearGradient>
<linearGradient id="paint19_linear_658_3" x1="557.745" y1="533.101" x2="557.745" y2="342.563" gradientUnits="userSpaceOnUse">
<stop stop-color="#81BCFF"/>
<stop offset="1" stop-color="#61B0FF"/>
</linearGradient>
<linearGradient id="paint20_linear_658_3" x1="538.909" y1="521.409" x2="538.909" y2="330.803" gradientUnits="userSpaceOnUse">
<stop stop-color="#81BCFF"/>
<stop offset="1" stop-color="#61B0FF"/>
</linearGradient>
<linearGradient id="paint21_linear_658_3" x1="372.637" y1="581.513" x2="486.287" y2="506.013" gradientUnits="userSpaceOnUse">
<stop stop-color="#66A4F6"/>
<stop offset="1" stop-color="#3584EF"/>
</linearGradient>
<linearGradient id="paint22_linear_658_3" x1="350.949" y1="580.504" x2="264.642" y2="517.778" gradientUnits="userSpaceOnUse">
<stop stop-color="#63A6FA"/>
<stop offset="1" stop-color="#3584EF"/>
</linearGradient>
<linearGradient id="paint23_linear_658_3" x1="428.16" y1="411.918" x2="335.544" y2="342.971" gradientUnits="userSpaceOnUse">
<stop stop-color="#96CAFF"/>
<stop offset="1" stop-color="#2787FF"/>
</linearGradient>
<linearGradient id="paint24_linear_658_3" x1="427.089" y1="405.543" x2="362.005" y2="359.323" gradientUnits="userSpaceOnUse">
<stop stop-color="#5A9EF3"/>
<stop offset="1" stop-color="#B4D5FF"/>
</linearGradient>
<linearGradient id="paint25_linear_658_3" x1="524.051" y1="572.857" x2="524.051" y2="715.26" gradientUnits="userSpaceOnUse">
<stop stop-color="#00EBFF" stop-opacity="0"/>
<stop offset="1" stop-color="#00EBFF"/>
</linearGradient>
<linearGradient id="paint26_linear_658_3" x1="459.14" y1="489.383" x2="536.318" y2="538.826" gradientUnits="userSpaceOnUse">
<stop stop-color="#00EBFF"/>
<stop offset="1" stop-color="#0380D7"/>
</linearGradient>
<linearGradient id="paint27_linear_658_3" x1="460.947" y1="469.974" x2="535.977" y2="518.04" gradientUnits="userSpaceOnUse">
<stop stop-color="#00EBFF"/>
<stop offset="1" stop-color="#0380D7" stop-opacity="0"/>
</linearGradient>
<linearGradient id="paint28_linear_658_3" x1="303.056" y1="536.175" x2="303.056" y2="639.022" gradientUnits="userSpaceOnUse">
<stop stop-color="#00EBFF" stop-opacity="0"/>
<stop offset="1" stop-color="#00EBFF"/>
</linearGradient>
<linearGradient id="paint29_linear_658_3" x1="255.983" y1="475.98" x2="311.948" y2="511.686" gradientUnits="userSpaceOnUse">
<stop stop-color="#00EBFF"/>
<stop offset="1" stop-color="#0380D7"/>
</linearGradient>
<linearGradient id="paint30_linear_658_3" x1="257.795" y1="461.527" x2="311.606" y2="495.858" gradientUnits="userSpaceOnUse">
<stop stop-color="#00EBFF"/>
<stop offset="1" stop-color="#0380D7" stop-opacity="0"/>
</linearGradient>
<linearGradient id="paint31_linear_658_3" x1="461.106" y1="223.94" x2="483.355" y2="223.94" gradientUnits="userSpaceOnUse">
<stop stop-color="#FF7C33"/>
<stop offset="1" stop-color="#FFE9CE"/>
</linearGradient>
<linearGradient id="paint32_linear_658_3" x1="438.856" y1="223.919" x2="461.13" y2="223.919" gradientUnits="userSpaceOnUse">
<stop stop-color="#FF9A61"/>
<stop offset="1" stop-color="#FFB877"/>
</linearGradient>
<linearGradient id="paint33_linear_658_3" x1="438.865" y1="202.039" x2="483.359" y2="202.039" gradientUnits="userSpaceOnUse">
<stop stop-color="#FFB69E"/>
<stop offset="1" stop-color="#FFE2D2"/>
</linearGradient>
<clipPath id="clip0_658_3">
<rect width="1145.62" height="765.802" fill="white" transform="translate(-202.011 123.29)"/>
</clipPath>
</defs>
</svg>
