<svg width="73" height="87" viewBox="0 0 73 87" fill="none" xmlns="http://www.w3.org/2000/svg">
<path d="M69.7957 19.284C71.7047 20.3917 71.7244 22.1817 69.8155 23.2893C59.9144 29.0451 50.0036 34.8108 40.1026 40.5567C38.2035 41.6742 35.0977 41.6742 33.1887 40.5567C23.2184 34.8108 13.2383 29.0451 3.26802 23.2893C1.35903 22.1817 1.34915 20.3917 3.24824 19.284C13.1591 13.5282 23.07 7.77245 32.971 2.00679C34.8701 0.909034 37.976 0.909034 39.8751 2.00679C49.8552 7.78234 59.8255 13.5381 69.7957 19.284Z" fill="url(#paint0_linear_601_13250)"/>
<path d="M72.7728 23.052C72.7629 23.1312 72.7531 23.2103 72.7432 23.2894C72.7333 23.3487 72.7135 23.4081 72.7036 23.4575C72.674 23.5366 72.6641 23.6059 72.6344 23.685C72.6146 23.7443 72.5849 23.8037 72.5652 23.863C72.5355 23.9421 72.5058 24.0113 72.4662 24.0905C72.4365 24.1399 72.397 24.1894 72.3673 24.2487C72.3179 24.3278 72.2585 24.4168 72.1992 24.4959C72.1695 24.5454 72.1201 24.5948 72.0805 24.6344C71.9915 24.7432 71.8926 24.852 71.7739 24.9608C71.7343 25.0003 71.6947 25.0399 71.6551 25.0695C71.5859 25.1388 71.5068 25.1981 71.4376 25.2574C71.3683 25.3168 71.309 25.3662 71.2397 25.4157C71.1606 25.475 71.0716 25.5245 70.9924 25.5838C70.9034 25.6431 70.8144 25.7025 70.7056 25.7618C70.7056 25.7618 40.8839 43.0193 40.8147 43.0489C40.6366 43.128 39.8157 43.405 39.6871 43.4346C39.5981 43.4643 39.4991 43.4841 39.4002 43.5137C39.2618 43.5434 38.8266 43.6324 38.7375 43.6522C38.4705 43.7016 37.7682 43.7709 37.6891 43.7808C37.5209 43.8005 37.3528 43.8104 37.1747 43.8104C37.0758 43.8203 36.601 43.8203 36.4823 43.8203C36.3735 43.8203 35.5724 43.7709 35.4735 43.761C35.3548 43.7412 35.2262 43.7313 35.1075 43.7214C34.9987 43.7115 34.2074 43.5731 34.1184 43.5533C33.9602 43.5138 33.515 43.3951 33.426 43.3753C33.1688 43.2962 32.9018 43.2171 32.6545 43.1182C32.6149 43.0984 32.5853 43.0885 32.5556 43.0786C32.2094 42.9401 31.8929 42.7819 31.5764 42.6138L2.37781 25.7618C0.973271 24.9509 0.261107 23.8729 0.270998 22.8147C0.270998 22.8147 0.261107 65.1622 0.270998 65.271C0.270998 65.2908 0.290779 65.3798 0.30067 65.4193C0.310561 65.4688 0.330342 65.5776 0.330342 65.5776C0.350124 65.6864 0.379814 65.7655 0.409488 65.8545L0.419388 65.8644C0.557864 66.2699 0.755669 66.5369 0.834798 66.6654C1.09197 67.0314 1.37882 67.2687 1.67555 67.5357C1.8437 67.6841 29.153 83.4482 31.6654 84.902C31.6654 84.9119 31.6654 84.9217 31.6654 84.9217C31.6753 84.9316 31.6753 84.9415 31.6852 84.9415C31.8138 85.0108 33.7426 85.7525 33.7524 85.7624C33.8415 85.7821 34.4053 85.9107 34.425 85.9107C34.425 85.9107 34.88 85.9898 35.0284 86.0096L35.157 86.0294C36.1263 86.1481 37.1055 86.1481 38.065 86.0294C38.1144 86.0195 38.609 85.9503 38.6782 85.9305H38.7177C38.876 85.9008 40.0135 85.5942 40.0333 85.5942C40.1025 85.5646 40.1718 85.5448 40.2311 85.525L40.3201 85.4954C40.3794 85.4657 40.9828 85.2283 41.1411 85.1492C41.1411 85.1492 41.4972 84.9613 41.5862 84.9119L71.0518 67.7632C71.0518 67.7533 71.0913 67.7335 71.1111 67.7236C71.1903 67.6742 71.3387 67.5555 71.3387 67.5555C71.3486 67.5456 72.1398 66.7742 72.3475 66.4182C72.3574 66.3984 72.3673 66.3786 72.3772 66.3589L72.3871 66.3391L72.4069 66.2995L72.4168 66.2896C72.4267 66.2698 72.4366 66.2501 72.4366 66.2402C72.4563 66.1907 72.4761 66.1611 72.486 66.1215L72.5058 66.0918L72.5157 66.0721C72.5355 66.0226 72.5553 65.9732 72.5553 65.9732L72.5652 65.9336C72.5849 65.894 72.5948 65.8545 72.6047 65.8149L72.6146 65.7853C72.6146 65.7951 72.6047 65.805 72.6047 65.805C72.6245 65.7655 72.6343 65.716 72.6442 65.6765L72.6541 65.6567V65.6369C72.6937 65.4985 72.7036 65.3996 72.7135 65.3402L72.7036 65.3798C72.7036 65.3798 72.7036 65.3699 72.7135 65.3699L72.7234 65.36C72.7234 65.3402 72.7333 65.3106 72.7333 65.3007C72.7333 65.2413 72.7432 65.1721 72.7531 65.1029C72.7531 65.0831 72.7531 65.0633 72.7531 65.0435C72.7531 65.0238 72.7531 65.0139 72.7531 64.9842L72.763 22.8542C72.7927 22.9037 72.7827 22.9729 72.7728 23.052Z" fill="#B7C0EB"/>
<path d="M72.7728 23.052C72.7629 23.1312 72.7531 23.2103 72.7432 23.2894C72.7333 23.3487 72.7135 23.4081 72.7036 23.4575C72.674 23.5366 72.6641 23.6059 72.6344 23.685C72.6146 23.7443 72.5849 23.8037 72.5652 23.863C72.5355 23.9421 72.5058 24.0113 72.4662 24.0905C72.4365 24.1399 72.397 24.1894 72.3673 24.2487C72.3179 24.3278 72.2585 24.4168 72.1992 24.4959C72.1695 24.5454 72.1201 24.5948 72.0805 24.6344C71.9915 24.7432 71.8926 24.852 71.7739 24.9608C71.7343 25.0003 71.6947 25.0399 71.6551 25.0695C71.5859 25.1388 71.5068 25.1981 71.4376 25.2574C71.3683 25.3168 71.309 25.3662 71.2397 25.4157C71.1606 25.475 71.0716 25.5245 70.9924 25.5838C70.9034 25.6431 70.8144 25.7025 70.7056 25.7618C70.7056 25.7618 40.8839 43.0193 40.8147 43.0489C40.6366 43.128 39.8157 43.405 39.6871 43.4346C39.5981 43.4643 39.4991 43.4841 39.4002 43.5137C39.2618 43.5434 38.8266 43.6324 38.7375 43.6522C38.4705 43.7016 37.7682 43.7709 37.6891 43.7808C37.5209 43.8005 37.3528 43.8104 37.1747 43.8104C37.0758 43.8203 36.601 43.8203 36.4823 43.8203C36.3735 43.8203 35.5724 43.7709 35.4735 43.761C35.3548 43.7412 35.2262 43.7313 35.1075 43.7214C34.9987 43.7115 34.2074 43.5731 34.1184 43.5533C33.9602 43.5138 33.515 43.3951 33.426 43.3753C33.1688 43.2962 32.9018 43.2171 32.6545 43.1182C32.6149 43.0984 32.5853 43.0885 32.5556 43.0786C32.2094 42.9401 31.8929 42.7819 31.5764 42.6138L2.37781 25.7618C0.973271 24.9509 0.261107 23.8729 0.270998 22.8147C0.270998 22.8147 0.261107 65.1622 0.270998 65.271C0.270998 65.2908 0.290779 65.3798 0.30067 65.4193C0.310561 65.4688 0.330342 65.5776 0.330342 65.5776C0.350124 65.6864 0.379814 65.7655 0.409488 65.8545L0.419388 65.8644C0.557864 66.2699 0.755669 66.5369 0.834798 66.6654C1.09197 67.0314 1.37882 67.2687 1.67555 67.5357C1.8437 67.6841 29.153 83.4482 31.6654 84.902C31.6654 84.9119 31.6654 84.9217 31.6654 84.9217C31.6753 84.9316 31.6753 84.9415 31.6852 84.9415C31.8138 85.0108 33.7426 85.7525 33.7524 85.7624C33.8415 85.7821 34.4053 85.9107 34.425 85.9107C34.425 85.9107 34.88 85.9898 35.0284 86.0096L35.157 86.0294C36.1263 86.1481 37.1055 86.1481 38.065 86.0294C38.1144 86.0195 38.609 85.9503 38.6782 85.9305H38.7177C38.876 85.9008 40.0135 85.5942 40.0333 85.5942C40.1025 85.5646 40.1718 85.5448 40.2311 85.525L40.3201 85.4954C40.3794 85.4657 40.9828 85.2283 41.1411 85.1492C41.1411 85.1492 41.4972 84.9613 41.5862 84.9119L71.0518 67.7632C71.0518 67.7533 71.0913 67.7335 71.1111 67.7236C71.1903 67.6742 71.3387 67.5555 71.3387 67.5555C71.3486 67.5456 72.1398 66.7742 72.3475 66.4182C72.3574 66.3984 72.3673 66.3786 72.3772 66.3589L72.3871 66.3391L72.4069 66.2995L72.4168 66.2896C72.4267 66.2698 72.4366 66.2501 72.4366 66.2402C72.4563 66.1907 72.4761 66.1611 72.486 66.1215L72.5058 66.0918L72.5157 66.0721C72.5355 66.0226 72.5553 65.9732 72.5553 65.9732L72.5652 65.9336C72.5849 65.894 72.5948 65.8545 72.6047 65.8149L72.6146 65.7853C72.6146 65.7951 72.6047 65.805 72.6047 65.805C72.6245 65.7655 72.6343 65.716 72.6442 65.6765L72.6541 65.6567V65.6369C72.6937 65.4985 72.7036 65.3996 72.7135 65.3402L72.7036 65.3798C72.7036 65.3798 72.7036 65.3699 72.7135 65.3699L72.7234 65.36C72.7234 65.3402 72.7333 65.3106 72.7333 65.3007C72.7333 65.2413 72.7432 65.1721 72.7531 65.1029C72.7531 65.0831 72.7531 65.0633 72.7531 65.0435C72.7531 65.0238 72.7531 65.0139 72.7531 64.9842L72.763 22.8542C72.7927 22.9037 72.7827 22.9729 72.7728 23.052Z" fill="#B7C0EB"/>
<path d="M64.5634 19.6005C66.1756 20.54 66.1855 22.0531 64.5832 22.9828C56.2351 27.8386 47.887 32.6845 39.5389 37.5304C37.9365 38.4699 35.3252 38.4699 33.7031 37.5304C25.3055 32.6845 16.8981 27.8287 8.50056 22.9828C6.88831 22.0531 6.8784 20.54 8.48076 19.6104C16.8289 14.7645 25.177 9.90863 33.5251 5.05281C35.1274 4.12318 37.7387 4.12318 39.3509 5.05281C47.7584 9.90863 56.1559 14.7546 64.5634 19.6005Z" fill="#FDFCFF"/>
<path d="M28.7871 21.262C31.339 19.7687 33.9008 18.2852 36.4527 16.8018C39.064 18.305 41.6752 19.8181 44.2864 21.3213C41.7345 22.8147 39.1727 24.2981 36.6208 25.7816L28.7871 21.262Z" fill="url(#paint1_linear_601_13250)"/>
<path d="M72.7725 21.9048C72.7725 21.8553 72.7726 21.8158 72.7627 21.7663C72.7627 21.7268 72.7627 21.6971 72.7627 21.6674C72.7528 21.6378 72.7528 21.6081 72.7528 21.5883C72.7429 21.5784 72.7429 21.5685 72.7429 21.5685L72.733 21.5389V21.529L72.7231 21.4993V21.4894C72.7033 21.4103 72.7033 21.3411 72.6736 21.2719C72.6539 21.1927 72.6341 21.1235 72.6044 21.0543C72.5945 21.0147 72.5945 20.9851 72.5747 20.9554C72.4363 20.6093 72.2483 20.3126 72.0109 20.0356C71.9912 20.0159 71.9812 20.006 71.9713 19.9862L71.9615 19.9763C71.9417 19.9466 71.912 19.9269 71.9021 19.917C71.8625 19.8774 71.8329 19.8477 71.8032 19.8082C71.7834 19.7983 71.7736 19.7785 71.7637 19.7686C71.7241 19.739 71.6944 19.6994 71.6647 19.6599L71.3482 19.4027C71.2493 19.3137 71.1504 19.2346 71.002 19.1456C70.9921 19.1357 70.9724 19.1258 70.9625 19.1159C70.913 19.0862 70.8635 19.0467 70.8042 19.0071C70.7646 18.9874 70.7251 18.9676 70.6855 18.9379C70.6756 18.928 70.646 18.9181 70.6361 18.8983C70.6163 18.8885 70.5965 18.8786 70.5866 18.8687L69.1227 18.0182L67.6687 17.1775L66.9467 16.7622C65.7301 16.06 64.5036 15.3578 63.2969 14.6458L61.8231 13.8052L60.3691 12.9645L59.6471 12.5492C59.2317 12.3118 58.836 12.0745 58.4304 11.8371L57.4512 11.2734L56.0566 10.4723L55.6412 10.2251L54.5333 9.59217L53.0695 8.75156L51.6056 7.88126L50.1417 7.03075L49.1724 6.47693L45.8984 4.58801L45.76 4.50889L44.2961 3.65838L42.8322 2.81776L42.2981 2.50129L41.3683 1.96725C41.3683 1.96725 41.3585 1.95736 41.3486 1.94747C41.3486 1.94747 41.3288 1.94747 41.3189 1.94747L41.2991 1.93758C41.1804 1.86836 41.0518 1.79913 40.9331 1.74968L40.7452 1.66067C40.7056 1.6409 40.6759 1.631 40.6463 1.61122L40.4979 1.54199C40.3792 1.48265 40.2111 1.4332 40.0825 1.37387L40.0231 1.35408L39.9935 1.3442L39.9638 1.33431C39.9341 1.32442 39.9045 1.31453 39.8748 1.31453L39.5385 1.20574C39.4791 1.19585 39.4099 1.17607 39.3307 1.15629C39.311 1.1464 39.2912 1.1464 39.2714 1.13651C39.1824 1.12662 39.0934 1.09695 39.034 1.07717L38.6681 1.00795C38.6384 0.998064 38.6285 0.99806 38.6087 0.98817L38.5395 0.968386C38.5592 0.978276 38.5791 0.978286 38.5791 0.978286C38.5791 0.978286 38.5494 0.978276 38.5296 0.968386H38.5098C38.4703 0.958497 38.4307 0.958498 38.401 0.938719C38.312 0.928829 38.2131 0.918946 38.1043 0.899167C38.0746 0.899167 38.035 0.899157 38.0054 0.889267L37.8768 0.879383C36.9075 0.750818 35.9282 0.750818 34.9589 0.879383C34.9193 0.879383 34.8897 0.879378 34.86 0.889267L35.0083 0.8596L34.8303 0.889267L34.5929 0.928834C34.5138 0.948614 34.4248 0.958497 34.3457 0.968386H34.316C34.2764 0.978276 34.2368 0.988165 34.1973 0.998054H34.1874C34.0588 1.02772 33.9203 1.05739 33.8017 1.07717C33.6335 1.11673 33.4851 1.1563 33.3565 1.19586L33.317 1.20574C33.2379 1.23541 33.1488 1.26508 33.0499 1.29475L33.0104 1.30465L33.0994 1.27498L32.9906 1.30465L32.9708 1.31453C32.9411 1.32442 32.9016 1.33431 32.8719 1.3442L32.9807 1.30465L32.8818 1.33431C32.8719 1.3442 32.862 1.3442 32.862 1.3442L32.8422 1.35408H32.8521L32.8125 1.36398L32.5554 1.46287C32.5356 1.47276 32.5059 1.49254 32.4762 1.49254L32.3476 1.54199C32.1993 1.60133 32.0806 1.64089 31.9223 1.72989C31.9124 1.73978 31.8828 1.74967 31.8729 1.75956C31.7542 1.82879 31.5762 1.9079 31.4575 1.98702L30.0134 2.82765L28.5594 3.66827L27.1054 4.50889L25.6612 5.34951L24.2073 6.20002L22.7533 7.05054L21.2993 7.89115L19.8552 8.73177L16.9571 10.4229L15.5031 11.2635L14.0491 12.1042L12.6051 12.9448L11.428 13.6272C11.2005 13.7557 10.973 13.8843 10.7455 14.0227L9.69707 14.626L8.53977 15.2985C6.51209 16.4853 4.47455 17.6522 2.44688 18.839L2.43698 18.8489C2.42709 18.8588 2.41721 18.8588 2.41721 18.8588C2.28862 18.9379 2.16003 19.0269 2.04134 19.0961L1.9721 19.1456C1.94242 19.1555 1.92266 19.1753 1.90288 19.195L1.69515 19.3533C1.64569 19.3928 1.58636 19.4522 1.52702 19.4917C1.51712 19.5016 1.51711 19.5016 1.51711 19.5016C1.45777 19.5511 1.39844 19.6104 1.34898 19.65L1.16105 19.8576C1.16105 19.8576 1.15114 19.8675 1.14125 19.8675C1.13136 19.8774 1.13136 19.8873 1.11158 19.8972L1.0819 19.9368C1.02256 19.9961 0.963218 20.0752 0.903872 20.1543C0.874199 20.2137 0.834619 20.2532 0.795054 20.3126C0.745599 20.3917 0.696159 20.4609 0.656595 20.54L0.646694 20.5598C0.636803 20.5796 0.626923 20.5895 0.626923 20.5994C0.617031 20.6191 0.607151 20.629 0.607151 20.6488C0.528022 20.7972 0.478562 20.9257 0.478562 20.9257L0.379645 21.2323C0.369754 21.2422 0.369744 21.2719 0.369744 21.2818C0.349962 21.3609 0.330192 21.44 0.320301 21.529C0.31041 21.5488 0.3104 21.5883 0.3104 21.6081C0.300509 21.707 0.290629 21.8257 0.290629 21.9246C0.280738 22.9828 0.992901 24.0607 2.39744 24.8717L31.5959 41.7237C31.764 41.8226 31.9322 41.9116 32.1103 41.9907C32.1103 41.9907 32.1301 42.0006 32.1301 42.0105H32.1499L32.1696 42.0204C32.1795 42.0204 32.1894 42.0302 32.1993 42.0401C32.2092 42.0401 32.2289 42.05 32.2289 42.05C32.2685 42.0698 32.2883 42.0698 32.318 42.0896C32.3378 42.0995 32.3477 42.0995 32.3674 42.1094C32.3971 42.1193 32.4268 42.1291 32.4565 42.1489C32.4763 42.1588 32.496 42.1687 32.5158 42.1786C32.5257 42.1885 32.5554 42.1885 32.5752 42.1984C32.595 42.2083 32.6147 42.228 32.6444 42.228C32.6147 42.2182 32.595 42.2083 32.5752 42.1984C32.6147 42.2182 32.6543 42.2379 32.6939 42.2478C32.7235 42.2577 32.7433 42.2676 32.7828 42.2874C32.8026 42.2973 32.8224 42.2973 32.8422 42.3072C32.8719 42.3171 32.9016 42.327 32.9312 42.3467C32.9807 42.3665 33.04 42.3863 33.0895 42.3962C33.0994 42.3962 33.1093 42.4061 33.1093 42.4061C33.1389 42.4061 33.1686 42.4258 33.1983 42.4357L33.2181 42.4456C33.2477 42.4456 33.2675 42.4555 33.2972 42.4654C33.3467 42.4852 33.3862 42.4852 33.4258 42.505C33.4456 42.5148 33.4654 42.5148 33.495 42.5247H33.5049L33.5247 42.5346H33.5445C33.584 42.5544 33.6236 42.5643 33.6731 42.5742C33.7126 42.5841 33.7621 42.6039 33.8017 42.6137C33.8412 42.6236 33.8808 42.6335 33.9203 42.6434C33.9599 42.6533 33.9896 42.6632 34.039 42.6632C34.0489 42.6731 34.0786 42.6731 34.0885 42.683C34.1083 42.683 34.1181 42.6929 34.1379 42.6929C34.1676 42.6929 34.1973 42.6929 34.227 42.7126C34.227 42.7126 34.2467 42.7126 34.2566 42.7225C34.2467 42.7126 34.2369 42.7126 34.2369 42.7126C34.2468 42.7126 34.2764 42.7225 34.2962 42.7324C34.3654 42.7423 34.4445 42.7621 34.5138 42.772C34.5435 42.772 34.5632 42.7819 34.583 42.7819C34.5929 42.7819 34.6028 42.7918 34.6127 42.7918C34.6721 42.8017 34.7215 42.8017 34.7809 42.8115C34.8303 42.8214 34.8897 42.8313 34.9293 42.8412C34.949 42.8412 34.949 42.8511 34.9688 42.8511C34.9886 42.8511 35.0084 42.861 35.038 42.861C35.0875 42.861 35.1468 42.861 35.1963 42.8808C35.2457 42.8808 35.2952 42.8907 35.3447 42.9005C35.3941 42.9104 35.4435 42.9104 35.493 42.9104C35.5424 42.9104 35.5919 42.9203 35.6513 42.9302H35.6711H35.6612H35.6711C35.6909 42.9302 35.7008 42.9302 35.7304 42.9302V42.9401C35.77 42.9401 35.8195 42.9401 35.859 42.9401C35.8986 42.9401 35.9183 42.9401 35.948 42.95C35.9579 42.95 35.9678 42.95 35.9678 42.95C36.0272 42.95 36.0766 42.95 36.126 42.95C36.1854 42.95 36.2348 42.9599 36.2942 42.9599C36.3238 42.9599 36.3436 42.9599 36.3733 42.9599C36.4228 42.9599 36.4624 42.9599 36.5217 42.9599C36.6107 42.9599 36.7096 42.9599 36.7986 42.9599C36.8382 42.9599 36.8679 42.9599 36.8976 42.9599C36.9272 42.9599 36.9668 42.9599 36.9965 42.9599C37.0261 42.9599 37.0459 42.9599 37.0855 42.9599H37.0954C37.1251 42.9599 37.1646 42.95 37.1943 42.95C37.3723 42.95 37.5504 42.9302 37.7284 42.9104C37.7581 42.9104 37.7878 42.9104 37.8174 42.9005C37.8372 42.9005 37.8669 42.9005 37.8966 42.9005C37.9164 42.9005 37.9361 42.8906 37.946 42.8906C37.9658 42.8808 37.9955 42.8808 38.0153 42.8808C38.2724 42.8511 38.5296 42.8214 38.7768 42.772C38.7768 42.772 38.7967 42.7621 38.8164 42.7621C38.8066 42.7621 38.7966 42.7621 38.7867 42.772C38.8461 42.7522 38.9252 42.7423 38.9846 42.7324C39.0439 42.7225 39.1132 42.7027 39.1824 42.6929C39.489 42.6335 39.7956 42.5445 40.0825 42.4555C40.0924 42.4456 40.1023 42.4456 40.1023 42.4456C40.6957 42.2577 41.2398 42.0303 41.7244 41.7336L70.735 24.8816V24.8618V24.8519C70.8339 24.7926 70.9229 24.7431 71.0119 24.6739C70.9526 24.7135 70.8932 24.753 70.824 24.7926C70.8735 24.7629 70.9328 24.7332 70.9822 24.6937C71.002 24.6739 71.0218 24.6541 71.0416 24.6442C71.1009 24.5948 71.1801 24.5453 71.2394 24.5058C71.2889 24.4662 71.3383 24.4267 71.3878 24.397L71.3977 24.3871C71.4175 24.3673 71.4373 24.3475 71.457 24.3278C71.5263 24.2783 71.5955 24.2289 71.6548 24.1794C71.6845 24.1497 71.7241 24.1201 71.7538 24.0805C71.7736 24.0607 71.7933 24.041 71.8131 24.0212C71.8428 24.0014 71.8527 23.9816 71.8725 23.952C71.912 23.9124 71.9516 23.8728 71.9911 23.8333C72.0406 23.7739 72.0703 23.7245 72.1197 23.675C72.1296 23.6553 72.1494 23.6454 72.1593 23.6355C72.1593 23.6355 72.1593 23.6256 72.1692 23.6256C72.1791 23.6058 72.189 23.5959 72.189 23.586C72.1989 23.5663 72.2186 23.5465 72.2285 23.5267C72.2483 23.5069 72.2582 23.4871 72.2681 23.4674C72.3077 23.4278 72.3274 23.3784 72.3571 23.3289C72.3967 23.2696 72.4264 23.23 72.4462 23.1707L72.4561 23.1608C72.4462 23.1707 72.4362 23.2003 72.4264 23.2201C72.4362 23.1904 72.456 23.1608 72.4659 23.1311C72.4758 23.1212 72.4758 23.1015 72.4857 23.0916C72.4857 23.0916 72.4956 23.0817 72.4956 23.0718C72.5055 23.052 72.5055 23.0421 72.5055 23.0322C72.5055 23.0322 72.5154 23.0223 72.5154 23.0124C72.5451 22.9531 72.5648 22.8938 72.5846 22.8443C72.5846 22.8344 72.5945 22.8146 72.5945 22.8048H72.6044V22.7949C72.6044 22.7652 72.6242 22.7553 72.6242 22.7256C72.6242 22.7256 72.6242 22.7059 72.6439 22.7059C72.6439 22.6861 72.6538 22.6564 72.6538 22.6366C72.6736 22.5971 72.6737 22.5575 72.6934 22.518C72.7033 22.4982 72.7033 22.4685 72.7033 22.4388V22.429C72.7132 22.4092 72.7231 22.3993 72.7231 22.3795C72.7231 22.3795 72.7231 22.3894 72.7231 22.3993C72.7231 22.3894 72.7231 22.3696 72.7231 22.3696V22.3498L72.733 22.3399C72.733 22.3202 72.733 22.3202 72.7429 22.3103V22.3004V22.2806C72.7528 22.2213 72.7627 22.1718 72.7627 22.1224C72.7627 22.0828 72.7626 22.0531 72.7725 22.0235C72.7725 21.9938 72.7725 21.9641 72.7725 21.9345C72.7725 21.9444 72.7725 21.974 72.7725 21.9839C72.7725 21.9641 72.7725 21.9444 72.7725 21.9246V21.9147V21.9048ZM69.0238 23.2498L40.0132 40.1018C38.1537 41.1797 35.127 41.1797 33.2675 40.1018C33.1389 40.171 33.1488 40.171 33.2675 40.1018L4.06903 23.2498C3.94045 23.319 3.94045 23.319 4.06903 23.2498C2.19962 22.1718 2.19959 20.4213 4.03933 19.3434L33.0499 2.4815C34.8996 1.40353 37.9262 1.40353 39.7858 2.4815H39.7957L68.9645 19.3236C70.8339 20.4016 70.8438 22.152 68.9843 23.23C69.103 23.2894 69.0337 23.2597 69.0238 23.2498Z" fill="#FDFCFF"/>
<path d="M72.7729 22.1718C72.763 22.2509 72.7531 22.33 72.7432 22.4092C72.7333 22.4685 72.7136 22.5278 72.7037 22.5773C72.674 22.6564 72.6641 22.7256 72.6344 22.8047C72.6146 22.8641 72.585 22.9234 72.5652 22.9828C72.5355 23.0619 72.5058 23.1311 72.4662 23.2102C72.4366 23.2597 72.397 23.3091 72.3673 23.3684C72.3179 23.4575 72.2586 23.5366 72.1992 23.6256C72.1695 23.675 72.1201 23.7146 72.0805 23.764C71.9915 23.8728 71.8926 23.9816 71.7739 24.0904C71.7343 24.1299 71.6947 24.1695 71.6552 24.1992C71.5859 24.2684 71.5068 24.3277 71.4376 24.3871C71.3683 24.4365 71.309 24.4959 71.2397 24.5453C71.1606 24.6047 71.0716 24.6541 70.9925 24.7134C70.9034 24.7629 70.8144 24.8321 70.7056 24.8816C70.7056 24.8816 40.8839 42.139 40.8147 42.1687C40.6366 42.2379 39.8157 42.5148 39.6871 42.5544C39.5981 42.584 39.4992 42.6038 39.4002 42.6335C39.2618 42.6631 38.8266 42.7522 38.7376 42.7719C38.4705 42.8115 37.7682 42.8906 37.6891 42.9005C37.5209 42.9203 37.3528 42.9302 37.1747 42.9401C37.0758 42.9499 36.601 42.95 36.4823 42.95C36.3735 42.95 35.5724 42.9005 35.4735 42.8906C35.3548 42.8807 35.2262 42.8609 35.1075 42.8511C34.9987 42.8412 34.2074 42.7027 34.1184 42.6829C33.9602 42.6533 33.515 42.5247 33.426 42.5049C33.1689 42.4357 32.9018 42.3467 32.6545 42.2478C32.6149 42.2379 32.5853 42.2181 32.5556 42.2082C32.2094 42.0599 31.8929 41.9115 31.5764 41.7434L2.37781 24.8914C0.973271 24.0805 0.261106 23.0025 0.270998 21.9443C0.270998 21.9443 0.261106 64.2918 0.270998 64.3907C0.270998 64.4105 0.290779 64.4995 0.30067 64.539C0.310561 64.5885 0.330342 64.6973 0.330342 64.6973C0.350124 64.8061 0.379814 64.8852 0.409488 64.9643L0.419388 64.9742C0.557864 65.3698 0.755669 65.6467 0.834798 65.7753C1.09197 66.1412 1.37882 66.3785 1.67555 66.6455C1.8437 66.784 29.153 82.558 31.6654 84.0118C31.6654 84.0217 31.6654 84.0316 31.6654 84.0316C31.6753 84.0414 31.6753 84.0513 31.6852 84.0513C31.8138 84.1304 33.7426 84.8623 33.7426 84.8623C33.8415 84.8821 34.4152 85.0205 34.4349 85.0205C34.4349 85.0205 34.8899 85.0898 35.0383 85.1194L35.1669 85.1392C36.1362 85.2579 37.1154 85.2579 38.0749 85.1392C38.1243 85.1293 38.6189 85.0502 38.6881 85.0403L38.7277 85.0304C38.8859 85.0106 40.0234 84.704 40.0432 84.704C40.1124 84.6744 40.1817 84.6546 40.241 84.6348L40.33 84.6051C40.3894 84.5755 40.9927 84.3381 41.151 84.2491C41.151 84.2491 41.5071 84.0612 41.5961 84.0217L71.0617 66.873C71.0617 66.873 71.1013 66.8433 71.1211 66.8335C71.2002 66.784 71.3485 66.6653 71.3485 66.6653C71.3485 66.6653 72.1497 65.884 72.3574 65.5379C72.3673 65.5181 72.3773 65.4983 72.3871 65.4687L72.397 65.4489L72.4168 65.4192L72.4267 65.4093C72.4366 65.3797 72.4465 65.3698 72.4465 65.3599C72.4663 65.3104 72.486 65.2808 72.4959 65.2511L72.5157 65.2214L72.5256 65.2017C72.5454 65.1423 72.5652 65.1028 72.5652 65.1028L72.5751 65.0632C72.5949 65.0237 72.6047 64.9841 72.6146 64.9544L72.6245 64.9247C72.6245 64.9445 72.6146 64.9445 72.6146 64.9445C72.6344 64.905 72.6443 64.8654 72.6542 64.8259L72.6641 64.8061V64.7962C72.7036 64.6577 72.7135 64.5588 72.7234 64.4995L72.7135 64.539C72.7135 64.539 72.7135 64.5292 72.7234 64.5193L72.7333 64.5094C72.7333 64.4896 72.7432 64.4698 72.7432 64.4402C72.7432 64.3907 72.7531 64.3215 72.763 64.2523C72.763 64.2325 72.763 64.2127 72.763 64.183C72.763 64.1731 72.763 64.1534 72.763 64.1237L72.7729 22.0037C72.7926 22.0235 72.7827 22.0927 72.7729 22.1718Z" fill="url(#paint2_linear_601_13250)"/>
<path d="M58.5892 33.8218C58.5892 33.8614 58.5793 33.9108 58.5694 33.9603C58.5694 33.9899 58.5595 34.0295 58.5496 34.0592C58.5397 34.1086 58.5298 34.1482 58.51 34.1976C58.5002 34.2372 58.4804 34.2668 58.4705 34.3064C58.4507 34.346 58.4309 34.3954 58.4112 34.4449C58.3914 34.4745 58.3716 34.5042 58.3518 34.5438C58.3221 34.5932 58.2924 34.6426 58.2529 34.702C58.2331 34.7316 58.2034 34.7613 58.1836 34.7811C58.1243 34.8503 58.0649 34.9097 57.9957 34.9789C57.9759 35.0086 57.9562 35.0283 57.9265 35.0481C57.8869 35.0877 57.8375 35.1272 57.788 35.1668C57.7485 35.1965 57.7089 35.2261 57.6693 35.2657C57.6199 35.3053 57.5704 35.3349 57.511 35.3646C57.4616 35.4041 57.4023 35.4338 57.3429 35.4734C57.3429 35.4734 39.2323 45.9564 39.1829 45.9762C39.0741 46.0256 38.5696 46.1839 38.5004 46.2135C38.441 46.2234 38.3817 46.2432 38.3322 46.263C38.2432 46.2729 37.986 46.3322 37.9267 46.3421C37.7585 46.3718 37.3332 46.4113 37.2837 46.4212C37.1749 46.4311 37.0761 46.441 36.9673 46.441C36.9079 46.4509 36.621 46.4509 36.5419 46.4509C36.4825 46.4509 35.9979 46.4212 35.9286 46.4113C35.8495 46.4014 35.7803 46.3915 35.7012 46.3817C35.6418 46.3718 35.1572 46.2927 35.0978 46.2828C35.0088 46.263 34.7319 46.1938 34.6824 46.174C34.5242 46.1344 34.3659 46.0751 34.2175 46.0256C34.1977 46.0059 34.1779 45.996 34.1582 45.996C33.9504 45.907 33.7526 45.818 33.5647 45.7092L15.8201 35.4734C14.9694 34.9789 14.5342 34.3262 14.5342 33.6735C14.5342 33.6735 14.5342 59.4063 14.5441 59.4756C14.5441 59.4756 14.554 59.5448 14.5639 59.5646C14.5639 59.5942 14.5837 59.6635 14.5837 59.6635C14.5936 59.7228 14.6133 59.7722 14.6331 59.8316C14.7221 60.0788 14.8408 60.247 14.8804 60.3162C15.0486 60.5436 15.2167 60.692 15.3948 60.8502C15.4937 60.9392 32.0909 70.5223 33.6142 71.4124V71.4223C33.624 71.4321 33.6241 71.4322 33.6241 71.4322C33.7032 71.4717 34.8703 71.9266 34.8703 71.9266C34.9297 71.9464 35.2759 72.0255 35.2957 72.0255C35.2957 72.0255 35.5627 72.0651 35.6616 72.0947L35.7506 72.1046C36.3342 72.1739 36.9277 72.1739 37.5113 72.1046C37.5409 72.1046 37.8476 72.0552 37.8871 72.0453H37.9069C38.0058 72.0354 38.6982 71.8376 38.6982 71.8376C38.7477 71.8277 38.7872 71.808 38.8268 71.7981L38.8762 71.7783C38.9158 71.7585 39.2719 71.6201 39.3708 71.5607C39.3708 71.5607 39.5983 71.4519 39.6477 71.4223L57.5506 60.9986C57.5506 60.9986 57.5803 60.9887 57.5803 60.9788C57.6297 60.9491 57.7188 60.8799 57.7188 60.8799C57.7188 60.8799 58.2133 60.4052 58.332 60.1975C58.3419 60.1777 58.3419 60.1678 58.3518 60.1579L58.3617 60.1382L58.3716 60.1184L58.3815 60.1085C58.3913 60.0887 58.3914 60.0788 58.3914 60.0788C58.4111 60.0393 58.421 60.0195 58.4309 59.9997L58.4408 59.9799L58.4507 59.97C58.4606 59.9305 58.4804 59.9107 58.4804 59.9107L58.4902 59.881C58.5001 59.8613 58.51 59.8316 58.51 59.8118L58.5199 59.792V59.8118C58.5298 59.7821 58.5397 59.7525 58.5397 59.7228L58.5496 59.7129V59.703C58.5694 59.614 58.5793 59.5547 58.5793 59.525V59.5448V59.5349V59.525C58.5793 59.525 58.5892 59.4953 58.5892 59.4854C58.5892 59.4459 58.5892 59.4063 58.5991 59.3668C58.5991 59.347 58.609 59.3371 58.609 59.3272C58.609 59.3272 58.609 59.3074 58.609 59.2877L58.6188 33.6932C58.5991 33.7328 58.5892 33.7724 58.5892 33.8218Z" fill="url(#paint3_linear_601_13250)"/>
<path d="M48.322 46.273C48.322 46.3026 37.2934 53.0869 37.2538 53.0968C37.2242 53.1067 37.1846 53.1166 37.155 53.1166C37.1154 53.1265 36.967 53.166 36.9373 53.166C36.8483 53.1759 36.4725 53.2155 36.4131 53.2155C36.3835 53.2155 35.879 53.2056 35.8394 53.1957C35.7999 53.1957 35.7603 53.1858 35.7207 53.1858C35.6911 53.1759 35.1866 53.077 35.1569 53.0672C35.0679 53.0375 34.88 52.9683 34.8602 52.9683C34.7514 52.9188 24.0591 46.5301 24.0591 46.1741C24.0591 46.1741 24.0492 60.3558 24.0591 60.3855L24.069 60.4349C24.069 60.4547 24.0789 60.4943 24.0789 60.4943C24.0888 60.5239 24.0987 60.5536 24.1086 60.5833C24.158 60.7217 24.2272 60.8107 24.2569 60.8503C24.3459 60.969 24.435 61.058 24.5438 61.147C24.5933 61.1964 33.7425 66.4775 34.5832 66.9621V66.972C34.6228 67.0017 35.2756 67.239 35.2756 67.239C35.3053 67.2489 35.5031 67.2984 35.5031 67.2984C35.5031 67.2984 35.6614 67.3181 35.7108 67.328H35.7504C36.0768 67.3676 36.4032 67.3676 36.7296 67.328C36.7395 67.328 36.9076 67.2984 36.9373 67.2984H36.9472C36.9967 67.2885 37.3824 67.1797 37.3824 67.1797C37.4121 67.1797 37.4418 67.1698 37.4616 67.1599L37.4912 67.15C37.511 67.1401 37.7089 67.061 37.7682 67.0313C37.7682 67.0313 37.8869 66.972 37.9165 66.9522L47.778 61.2162L47.7977 61.2063C47.8274 61.1866 47.8769 61.147 47.8769 61.147C47.8769 61.147 48.144 60.88 48.2132 60.7613C48.2132 60.7613 48.2231 60.7514 48.2231 60.7415L48.2329 60.7316V60.7217C48.2428 60.7118 48.2428 60.7119 48.2428 60.7119C48.2527 60.6921 48.2627 60.6822 48.2627 60.6723L48.2726 60.6624C48.2824 60.6426 48.2923 60.6327 48.2923 60.6327V60.613C48.3022 60.6031 48.3022 60.5833 48.3022 60.5734V60.5536V60.5635C48.3121 60.5536 48.3121 60.5437 48.3121 60.5239V60.5141C48.322 60.4646 48.3319 60.425 48.3319 60.4152V60.4349V60.4251C48.3319 60.4152 48.3418 60.4053 48.3418 60.4053C48.3418 60.3855 48.3418 60.3657 48.3418 60.336C48.3418 60.336 48.3418 60.3163 48.3418 60.3064V60.2767V46.1741C48.322 46.2235 48.322 46.2532 48.322 46.273Z" fill="url(#paint4_linear_601_13250)" stroke="white" stroke-width="0.3266" stroke-miterlimit="10"/>
<path d="M2.90181 29.5297C2.57541 29.3319 2.28857 29.4902 2.28857 29.8858C2.28857 30.2715 2.55565 30.7363 2.89194 30.934C3.22823 31.122 3.49528 30.9736 3.49528 30.5879C3.51506 30.1825 3.24799 29.7176 2.90181 29.5297Z" fill="#437FEC"/>
<path d="M7.64986 32.2592C7.31356 32.0614 7.03662 32.2197 7.03662 32.6054C7.03662 32.9911 7.30366 33.4658 7.63996 33.6636C7.97625 33.8515 8.25319 33.7031 8.25319 33.3174C8.26308 32.9317 7.98615 32.457 7.64986 32.2592Z" fill="#437FEC"/>
<path d="M10.0136 33.6339C9.68715 33.446 9.41016 33.5944 9.41016 33.9801C9.41016 34.3658 9.67726 34.8306 10.0136 35.0284C10.3499 35.2262 10.6268 35.0679 10.6268 34.6822C10.6268 34.2965 10.3597 33.8317 10.0136 33.6339Z" fill="#437FEC"/>
<path d="M2.90182 31.9922C2.56552 31.7944 2.29847 31.9625 2.28857 32.3482C2.28857 32.7339 2.55565 33.1988 2.89195 33.3965C3.22824 33.5943 3.50519 33.4361 3.50519 33.0504C3.50519 32.6647 3.22822 32.19 2.90182 31.9922Z" fill="#437FEC"/>
<path d="M7.6396 34.7317C7.30331 34.5438 7.03626 34.6921 7.02637 35.0778C7.02637 35.4635 7.29341 35.9382 7.6297 36.1261C7.966 36.314 8.24294 36.1657 8.24294 35.78C8.25283 35.3943 7.9759 34.9295 7.6396 34.7317Z" fill="#437FEC"/>
<path d="M10.0136 36.0964C9.67733 35.9085 9.40039 36.0667 9.40039 36.4524C9.40039 36.8381 9.67732 37.3029 10.0037 37.5007C10.34 37.6985 10.607 37.5403 10.607 37.1546C10.6169 36.7689 10.3499 36.2942 10.0136 36.0964Z" fill="#437FEC"/>
<path d="M2.89207 34.4647C2.55578 34.2669 2.2887 34.435 2.27881 34.8109C2.27881 35.1965 2.55577 35.6712 2.88217 35.8591C3.21847 36.0569 3.48552 35.8987 3.49541 35.513C3.5053 35.1372 3.22837 34.6625 2.89207 34.4647Z" fill="#437FEC"/>
<path d="M7.62969 37.2041C7.2934 37.0063 7.02637 37.1645 7.02637 37.5502C7.02637 37.9359 7.2934 38.4106 7.62969 38.5985C7.95608 38.7864 8.23301 38.6381 8.23301 38.2425C8.2429 37.8766 7.97587 37.4018 7.62969 37.2041Z" fill="#437FEC"/>
<path d="M10.0136 38.5788C9.67734 38.381 9.40039 38.5393 9.40039 38.9249C9.40039 39.3106 9.66744 39.7755 10.0037 39.9732C10.3401 40.1611 10.617 40.0029 10.617 39.6271C10.617 39.2414 10.35 38.7667 10.0136 38.5788Z" fill="#437FEC"/>
<path d="M2.88228 36.9371C2.54599 36.7492 2.26904 36.8976 2.26904 37.2833C2.26904 37.669 2.53608 38.1437 2.87238 38.3316C3.20867 38.5294 3.48561 38.3711 3.48561 37.9854C3.4955 37.5997 3.21857 37.1349 2.88228 36.9371Z" fill="#437FEC"/>
<path d="M7.62986 39.6765C7.29355 39.4787 7.0166 39.6369 7.0166 40.0226C7.0166 40.4083 7.29354 40.8731 7.61996 41.0709C7.95626 41.2588 8.23322 41.1105 8.23322 40.7248C8.23322 40.3391 7.96616 39.8743 7.62986 39.6765Z" fill="#437FEC"/>
<path d="M10.0037 41.0511C9.66744 40.8632 9.40039 41.0116 9.40039 41.3973C9.40039 41.783 9.66744 42.2577 10.0037 42.4456C10.3401 42.6434 10.6071 42.4852 10.617 42.0995C10.6071 41.7138 10.3401 41.2391 10.0037 41.0511Z" fill="#437FEC"/>
<path d="M2.8823 39.4095C2.54599 39.2216 2.27893 39.37 2.26904 39.7656C2.26904 40.1513 2.53609 40.6161 2.8724 40.8139C3.2087 41.0018 3.47578 40.8435 3.47578 40.4578C3.48567 40.0721 3.2186 39.5974 2.8823 39.4095Z" fill="#437FEC"/>
<path d="M7.62008 42.1489C7.28378 41.9511 7.01673 42.1093 7.00684 42.495C7.00684 42.8807 7.28377 43.3455 7.61018 43.5433C7.94647 43.7411 8.22348 43.5829 8.22348 43.1972C8.22348 42.8115 7.95638 42.3467 7.62008 42.1489Z" fill="#437FEC"/>
<path d="M9.9941 43.5137C9.6578 43.3258 9.38086 43.4841 9.38086 43.8599C9.38086 44.2456 9.6578 44.7203 9.9842 44.9082C10.3205 45.106 10.5974 44.9477 10.5974 44.562C10.5974 44.1763 10.3304 43.7115 9.9941 43.5137Z" fill="#437FEC"/>
<path d="M2.87205 41.8819C2.53574 41.6841 2.25879 41.8423 2.25879 42.228C2.25879 42.6137 2.52587 43.0786 2.86218 43.2764C3.19848 43.4741 3.46554 43.3159 3.47543 42.9302C3.47543 42.5445 3.20835 42.0698 2.87205 41.8819Z" fill="#437FEC"/>
<path d="M7.62008 44.6213C7.28378 44.4334 7.00684 44.5818 7.00684 44.9675C7.00684 45.3532 7.27388 45.818 7.61018 46.0158C7.94647 46.2136 8.22348 46.0553 8.22348 45.6697C8.22348 45.284 7.94648 44.8191 7.62008 44.6213Z" fill="#437FEC"/>
<path d="M9.98421 45.9861C9.64791 45.7883 9.38086 45.9564 9.38086 46.3322C9.38086 46.7179 9.64791 47.1926 9.98421 47.3805C10.3205 47.5783 10.5876 47.4201 10.5876 47.0344C10.5876 46.6487 10.3205 46.1839 9.98421 45.9861Z" fill="#437FEC"/>
<path d="M2.86218 44.3543C2.52587 44.1565 2.25879 44.3148 2.25879 44.7005C2.25879 45.0862 2.53576 45.5609 2.86218 45.7488C3.19848 45.9466 3.47543 45.7883 3.47543 45.4026C3.47543 45.0169 3.19848 44.5521 2.86218 44.3543Z" fill="#437FEC"/>
<path d="M7.61018 47.0938C7.27388 46.9058 7.00684 47.0542 7.00684 47.4399C7.00684 47.8256 7.27388 48.2904 7.61018 48.4882C7.94647 48.6761 8.22348 48.5278 8.22348 48.1421C8.21359 47.7564 7.94647 47.2817 7.61018 47.0938Z" fill="#437FEC"/>
<path d="M9.97395 48.4586C9.63765 48.2608 9.37061 48.419 9.37061 48.8047C9.37061 49.1904 9.63765 49.6651 9.97395 49.853C10.3102 50.0508 10.5872 49.8926 10.5872 49.5069C10.5872 49.1212 10.3201 48.6564 9.97395 48.4586Z" fill="#437FEC"/>
<path d="M2.8623 46.8168C2.526 46.619 2.24902 46.7773 2.24902 47.1729C2.24902 47.5487 2.51611 48.0234 2.8623 48.2212C3.19861 48.419 3.46566 48.2607 3.47556 47.875C3.46566 47.4893 3.18871 47.0146 2.8623 46.8168Z" fill="#437FEC"/>
<path d="M7.60025 49.5563C7.26395 49.3684 6.99684 49.5167 6.99684 49.9024C6.98695 50.2881 7.26395 50.7628 7.60025 50.9507C7.93655 51.1485 8.2135 50.9903 8.2135 50.6046C8.20361 50.2288 7.93655 49.7541 7.60025 49.5563Z" fill="#437FEC"/>
<path d="M9.97423 50.9309C9.63792 50.743 9.37086 50.8914 9.37086 51.2771C9.36097 51.6627 9.63792 52.1374 9.97423 52.3254C10.3006 52.5231 10.5776 52.3649 10.5776 51.9792C10.5875 51.5935 10.3105 51.1188 9.97423 50.9309Z" fill="#437FEC"/>
<path d="M2.8525 49.2893C2.5162 49.0915 2.24915 49.2497 2.23926 49.6354C2.23926 50.0211 2.51619 50.4958 2.8426 50.6936C3.1789 50.8815 3.45584 50.7233 3.45584 50.3475C3.45584 49.9519 3.1888 49.4772 2.8525 49.2893Z" fill="#437FEC"/>
<path d="M7.59029 52.0287C7.25399 51.8408 6.97705 51.9891 6.97705 52.3748C6.97705 52.7605 7.24409 53.2254 7.58039 53.4231C7.91668 53.6209 8.19362 53.4627 8.19362 53.077C8.20351 52.7012 7.92658 52.2265 7.59029 52.0287Z" fill="#437FEC"/>
<path d="M9.96418 53.4034C9.62788 53.2056 9.36084 53.3638 9.36084 53.7495C9.36084 54.1352 9.62788 54.6099 9.96418 54.7978C10.3005 54.9956 10.5675 54.8374 10.5774 54.4517C10.5774 54.066 10.3005 53.5913 9.96418 53.4034Z" fill="#437FEC"/>
<path d="M2.84275 51.7617C2.50644 51.5738 2.22949 51.732 2.22949 52.1078C2.22949 52.4935 2.49657 52.9682 2.83288 53.166C3.16918 53.3539 3.44614 53.2055 3.44614 52.8099C3.44614 52.4243 3.17905 51.9595 2.84275 51.7617Z" fill="#437FEC"/>
<path d="M7.59029 54.5012C7.25399 54.3133 6.98694 54.4715 6.97705 54.8572C6.97705 55.2429 7.25398 55.7176 7.58039 55.9055C7.90679 56.1033 8.18372 55.9451 8.18372 55.5594C8.19362 55.1638 7.92658 54.699 7.59029 54.5012Z" fill="#437FEC"/>
<path d="M9.95411 55.8758C9.61782 55.678 9.35071 55.8363 9.34082 56.2219C9.34082 56.6076 9.61781 57.0724 9.94421 57.2702C10.2805 57.468 10.5574 57.3098 10.5574 56.9241C10.5574 56.5384 10.2904 56.0637 9.95411 55.8758Z" fill="#437FEC"/>
<path d="M2.83288 54.2341C2.50647 54.0363 2.22949 54.1945 2.22949 54.5802C2.22949 54.9659 2.49657 55.4307 2.83288 55.6285C3.16918 55.8164 3.44614 55.6681 3.44614 55.2824C3.44614 54.8967 3.17908 54.4319 2.83288 54.2341Z" fill="#437FEC"/>
<path d="M7.58039 56.9736C7.2441 56.7758 6.97705 56.934 6.97705 57.3197C6.97705 57.7054 7.2441 58.1702 7.58039 58.368C7.91669 58.5559 8.19363 58.4076 8.19363 58.012C8.18374 57.6362 7.91669 57.1714 7.58039 56.9736Z" fill="#437FEC"/>
<path d="M9.95411 58.3482C9.61782 58.1504 9.34082 58.3087 9.34082 58.6944C9.34082 59.0801 9.60792 59.5547 9.94421 59.7427C10.2805 59.9404 10.5574 59.7822 10.5574 59.3965C10.5574 59.0009 10.2904 58.5361 9.95411 58.3482Z" fill="#437FEC"/>
<path d="M2.833 56.7065C2.4967 56.5186 2.21973 56.667 2.21973 57.0527C2.21973 57.4384 2.49669 57.9131 2.8231 58.1109C3.15939 58.3087 3.42644 58.1405 3.42644 57.7548C3.43633 57.3691 3.1594 56.8944 2.833 56.7065Z" fill="#437FEC"/>
<path d="M7.57076 59.4459C7.23446 59.258 6.96741 59.4064 6.95752 59.7921C6.95752 60.1778 7.23445 60.6426 7.56085 60.8404C7.89715 61.0382 8.17409 60.8799 8.17409 60.4942C8.18398 60.1085 7.90705 59.6338 7.57076 59.4459Z" fill="#437FEC"/>
<path d="M9.94429 60.8107C9.608 60.6228 9.34095 60.7711 9.33105 61.1568C9.33105 61.5425 9.5981 62.0172 9.93439 62.2051C10.2707 62.4029 10.5476 62.2447 10.5476 61.859C10.5575 61.4832 10.2806 61.0085 9.94429 60.8107Z" fill="#437FEC"/>
<path d="M2.8231 59.179C2.4868 58.9911 2.21973 59.1394 2.21973 59.5251C2.21973 59.9108 2.4868 60.3855 2.8231 60.5734C3.15939 60.7712 3.43634 60.613 3.43634 60.2273C3.42645 59.8416 3.15939 59.3669 2.8231 59.179Z" fill="#437FEC"/>
<path d="M7.57076 61.9184C7.23446 61.7206 6.95752 61.8789 6.95752 62.2645C6.95752 62.6502 7.22456 63.1249 7.56086 63.3128C7.89716 63.5106 8.1741 63.3524 8.1741 62.9667C8.16421 62.581 7.90706 62.1063 7.57076 61.9184Z" fill="#437FEC"/>
<path d="M9.93453 63.2832C9.59823 63.0854 9.32129 63.2436 9.32129 63.6293C9.32129 64.015 9.58833 64.4897 9.92463 64.6776C10.2609 64.8754 10.528 64.7172 10.528 64.3315C10.5477 63.9557 10.2708 63.481 9.93453 63.2832Z" fill="#437FEC"/>
<path d="M2.81296 61.6415C2.47666 61.4536 2.2096 61.6019 2.19971 61.9975C2.19971 62.3832 2.46677 62.848 2.81296 63.0359C3.14926 63.2337 3.41632 63.0754 3.42621 62.6898C3.42621 62.314 3.14926 61.8393 2.81296 61.6415Z" fill="#437FEC"/>
<path d="M7.56084 64.3808C7.22455 64.183 6.95752 64.3412 6.95752 64.7368C6.95752 65.1225 7.22455 65.5873 7.56084 65.7851C7.89712 65.973 8.16422 65.8247 8.16422 65.439C8.16422 65.0434 7.88723 64.5786 7.56084 64.3808Z" fill="#437FEC"/>
<path d="M9.9344 65.7556C9.5981 65.5578 9.33105 65.716 9.33105 66.1017C9.33105 66.4973 9.5981 66.9621 9.9344 67.15C10.2707 67.3478 10.5377 67.1896 10.5476 66.8039C10.5377 66.4182 10.2707 65.9534 9.9344 65.7556Z" fill="#437FEC"/>
<path d="M69.2915 29.5693C69.6278 29.3715 69.9047 29.5297 69.9047 29.9154C69.9047 30.3011 69.6377 30.7758 69.3014 30.9736C68.9651 31.1615 68.698 31.0033 68.698 30.6176C68.6881 30.222 68.9552 29.7572 69.2915 29.5693Z" fill="#437FEC"/>
<path d="M64.5438 32.2988C64.8801 32.1109 65.157 32.2593 65.157 32.645C65.157 33.0307 64.8899 33.5054 64.5537 33.6933C64.2174 33.8911 63.9404 33.7328 63.9404 33.3471C63.9404 32.9614 64.2075 32.4966 64.5438 32.2988Z" fill="#437FEC"/>
<path d="M62.1796 33.6735C62.506 33.4856 62.7731 33.6339 62.783 34.0196C62.783 34.4053 62.5159 34.8701 62.1796 35.0679C61.8433 35.2657 61.5664 35.1075 61.5664 34.7218C61.5664 34.3361 61.8433 33.8614 62.1796 33.6735Z" fill="#437FEC"/>
<path d="M69.2914 32.0318C69.6277 31.834 69.9046 31.9923 69.9046 32.378C69.9046 32.7637 69.6376 33.2384 69.3013 33.4263C68.965 33.6142 68.688 33.4658 68.688 33.0801C68.6979 32.6944 68.965 32.2296 69.2914 32.0318Z" fill="#437FEC"/>
<path d="M64.5536 34.7713C64.8899 34.5735 65.1668 34.7416 65.1668 35.1273C65.1668 35.513 64.8998 35.9778 64.5635 36.1756C64.2271 36.3734 63.9502 36.2151 63.9502 35.8294C63.9502 35.4338 64.2172 34.969 64.5536 34.7713Z" fill="#437FEC"/>
<path d="M62.1797 36.136C62.516 35.9481 62.793 36.0964 62.793 36.492C62.793 36.8777 62.5259 37.3425 62.1896 37.5403C61.8533 37.7282 61.5862 37.57 61.5862 37.1843C61.5763 36.8085 61.8434 36.3338 62.1797 36.136Z" fill="#437FEC"/>
<path d="M69.3013 34.5042C69.6376 34.3064 69.9145 34.4647 69.9145 34.8504C69.9145 35.2361 69.6376 35.7009 69.3013 35.8986C68.965 36.0865 68.688 35.9283 68.688 35.5426C68.6979 35.1767 68.9749 34.6921 69.3013 34.5042Z" fill="#437FEC"/>
<path d="M64.5633 37.2437C64.8995 37.0459 65.1666 37.2042 65.1666 37.5899C65.1666 37.9756 64.8995 38.4404 64.5633 38.6382C64.227 38.836 63.96 38.6777 63.96 38.292C63.96 37.9063 64.227 37.4415 64.5633 37.2437Z" fill="#437FEC"/>
<path d="M62.1894 38.6183C62.5257 38.4106 62.7927 38.5787 62.7927 38.9644C62.7927 39.3501 62.5256 39.815 62.1992 40.0128C61.8629 40.2106 61.5859 40.0523 61.5859 39.6666C61.5859 39.2809 61.8531 38.8062 62.1894 38.6183Z" fill="#437FEC"/>
<path d="M69.3208 36.9767C69.6571 36.7888 69.9242 36.9371 69.9242 37.3228C69.9242 37.7085 69.6571 38.1733 69.3208 38.3711C68.9845 38.5689 68.7075 38.4107 68.7075 38.025C68.7075 37.6393 68.9746 37.1745 69.3208 36.9767Z" fill="#437FEC"/>
<path d="M64.5633 39.7161C64.8996 39.5282 65.1765 39.6865 65.1765 40.0623C65.1765 40.448 64.8996 40.9227 64.5633 41.1106C64.227 41.3084 63.96 41.1501 63.96 40.7644C63.9699 40.3787 64.2369 39.904 64.5633 39.7161Z" fill="#437FEC"/>
<path d="M62.1992 41.0809C62.5355 40.893 62.8026 41.0512 62.8026 41.427C62.8026 41.8127 62.5355 42.2874 62.1992 42.4753C61.8629 42.6731 61.5859 42.5149 61.5859 42.1292C61.5859 41.7435 61.853 41.2787 62.1992 41.0809Z" fill="#437FEC"/>
<path d="M69.3211 39.449C69.6574 39.2513 69.9244 39.4095 69.9244 39.7952C69.9244 40.1809 69.6574 40.6457 69.3211 40.8435C68.9848 41.0413 68.7178 40.883 68.7178 40.4974C68.7178 40.1117 68.9848 39.637 69.3211 39.449Z" fill="#437FEC"/>
<path d="M64.5731 42.1884C64.9094 41.9906 65.1764 42.1489 65.1863 42.5346C65.1863 42.9203 64.9094 43.3851 64.583 43.5829C64.2467 43.7807 63.9697 43.6225 63.9697 43.2368C63.9697 42.851 64.2368 42.3862 64.5731 42.1884Z" fill="#437FEC"/>
<path d="M62.1995 43.5533C62.5359 43.3555 62.8129 43.5137 62.8129 43.8994C62.8129 44.2851 62.5458 44.7598 62.2094 44.9576C61.8731 45.1455 61.5962 44.9972 61.5962 44.6115C61.5962 44.2159 61.8632 43.7511 62.1995 43.5533Z" fill="#437FEC"/>
<path d="M69.3211 41.9116C69.6673 41.7237 69.9343 41.8721 69.9343 42.2578C69.9343 42.6434 69.6574 43.1182 69.331 43.3061C68.9947 43.494 68.7277 43.3456 68.7178 42.9599C68.7178 42.5841 68.9947 42.1094 69.3211 41.9116Z" fill="#437FEC"/>
<path d="M64.5833 44.661C64.9196 44.4632 65.1867 44.6214 65.1966 45.0071C65.1966 45.3928 64.9295 45.8675 64.5833 46.0554C64.247 46.2532 63.98 46.095 63.98 45.7093C63.98 45.3137 64.247 44.8489 64.5833 44.661Z" fill="#437FEC"/>
<path d="M62.2095 46.0257C62.5458 45.8279 62.8228 45.9861 62.8228 46.3718C62.8228 46.7575 62.5557 47.2323 62.2194 47.4202C61.883 47.6081 61.616 47.4498 61.616 47.074C61.6061 46.6883 61.883 46.2136 62.2095 46.0257Z" fill="#437FEC"/>
<path d="M69.331 44.384C69.6673 44.1862 69.9343 44.3444 69.9343 44.7301C69.9343 45.1158 69.6673 45.5905 69.331 45.7784C68.9947 45.9762 68.7178 45.818 68.7178 45.4323C68.7277 45.0565 68.9947 44.5818 69.331 44.384Z" fill="#437FEC"/>
<path d="M64.5929 47.1234C64.9292 46.9355 65.2062 47.0839 65.2062 47.4696C65.2062 47.8553 64.9292 48.33 64.6028 48.5179C64.2665 48.7157 63.9895 48.5575 63.9895 48.1717C63.9796 47.7959 64.2566 47.3212 64.5929 47.1234Z" fill="#437FEC"/>
<path d="M62.2193 48.4981C62.5556 48.3003 62.8227 48.4586 62.8227 48.8442C62.8227 49.2299 62.5556 49.6947 62.2193 49.8925C61.8829 50.0903 61.606 49.9321 61.606 49.5464C61.606 49.1607 61.8829 48.686 62.2193 48.4981Z" fill="#437FEC"/>
<path d="M69.3408 46.8564C69.677 46.6685 69.9441 46.8267 69.954 47.2025C69.954 47.5882 69.6869 48.053 69.3408 48.2508C69.0045 48.4387 68.7374 48.2904 68.7275 47.9047C68.7374 47.519 69.0045 47.0542 69.3408 46.8564Z" fill="#437FEC"/>
<path d="M64.6031 49.5959C64.9394 49.3981 65.2064 49.5563 65.2064 49.942C65.2064 50.3277 64.9394 50.7925 64.6031 50.9903C64.2668 51.1782 63.9996 51.02 63.9897 50.6343C63.9897 50.2585 64.2668 49.7937 64.6031 49.5959Z" fill="#437FEC"/>
<path d="M62.2291 50.9705C62.5654 50.7727 62.8324 50.931 62.8324 51.3167C62.8324 51.7024 62.5654 52.1672 62.2291 52.365C61.8928 52.5628 61.6257 52.4045 61.6257 52.0188C61.6159 51.6331 61.8928 51.1584 62.2291 50.9705Z" fill="#437FEC"/>
<path d="M69.3506 49.3288C69.6869 49.131 69.954 49.2892 69.9639 49.6749C69.9639 50.0607 69.6869 50.5354 69.3605 50.7233C69.0243 50.9211 68.7473 50.7628 68.7473 50.3771C68.7374 49.9914 69.0144 49.5266 69.3506 49.3288Z" fill="#437FEC"/>
<path d="M64.6029 52.0682C64.9391 51.8803 65.2062 52.0287 65.2161 52.4144C65.2161 52.8001 64.949 53.2748 64.6127 53.4627C64.2764 53.6605 63.9995 53.5023 63.9995 53.1067C63.9995 52.7407 64.2666 52.266 64.6029 52.0682Z" fill="#437FEC"/>
<path d="M62.2293 53.4429C62.5656 53.2452 62.8425 53.4034 62.8425 53.7891C62.8425 54.1748 62.5656 54.6495 62.2392 54.8374C61.9029 55.0352 61.626 54.867 61.626 54.4912C61.626 54.0957 61.9029 53.6308 62.2293 53.4429Z" fill="#437FEC"/>
<path d="M69.3603 51.8012C69.6966 51.6034 69.9637 51.7617 69.9637 52.1473C69.9637 52.533 69.6966 53.0077 69.3603 53.2055C69.024 53.3934 68.7471 53.2352 68.7471 52.8495C68.7471 52.4638 69.024 51.999 69.3603 51.8012Z" fill="#437FEC"/>
<path d="M64.613 54.5407C64.9493 54.3429 65.2262 54.5012 65.2262 54.8869C65.2262 55.2726 64.9493 55.7374 64.6229 55.9352C64.2866 56.1231 64.0196 55.9747 64.0196 55.5791C63.9998 55.2033 64.2767 54.7286 64.613 54.5407Z" fill="#437FEC"/>
<path d="M62.2388 55.9055C62.5751 55.7077 62.8521 55.8659 62.8521 56.2516C62.8521 56.6373 62.5751 57.112 62.2487 57.2999C61.9124 57.4977 61.6355 57.3296 61.6355 56.9538C61.6256 56.578 61.9025 56.1033 62.2388 55.9055Z" fill="#437FEC"/>
<path d="M69.3706 54.2737C69.7069 54.0858 69.974 54.2341 69.974 54.6198C69.974 55.0055 69.7069 55.4802 69.3706 55.6681C69.0343 55.856 68.7573 55.7077 68.7573 55.322C68.7573 54.9363 69.0244 54.4616 69.3706 54.2737Z" fill="#437FEC"/>
<path d="M64.6225 57.0131C64.9588 56.8153 65.2258 56.9736 65.2357 57.3593C65.2357 57.745 64.9588 58.2098 64.6225 58.4076C64.2862 58.6054 64.0093 58.4471 64.0093 58.0614C64.0093 57.6758 64.2862 57.201 64.6225 57.0131Z" fill="#437FEC"/>
<path d="M62.2489 58.3779C62.5851 58.19 62.8621 58.3482 62.8621 58.7339C62.8621 59.1196 62.595 59.5844 62.2587 59.7822C61.9224 59.98 61.6455 59.8218 61.6455 59.4361C61.6455 59.0504 61.9126 58.5757 62.2489 58.3779Z" fill="#437FEC"/>
<path d="M69.3706 56.746C69.7069 56.5483 69.9839 56.7065 69.9839 57.0922C69.9839 57.4779 69.7069 57.9427 69.3805 58.1306C69.0442 58.3284 68.7771 58.1702 68.7771 57.7845C68.7672 57.4087 69.0343 56.934 69.3706 56.746Z" fill="#437FEC"/>
<path d="M64.6229 59.4855C64.9591 59.2976 65.2262 59.4459 65.2361 59.8316C65.2361 60.2074 64.9592 60.6821 64.6328 60.8799C64.2965 61.0777 64.0195 60.9195 64.0195 60.5338C64.0195 60.1481 64.2866 59.6734 64.6229 59.4855Z" fill="#437FEC"/>
<path d="M62.2589 60.8503C62.5951 60.6624 62.8622 60.8108 62.8721 61.1965C62.8721 61.5822 62.605 62.047 62.2688 62.2448C61.9325 62.4426 61.6555 62.2843 61.6555 61.8986C61.6456 61.5129 61.9226 61.0481 62.2589 60.8503Z" fill="#437FEC"/>
<path d="M69.3803 59.2185C69.7167 59.0306 69.9838 59.1789 69.9838 59.5646C69.9838 59.9503 69.7167 60.425 69.3803 60.613C69.044 60.8107 68.7671 60.6525 68.7671 60.2668C68.7671 59.8811 69.044 59.4064 69.3803 59.2185Z" fill="#437FEC"/>
<path d="M64.6324 61.958C64.9687 61.7602 65.2457 61.9184 65.2457 62.3041C65.2457 62.6898 64.9786 63.1645 64.6423 63.3524C64.306 63.5502 64.039 63.392 64.0291 62.9964C64.0192 62.6206 64.2961 62.1459 64.6324 61.958Z" fill="#437FEC"/>
<path d="M62.2586 63.3226C62.5949 63.1347 62.862 63.2831 62.8719 63.6688C62.8719 64.0545 62.6048 64.5292 62.2685 64.7171C61.9322 64.905 61.6553 64.7468 61.6553 64.371C61.6553 63.9853 61.9223 63.5204 62.2586 63.3226Z" fill="#437FEC"/>
<path d="M69.3802 61.6909C69.7066 61.4931 69.9935 61.6513 69.9935 62.037C69.9935 62.4227 69.7165 62.8974 69.3901 63.0853C69.0538 63.2831 68.7769 63.1249 68.7769 62.7392C68.7769 62.3436 69.0439 61.8788 69.3802 61.6909Z" fill="#437FEC"/>
<path d="M64.6328 64.4204C64.9691 64.2325 65.246 64.3809 65.246 64.7666C65.246 65.1523 64.979 65.6171 64.6427 65.8149C64.3064 66.0126 64.0393 65.8544 64.0393 65.4687C64.0294 65.083 64.3064 64.6182 64.6328 64.4204Z" fill="#437FEC"/>
<path d="M62.2685 65.7952C62.6048 65.6073 62.8719 65.7556 62.8719 66.1413C62.8719 66.527 62.6048 66.9918 62.2685 67.1896C61.9322 67.3874 61.6553 67.2292 61.6553 66.8534C61.6553 66.4578 61.9322 65.9831 62.2685 65.7952Z" fill="#437FEC"/>
<defs>
<linearGradient id="paint0_linear_601_13250" x1="1.82402" y1="21.297" x2="71.2424" y2="21.297" gradientUnits="userSpaceOnUse">
<stop stop-color="#4CD9ED"/>
<stop offset="1" stop-color="#5FEFC0"/>
</linearGradient>
<linearGradient id="paint1_linear_601_13250" x1="31.9708" y1="17.468" x2="41.0952" y2="25.1254" gradientUnits="userSpaceOnUse">
<stop stop-color="#4CD9ED"/>
<stop offset="1" stop-color="#437FEC"/>
</linearGradient>
<linearGradient id="paint2_linear_601_13250" x1="72.7884" y1="53.5753" x2="0.270405" y2="53.5753" gradientUnits="userSpaceOnUse">
<stop stop-color="#B7C0EB"/>
<stop offset="0.5105" stop-color="#E4E7FB"/>
<stop offset="0.8827" stop-color="#EFF1FE"/>
</linearGradient>
<linearGradient id="paint3_linear_601_13250" x1="14.5348" y1="52.8969" x2="58.6052" y2="52.8969" gradientUnits="userSpaceOnUse">
<stop stop-color="#4CD9ED"/>
<stop offset="1" stop-color="#437FEC"/>
</linearGradient>
<linearGradient id="paint4_linear_601_13250" x1="24.0453" y1="56.7844" x2="48.3223" y2="56.7844" gradientUnits="userSpaceOnUse">
<stop offset="0.4173" stop-color="#5FEFC0"/>
<stop offset="0.4207" stop-color="#5FEEC1"/>
<stop offset="0.5729" stop-color="#4CD9ED"/>
</linearGradient>
</defs>
</svg>
